<svg id="Layer_1" data-name="Layer 1" xmlns="http://www.w3.org/2000/svg" width="820.38" height="350.87" viewBox="0 0 820.38 350.87"><defs><style>.cls-1{fill:none;stroke:#d0d2d3;stroke-miterlimit:10;}.cls-2{fill:#069;}.cls-3,.cls-4{fill-rule:evenodd;}.cls-4{fill:#fff;}.cls-5{fill:#3b5998;}.cls-6{fill:#828282;}.cls-7{fill:#3c8bd9;}.cls-8{fill:#fabc04;}.cls-9{fill:#34a852;}.cls-10{fill:#e1c025;}.cls-11{fill:#757575;}</style></defs><title>analytics</title><rect class="cls-1" x="23" y="191.33" width="241.38" height="145.29"/><rect class="cls-1" x="290" y="191.33" width="241.38" height="145.29"/><rect class="cls-1" x="556" y="191.33" width="241.38" height="145.29"/><path d="M365.28,98.82a7.51,7.51,0,0,1-.93,4.05c-1,1.38-2.37,1.93-4.83,1.93a10,10,0,0,1-2.64-.27v-2.68c1.38.09,1.65.11,2.12.11a3.18,3.18,0,0,0,2.48-.82,4.07,4.07,0,0,0,.41-2.32V86.15h3.39Z"/><path d="M379.58,93.45a7.51,7.51,0,0,1,1.13,4.3c0,4.16-2.64,7-6.45,7a5.52,5.52,0,0,1-4.85-2.51,7.91,7.91,0,0,1-1.35-4.6c0-4.13,2.62-7,6.37-7A5.63,5.63,0,0,1,379.58,93.45Zm-8.26,4.27c0,2.92,1.1,4.57,3.06,4.57s3.08-1.65,3.08-4.62-1.07-4.5-3-4.5S371.32,94.8,371.32,97.72Z"/><path d="M391.71,104.53V96c0-1.65-.83-2.7-2.13-2.7a2.89,2.89,0,0,0-2.5,1.68,5.48,5.48,0,0,0-.5,2.53v7h-3.06V90.94h2.78v3.14c1.13-2.45,2.32-3.41,4.16-3.41a4.21,4.21,0,0,1,3.72,2,6.26,6.26,0,0,1,.58,3.08v8.77Z"/><path d="M406.75,99.4a3,3,0,0,0,1,1.77,5.57,5.57,0,0,0,3.45,1c2.23,0,3.64-1,3.64-2.59,0-1.1-.75-1.82-2.29-2.23l-3.53-.91c-1.87-.5-2.81-1-3.47-1.88a5,5,0,0,1-1.08-3.17c0-3.27,2.6-5.48,6.51-5.48a8.06,8.06,0,0,1,5.07,1.6,4.21,4.21,0,0,1,1.54,2.37l-3.14.77c-.49-1.4-1.6-2.07-3.44-2.07s-3.15.89-3.15,2.26c0,1.08.83,1.79,2.57,2.24l3.14.77c2,.52,3.17,1.18,3.88,2.26a5.15,5.15,0,0,1,.89,3c0,3.5-2.9,5.76-7.33,5.76a8.89,8.89,0,0,1-5.65-1.73,5.47,5.47,0,0,1-1.85-3Z"/><path d="M429.23,104.53V96c0-1.65-.83-2.7-2.12-2.7A2.92,2.92,0,0,0,424.6,95a5.62,5.62,0,0,0-.49,2.53v7h-3.06V90.94h2.78v3.14c1.13-2.45,2.31-3.41,4.16-3.41a4.24,4.24,0,0,1,3.72,2,6.26,6.26,0,0,1,.58,3.08v8.77Z"/><path d="M446.59,93.45a7.51,7.51,0,0,1,1.13,4.3c0,4.16-2.65,7-6.45,7a5.51,5.51,0,0,1-4.85-2.51,7.91,7.91,0,0,1-1.35-4.6c0-4.13,2.62-7,6.37-7A5.65,5.65,0,0,1,446.59,93.45Zm-8.27,4.27c0,2.92,1.1,4.57,3.06,4.57s3.09-1.65,3.09-4.62-1.08-4.5-3-4.5S438.32,94.8,438.32,97.72Z"/><path d="M463.37,104.53h-2.76L458.16,95l-2.42,9.54H452.9l-4.19-13.59H452l2.7,9.15L457,90.94h2.78l2.4,9.15,2.61-9.15h2.59Z"/><path d="M423.26,51.73a16.41,16.41,0,0,1,16.39,16.39v5.14a5.84,5.84,0,0,1-5.87,5.87h-43a5.84,5.84,0,0,1-5.87-5.87V68.12a16.12,16.12,0,0,1,2.2-8.19,16.29,16.29,0,0,1,6-6,16.09,16.09,0,0,1,8.19-2.2h2.08a21.32,21.32,0,0,0,17.86,0Zm-11-3.91a15.46,15.46,0,0,1-7.89-2.08,15.23,15.23,0,0,1-5.69-5.69,16,16,0,0,1,0-15.77,15.23,15.23,0,0,1,5.69-5.69,16,16,0,0,1,15.78,0,15.21,15.21,0,0,1,5.68,5.69,16,16,0,0,1,0,15.77,15.21,15.21,0,0,1-5.68,5.69A15.51,15.51,0,0,1,412.26,47.82Z"/><g id="layer1"><g id="g3019"><path id="path14" class="cls-2" d="M717.12,244.61a3.28,3.28,0,0,1,3.32-3.24h38.29a3.28,3.28,0,0,1,3.32,3.24v38.73a3.28,3.28,0,0,1-3.32,3.24H720.44a3.28,3.28,0,0,1-3.32-3.24Z"/><path id="path16" class="cls-3" d="M591.34,279.24h18.75v-6.15h-12V249.6h-6.78Z"/><path id="path18" class="cls-3" d="M619.58,279.24V258.83H612.8v20.41ZM616.19,256a3.78,3.78,0,1,0-.05,0Z"/><path id="path20" class="cls-3" d="M622.73,279.24h6.79v-11.4a4.67,4.67,0,0,1,.22-1.66,3.73,3.73,0,0,1,3.48-2.48c2.46,0,3.44,1.88,3.44,4.62v10.92h6.79v-11.7c0-6.28-3.35-9.19-7.81-9.19a6.76,6.76,0,0,0-6.17,3.44h0v-3h-6.79c.09,1.91,0,20.41,0,20.41Z"/><path id="path22" class="cls-3" d="M653,249.6h-6.78v29.64H653v-6.62l1.7-2.13,5.31,8.75h8.35l-8.93-12.67,7.81-8.62h-8.17s-5.58,7.71-6.07,8.63v-17Z"/><path id="path24" class="cls-3" d="M686.53,270.73a16.66,16.66,0,0,0,.22-2.67c0-5.28-2.68-10.64-9.73-10.64-7.55,0-11,6-11,11.38,0,6.7,4.24,10.88,11.65,10.88a21.25,21.25,0,0,0,7.91-1.35l-.9-4.48a18.62,18.62,0,0,1-6,.91c-3.17,0-5.94-1.3-6.16-4.08l14.06,0Zm-14.11-4.6c.18-1.74,1.34-4.31,4.24-4.31,3.08,0,3.8,2.75,3.8,4.31Z"/><path id="path26" class="cls-3" d="M703.5,249.6v10.26h-.09c-1-1.44-3-2.39-5.75-2.39-5.23,0-9.83,4.18-9.78,11.32,0,6.62,4.15,10.93,9.33,10.93a7.68,7.68,0,0,0,6.83-3.57h.13l.27,3.09h6c-.09-1.43-.18-3.92-.18-6.36V249.6Zm0,20.19a7.55,7.55,0,0,1-.13,1.48,4,4,0,0,1-4,3.18c-2.82,0-4.65-2.26-4.65-5.83,0-3.36,1.57-6.06,4.69-6.06a4,4,0,0,1,4,3.22,5.62,5.62,0,0,1,.09,1.22v2.79Z"/><path id="path28" class="cls-4" d="M730.74,279.22V258.8H724v20.42ZM727.34,256a3.54,3.54,0,1,0-3.79-3.52,3.54,3.54,0,0,0,3.79,3.52Z"/><path id="path30" class="cls-4" d="M734.49,279.22h6.79v-11.4a4.67,4.67,0,0,1,.22-1.66,3.71,3.71,0,0,1,3.48-2.48c2.46,0,3.44,1.87,3.44,4.62v10.92h6.79V267.51c0-6.27-3.35-9.19-7.82-9.19a6.76,6.76,0,0,0-6.16,3.44h0v-3h-6.79c.09,1.92,0,20.42,0,20.42Z"/></g></g><path class="cls-5" d="M124.59,259.4a5.7,5.7,0,0,0-5.4,2.3v-.6h0V250.3l-5.6.7v26.1h5.5v-1.5a15,15,0,0,0,2.3,1.5c3.2,1.1,7.5.2,9-4.1a15.34,15.34,0,0,0,.2-8.5C129.89,261.5,127.79,259.8,124.59,259.4Zm.8,11.3a2.82,2.82,0,0,1-3.2,2.5,2,2,0,0,1-1.1-.3,3.78,3.78,0,0,1-1.8-2.9h0c-.1-1.2-.2-3.8.4-5a3.07,3.07,0,0,1,2.6-1.5,2.7,2.7,0,0,1,3.1,2.5A18.46,18.46,0,0,1,125.39,270.7Z"/><path class="cls-5" d="M144.19,259.7a11.4,11.4,0,0,0-5.8,0,7.08,7.08,0,0,0-5.4,5.5,15.54,15.54,0,0,0-.3,4.8,7.29,7.29,0,0,0,6.1,7.1h.2c.1,0,.3.1.4.1h.1c.2,0,.4.1.6.1a8.85,8.85,0,0,0,2.3,0h.1a7.59,7.59,0,0,0,7.3-6.1,11.79,11.79,0,0,0,0-5.9A7.16,7.16,0,0,0,144.19,259.7Zm.3,10.7a.76.76,0,0,1-.1.4,2.93,2.93,0,0,1-3.1,2.5,2.84,2.84,0,0,1-3-2.8,24.09,24.09,0,0,1,0-3.8,3,3,0,0,1,3.2-3,2.82,2.82,0,0,1,2.9,2.4A15.93,15.93,0,0,1,144.49,270.4Z"/><path class="cls-5" d="M61,259.6H57v-2.7c.3-2.5,4.4-2,4.4-2v-.2h0v-4.1h0c-.1,0-8.2-1.9-9.8,4.2h0a26.77,26.77,0,0,0-.2,4.8H48v4.7h3.6V277h5.3V264.3H61l.5-4.7Z"/><path class="cls-5" d="M73.59,261.9l-.2-.2h0l-.1-.1h0a5.83,5.83,0,0,0-2.7-1.9,6.67,6.67,0,0,0-8.5,4.7,12.88,12.88,0,0,0-.3,7c.9,5.1,4.7,6.8,8.7,6a5.21,5.21,0,0,0,3-2.1,1.24,1.24,0,0,0,.2-.3v2.3h5.1V259.7h-5.3v2.2Zm-.3,8.8a2.94,2.94,0,0,1-3,2.6,2.84,2.84,0,0,1-2.9-2.5,16.33,16.33,0,0,1,.1-4.9,2.93,2.93,0,0,1,3-2.2,2.84,2.84,0,0,1,2.9,2.6C73.39,267.7,73.39,269.2,73.29,270.7Z"/><path class="cls-5" d="M94.59,275.9c-.3-.9-.5-1.7-.8-2.6l-.3-1s-6.5,3.1-7.5-2.8a9.31,9.31,0,0,1,.1-2.9,3.08,3.08,0,0,1,3.1-2.9,5.46,5.46,0,0,1,1.8.1c.8.1,1.6.4,2.5.6.3-1,.7-1.9,1-2.8,0-.2.1-.3.1-.4h0l.2-.6c0-.1-.1-.2-.3-.2h0l-.8-.4c-.2-.1-.3-.1-.5-.2s-.2-.1-.2-.1h0a13,13,0,0,0-5.2-.4,7.47,7.47,0,0,0-7,6.3,12.63,12.63,0,0,0,.1,5.8,7.26,7.26,0,0,0,5.2,5.6,11.9,11.9,0,0,0,5.6.3,18,18,0,0,0,2.8-.9l.3-.1-.2-.4Z"/><path class="cls-5" d="M111.69,269.1a21.14,21.14,0,0,0-.2-3.6,6.69,6.69,0,0,0-5.7-5.9,16.12,16.12,0,0,0-3.8-.1,7.05,7.05,0,0,0-6.6,5.7,20.06,20.06,0,0,0-.1,6c.4,2.9,1.8,4.8,4.3,5.7h0c1.1.4,6.7,1.8,11.5-.7l-.2-.8h0a22.88,22.88,0,0,0-.8-2.8v-.1a.77.77,0,0,0-.3.1h0a6.37,6.37,0,0,1-.7.2H109a18.36,18.36,0,0,1-2.9.6,14.05,14.05,0,0,1-2.9,0c-1.5-.3-2.8-1-2.7-3h10.9v-.2Zm-5-2.4h-6c0-1.2.2-2.3,1.2-2.9a3,3,0,0,1,3.5-.1C106.69,264.2,106.79,265.4,106.69,266.7Z"/><polygon class="cls-5" points="187.39 259.9 181.49 259.9 176.29 267.8 176.29 251.1 176.29 251 176.29 250.4 170.79 251 170.79 277.2 176.29 277.2 176.29 269.2 181.49 277.2 187.39 277.2 181.69 268.5 187.39 259.9"/><path class="cls-5" d="M163.09,259.7a11.4,11.4,0,0,0-5.8,0,7,7,0,0,0-5.4,5.5,15.54,15.54,0,0,0-.3,4.8,7.29,7.29,0,0,0,6.1,7.1h.2c.1,0,.3.1.4.1h.1c.2,0,.4.1.6.1a8.85,8.85,0,0,0,2.3,0h.1a7.59,7.59,0,0,0,7.3-6.1,11.79,11.79,0,0,0,0-5.9A7.16,7.16,0,0,0,163.09,259.7Zm.3,10.7a.76.76,0,0,1-.1.4,2.93,2.93,0,0,1-3.1,2.5,2.84,2.84,0,0,1-3-2.8,24.09,24.09,0,0,1,0-3.8,3,3,0,0,1,3.2-3,2.82,2.82,0,0,1,2.9,2.4A15.93,15.93,0,0,1,163.39,270.4Z"/><path class="cls-6" d="M211.09,276.7l-1.5-5.3h-8.1l-1.5,5.3h-2l6.5-21.6h2.2l6.5,21.6Zm-5.6-19.4-3.7,12.5h7.3Z"/><path class="cls-6" d="M224.59,276.7v-2.3a5.11,5.11,0,0,1-4.2,2.8c-3.5,0-5.5-3.3-5.5-8.2s2-8.2,5.5-8.2a5,5,0,0,1,4.2,2.8v-8.4h1.6v21.6l-1.6-.1Zm0-3.9v-7.7a4.71,4.71,0,0,0-3.9-2.9c-2.8,0-4.1,3.1-4.1,6.7s1.2,6.7,4.1,6.7A4.6,4.6,0,0,0,224.59,272.8Z"/><path class="cls-6" d="M229.49,274.9l.9-1.1a5.06,5.06,0,0,0,4,2c2,0,3.3-1.1,3.3-2.9,0-4.1-7.8-2.8-7.8-8.2,0-2.2,1.8-4,4.7-4a5.64,5.64,0,0,1,4.5,2l-.9,1.1a4.32,4.32,0,0,0-3.6-1.7c-1.9,0-3,1.1-3,2.6,0,3.8,7.8,2.7,7.8,8.2,0,2.5-1.9,4.3-4.8,4.3A6.47,6.47,0,0,1,229.49,274.9Z"/><path class="cls-7" d="M395.79,215.77a16.93,16.93,0,0,1,4-6.34,15.66,15.66,0,0,1,24.63,3.66c3.77,6.86,7.77,13.58,11.65,20.37,6.49,11.27,13.05,22.55,19.47,33.87a15.59,15.59,0,1,1-27.27,15.12q-8.55-14.88-17.13-29.72a2.89,2.89,0,0,0-.41-.6,6.1,6.1,0,0,1-1.25-1.85c-2.52-4.45-5.13-8.87-7.65-13.28-1.62-2.86-3.32-5.69-4.94-8.56a15.68,15.68,0,0,1-2.08-8.3,11.42,11.42,0,0,1,1-4.37"/><path class="cls-8" d="M395.79,215.77a21.06,21.06,0,0,0-.71,4.15,16.18,16.18,0,0,0,2.26,8.86q6.23,10.69,12.41,21.46c.37.64.68,1.28,1.05,1.89-2.26,3.92-4.52,7.8-6.82,11.73-3.17,5.47-6.34,11-9.55,16.44-.15,0-.18-.07-.22-.19a2.25,2.25,0,0,1,.15-.87,15.18,15.18,0,0,0-3.62-15,14.41,14.41,0,0,0-8.87-4.56,15.33,15.33,0,0,0-12.1,3.35c-.64.49-1.06,1.21-1.81,1.59a.27.27,0,0,1-.27-.19c1.81-3.13,3.59-6.26,5.4-9.39q11.19-19.47,22.44-38.89c.07-.15.19-.26.26-.41"/><path class="cls-9" d="M367.84,264.57c.72-.64,1.4-1.32,2.15-1.92a15.59,15.59,0,0,1,24.93,9.47,16.45,16.45,0,0,1-.6,8,3.5,3.5,0,0,1-.15.64c-.34.6-.64,1.25-1,1.85-3.35,5.54-8.3,8.3-14.78,7.88a15.49,15.49,0,0,1-14.3-13.5,15.08,15.08,0,0,1,2.08-10c.37-.68.83-1.29,1.24-2,.19-.16.11-.46.45-.46"/><path class="cls-8" d="M367.84,264.57c-.15.15-.15.42-.41.46,0-.27.11-.42.26-.61l.15.15"/><path class="cls-10" d="M394.17,280.79c-.15-.26,0-.45.15-.64l.15.15-.3.49"/><path class="cls-11" d="M371.2,303.2a7.64,7.64,0,1,0,0,15.27,7,7,0,0,0,5.36-2.15,6.86,6.86,0,0,0,1.81-4.86,6.46,6.46,0,0,0-.12-1.32H371.2v2.07h5a4.39,4.39,0,0,1-1.13,2.64,5.2,5.2,0,0,1-3.89,1.55,5.55,5.55,0,0,1,0-11.09,5.17,5.17,0,0,1,3.77,1.51l1.47-1.47A7.21,7.21,0,0,0,371.2,303.2ZM384,308.66a5,5,0,1,0,4.9,5,4.87,4.87,0,0,0-4.9-5m0,8a3,3,0,0,1,0-6,3,3,0,0,1,0,6m10.63-8a5,5,0,1,0,4.91,5,4.85,4.85,0,0,0-4.91-5m0,8a3,3,0,1,1,2.76-3,2.86,2.86,0,0,1-2.76,3m10.6-8a4.93,4.93,0,0,0,0,9.85,3.32,3.32,0,0,0,2.57-1.13h.07v.71c0,1.89-1,2.91-2.6,2.91a2.7,2.7,0,0,1-2.45-1.74l-1.89.79a4.62,4.62,0,0,0,4.34,2.91c2.53,0,4.64-1.51,4.64-5.13V309h-2v.8h-.07a3.29,3.29,0,0,0-2.57-1.14m.19,7.93a2.83,2.83,0,0,1-2.72-3,2.86,2.86,0,0,1,2.72-3,2.77,2.77,0,0,1,2.6,3,2.74,2.74,0,0,1-2.6,3m6.07-12.79h2.15v14.56h-2.15Zm7.92,4.86a4.74,4.74,0,0,0-4.71,5,5,5,0,0,0,9.09,2.79l-1.7-1.13a2.85,2.85,0,0,1-2.45,1.36,2.46,2.46,0,0,1-2.41-1.51l6.67-2.75-.22-.57a4.69,4.69,0,0,0-4.27-3.17m-2.56,4.83a2.73,2.73,0,0,1,2.6-2.9,1.88,1.88,0,0,1,1.85,1.05Z"/><path class="cls-11" d="M427.66,318.13l5-13.24h1.93l5,13.24h-1.88l-1.28-3.58h-5.55l-1.28,3.58ZM431.4,313h4.41l-2.15-6h-.08Z"/><path class="cls-11" d="M441.28,317a5,5,0,0,1-1.25-3.43,5.15,5.15,0,0,1,1.25-3.44,4,4,0,0,1,3.05-1.39,4,4,0,0,1,1.81.41,3.11,3.11,0,0,1,1.29,1.13h.07l-.07-1.24v-4.19h1.69v13.24H447.5v-1.24h-.07a3.42,3.42,0,0,1-1.29,1.13,3.73,3.73,0,0,1-1.81.41,3.9,3.9,0,0,1-3.05-1.39m5.36-1.06a3.79,3.79,0,0,0,0-4.71,2.74,2.74,0,0,0-4.08,0,3.7,3.7,0,0,0,0,4.67,2.69,2.69,0,0,0,2,.91,2.43,2.43,0,0,0,2-.87"/><path class="cls-11" d="M457,317.6a4.48,4.48,0,0,1-5,.12,4,4,0,0,1-1.47-1.89l1.51-.64a2.81,2.81,0,0,0,1,1.28,2.4,2.4,0,0,0,1.4.45,2.66,2.66,0,0,0,1.36-.33,1,1,0,0,0,.52-.83c0-.57-.45-1-1.32-1.29l-1.54-.37c-1.78-.46-2.64-1.29-2.64-2.57a2.42,2.42,0,0,1,1-2,4.32,4.32,0,0,1,2.57-.75,4.49,4.49,0,0,1,2.19.56,3.16,3.16,0,0,1,1.35,1.55l-1.5.64a2.12,2.12,0,0,0-.83-.9,2.52,2.52,0,0,0-1.32-.34,2.21,2.21,0,0,0-1.21.34,1,1,0,0,0-.53.83c0,.52.49.9,1.47,1.09l1.36.34c1.81.45,2.68,1.36,2.68,2.71a2.33,2.33,0,0,1-1,2"/><line class="cls-1" x1="143.69" y1="191.33" x2="143.69" y2="141.33"/><line class="cls-1" x1="410.69" y1="191.83" x2="410.69" y2="117.33"/><line class="cls-1" x1="676.69" y1="191.83" x2="676.69" y2="141.83"/><line class="cls-1" x1="143.38" y1="141.33" x2="676.38" y2="141.33"/></svg>