<svg id="Layer_1" data-name="Layer 1" xmlns="http://www.w3.org/2000/svg" width="960" height="464" viewBox="0 0 960 464"><defs><style>.cls-1{fill:#f1f1f2;}.cls-1,.cls-2{stroke:#d0d2d3;stroke-miterlimit:10;}.cls-2{fill:#d0d2d3;}.cls-3{fill:#231f20;}</style></defs><title>currentArch</title><rect class="cls-1" x="284.88" y="155.36" width="88.81" height="57.28"/><rect class="cls-2" x="284.88" y="155.41" width="88.81" height="16.96"/><path class="cls-3" d="M304.83,160.37l1,4.27,1.1-4.27h2.16v6.92h-1.42V161.5l-1.41,5.79h-1.11l-1.29-5.79v5.79H302.6v-6.92Z"/><path class="cls-3" d="M312.74,164.1c0-.69-.2-.95-.56-.95s-.72.48-.72,1.52.21,1.57.7,1.57.54-.27.58-.94l1.34.08c-.16,1.36-.81,2-2,2s-2-.92-2-2.66.75-2.66,2.12-2.66a1.78,1.78,0,0,1,1.37.52,2.1,2.1,0,0,1,.56,1.46Z"/><path class="cls-3" d="M316.49,160.37v6.92H315v-6.92Z"/><path class="cls-3" d="M319,162.17v.7a1.43,1.43,0,0,1,2.43-.22,2.4,2.4,0,0,1,.19,1.29v3.35h-1.42v-3.35c0-.59-.12-.76-.5-.76a.53.53,0,0,0-.58.38,2.32,2.32,0,0,0-.06.73v3h-1.42v-5.12Z"/><path class="cls-3" d="M324.22,160.55v1.62h.94v1.12h-.94v1.88c0,.69,0,.77.13.89a.61.61,0,0,0,.5.15h.38v1.09a3.6,3.6,0,0,1-.86.1,1.44,1.44,0,0,1-1.31-.57c-.19-.3-.23-.54-.23-1.49v-2h-.57v-1.12h.65l.11-1.51Z"/><path class="cls-3" d="M325.81,161.75v-1.41h1.46v1.41Zm1.43.42v5.12h-1.42v-5.12Z"/><path class="cls-3" d="M329.56,162.17v1.24c.26-.91.62-1.31,1.2-1.31a1.21,1.21,0,0,1,.25,0v1.39l-.24,0c-.71,0-1,.51-1,1.58v2.21H328.3v-5.12Z"/><path class="cls-3" d="M332.83,165v.27c0,.82.2,1.17.68,1.17s.66-.25.73-.87l1.28.08a2.32,2.32,0,0,1-.54,1.19,1.88,1.88,0,0,1-1.5.59c-1.35,0-2.12-.94-2.12-2.59s.79-2.73,2.12-2.73a1.84,1.84,0,0,1,1.66.93,3.68,3.68,0,0,1,.38,2Zm1.34-.82a1.7,1.7,0,0,0-.11-.76.6.6,0,0,0-.56-.37c-.44,0-.64.34-.66,1.13Z"/><path class="cls-3" d="M341.38,162.36c-.18-.6-.48-.86-1-.86a.66.66,0,0,0-.73.63c0,.4.2.55,1.2.93a3.62,3.62,0,0,1,1.22.63,1.82,1.82,0,0,1,.68,1.49,2.2,2.2,0,0,1-2.44,2.21,2.27,2.27,0,0,1-2.41-1.9l1.33-.37c.19.73.53,1,1.11,1a.78.78,0,0,0,.88-.75c0-.39-.24-.61-1-.87a4,4,0,0,1-1.44-.71,1.88,1.88,0,0,1-.64-1.45,2.05,2.05,0,0,1,2.22-2.12,2.38,2.38,0,0,1,1.53.49,2,2,0,0,1,.69,1.12Z"/><path class="cls-3" d="M343.58,161.75v-1.41H345v1.41Zm1.43.42v5.12h-1.42v-5.12Z"/><path class="cls-3" d="M347.67,160.55v1.62h.93v1.12h-.93v1.88c0,.69,0,.77.12.89a.61.61,0,0,0,.5.15h.38v1.09a3.6,3.6,0,0,1-.86.1,1.44,1.44,0,0,1-1.31-.57c-.18-.3-.22-.54-.22-1.49v-2h-.57v-1.12h.64l.11-1.51Z"/><path class="cls-3" d="M350.51,165v.27c0,.82.2,1.17.69,1.17s.65-.25.72-.87l1.28.08a2.32,2.32,0,0,1-.54,1.19,1.86,1.86,0,0,1-1.5.59c-1.34,0-2.12-.94-2.12-2.59s.79-2.73,2.12-2.73a1.84,1.84,0,0,1,1.66.93,3.58,3.58,0,0,1,.38,2Zm1.34-.82a1.9,1.9,0,0,0-.1-.76.62.62,0,0,0-.56-.37c-.45,0-.65.34-.67,1.13Z"/><rect class="cls-1" x="284.88" y="250.36" width="88.81" height="57.28"/><rect class="cls-2" x="284.88" y="250.41" width="88.81" height="16.96"/><path class="cls-3" d="M294.46,255.37l2,6.92h-1.56l-.34-1.42h-1.95l-.33,1.42h-1.4l2.07-6.92Zm-.92,1.48-.67,2.82h1.37Z"/><path class="cls-3" d="M297.66,257.17l.6,3.12.57-3.12h1.39l.47,3.12.68-3.12h1.12l-1.28,5.12H300l-.65-3.48-.65,3.48h-1.16l-1.28-5.12Z"/><path class="cls-3" d="M304.13,260v.27c0,.82.2,1.17.69,1.17s.65-.25.72-.87l1.28.08a2.24,2.24,0,0,1-.54,1.19,1.85,1.85,0,0,1-1.49.59c-1.35,0-2.13-.94-2.13-2.59s.79-2.73,2.13-2.73a1.85,1.85,0,0,1,1.66.93,3.69,3.69,0,0,1,.37,2Zm1.34-.82a1.9,1.9,0,0,0-.1-.76.61.61,0,0,0-.56-.37c-.45,0-.64.34-.67,1.13Z"/><path class="cls-3" d="M310,258.71c-.17-.5-.38-.7-.75-.7a.42.42,0,0,0-.44.45c0,.33.14.45.85.7a2.83,2.83,0,0,1,1,.49,1.36,1.36,0,0,1,.47,1.07,1.73,1.73,0,0,1-1.94,1.67,2.11,2.11,0,0,1-1.45-.48,1.61,1.61,0,0,1-.47-1l1.13-.19c.12.52.38.76.82.76s.56-.18.56-.48-.14-.46-.82-.66c-1.07-.36-1.53-.83-1.53-1.61a1.65,1.65,0,0,1,1.81-1.63,1.77,1.77,0,0,1,1.23.45,1.61,1.61,0,0,1,.51.88Z"/><path class="cls-3" d="M315.87,259.74c0,1.76-.69,2.65-2.07,2.65s-2.09-.89-2.09-2.64.69-2.68,2.11-2.68S315.87,258,315.87,259.74Zm-2.68,0c0,1.25.15,1.67.61,1.67s.6-.42.6-1.66-.15-1.67-.59-1.67S313.19,258.48,313.19,259.73Z"/><path class="cls-3" d="M318.07,257.17v.7a1.2,1.2,0,0,1,1.23-.8,1,1,0,0,1,1.1.8,1.24,1.24,0,0,1,1.27-.8,1.2,1.2,0,0,1,1.13.55A2.91,2.91,0,0,1,323,259v3.34h-1.42v-3.2c0-.76-.07-.91-.45-.91s-.53.22-.53,1.13v3h-1.42v-3.24c0-.54,0-.56-.06-.65a.38.38,0,0,0-.4-.22c-.45,0-.56.24-.56,1.13v3h-1.42v-5.12Z"/><path class="cls-3" d="M325.21,260v.27c0,.82.2,1.17.69,1.17s.65-.25.72-.87l1.28.08a2.32,2.32,0,0,1-.54,1.19,1.88,1.88,0,0,1-1.5.59c-1.35,0-2.12-.94-2.12-2.59s.78-2.73,2.12-2.73a1.84,1.84,0,0,1,1.66.93,3.68,3.68,0,0,1,.38,2Zm1.34-.82a1.7,1.7,0,0,0-.11-.76.6.6,0,0,0-.56-.37c-.44,0-.64.34-.66,1.13Z"/><path class="cls-3" d="M333,255.37l1,4.27,1.1-4.27h2.16v6.92h-1.42V256.5l-1.41,5.79h-1.11L332,256.5v5.79H330.8v-6.92Z"/><path class="cls-3" d="M338.43,256.75v-1.41h1.45v1.41Zm1.43.42v5.12h-1.42v-5.12Z"/><path class="cls-3" d="M343.41,259.1c0-.69-.2-1-.56-1s-.72.48-.72,1.52.21,1.57.7,1.57.54-.27.58-.94l1.34.08c-.16,1.36-.81,2-2,2s-2-.92-2-2.66.75-2.66,2.12-2.66a1.79,1.79,0,0,1,1.37.52,2.1,2.1,0,0,1,.56,1.46Z"/><path class="cls-3" d="M346.77,257.17v1.24c.26-.91.63-1.31,1.21-1.31l.25,0v1.39l-.24,0c-.72,0-1.05.51-1.05,1.58v2.21h-1.42v-5.12Z"/><path class="cls-3" d="M352.75,259.74c0,1.76-.69,2.65-2.07,2.65s-2.09-.89-2.09-2.64.69-2.68,2.11-2.68S352.75,258,352.75,259.74Zm-2.69,0c0,1.25.16,1.67.62,1.67s.6-.42.6-1.66-.16-1.67-.59-1.67S350.06,258.48,350.06,259.73Z"/><path class="cls-3" d="M355.94,258.71c-.17-.5-.38-.7-.75-.7a.42.42,0,0,0-.44.45c0,.33.14.45.85.7a2.83,2.83,0,0,1,1,.49,1.36,1.36,0,0,1,.47,1.07,1.73,1.73,0,0,1-1.94,1.67,2.11,2.11,0,0,1-1.45-.48,1.61,1.61,0,0,1-.47-1l1.13-.19c.12.52.38.76.82.76s.56-.18.56-.48-.14-.46-.82-.66c-1.08-.36-1.53-.83-1.53-1.61a1.65,1.65,0,0,1,1.81-1.63,1.77,1.77,0,0,1,1.23.45,1.61,1.61,0,0,1,.51.88Z"/><path class="cls-3" d="M357.81,256.75v-1.41h1.45v1.41Zm1.43.42v5.12h-1.42v-5.12Z"/><path class="cls-3" d="M361.9,255.55v1.62h.93v1.12h-.93v1.88c0,.69,0,.77.12.89a.63.63,0,0,0,.5.15h.39v1.09a3.66,3.66,0,0,1-.86.1,1.43,1.43,0,0,1-1.31-.57c-.19-.3-.23-.54-.23-1.49v-2h-.57v-1.12h.64l.12-1.51Z"/><path class="cls-3" d="M364.75,260v.27c0,.82.19,1.17.68,1.17s.65-.25.73-.87l1.27.08a2.24,2.24,0,0,1-.54,1.19,1.85,1.85,0,0,1-1.49.59c-1.35,0-2.13-.94-2.13-2.59s.79-2.73,2.13-2.73a1.85,1.85,0,0,1,1.66.93,3.69,3.69,0,0,1,.37,2Zm1.33-.82a1.9,1.9,0,0,0-.1-.76.6.6,0,0,0-.56-.37c-.45,0-.64.34-.66,1.13Z"/><rect class="cls-1" x="588.88" y="250.36" width="88.81" height="57.28"/><rect class="cls-2" x="588.88" y="250.41" width="88.81" height="16.96"/><path class="cls-3" d="M607.15,255.93a4.14,4.14,0,0,1,.83,2.9c0,2.35-.86,3.56-2.52,3.56s-2.5-1.21-2.5-3.54.84-3.59,2.54-3.59A2.22,2.22,0,0,1,607.15,255.93Zm-2.6,2.88c0,1.76.23,2.35.91,2.35s.92-.59.92-2.34-.24-2.32-.9-2.32S604.55,257.08,604.55,258.81Z"/><path class="cls-3" d="M610.51,255.55v1.62h.94v1.12h-.94v1.88c0,.69,0,.77.13.89s.24.15.49.15h.39v1.09a3.66,3.66,0,0,1-.86.1,1.44,1.44,0,0,1-1.31-.57c-.19-.3-.23-.54-.23-1.49v-2h-.57v-1.12h.64l.12-1.51Z"/><path class="cls-3" d="M613.53,255.37v2.34a1.35,1.35,0,0,1,1.27-.64,1.13,1.13,0,0,1,1.12.62,2.93,2.93,0,0,1,.16,1.32v3.28h-1.42V259c0-.67-.09-.83-.49-.83s-.64.23-.64.86v3.25h-1.42v-6.92Z"/><path class="cls-3" d="M618.32,260v.27c0,.82.2,1.17.68,1.17s.66-.25.73-.87l1.28.08a2.32,2.32,0,0,1-.54,1.19,1.88,1.88,0,0,1-1.5.59c-1.35,0-2.12-.94-2.12-2.59s.78-2.73,2.12-2.73a1.84,1.84,0,0,1,1.66.93,3.68,3.68,0,0,1,.38,2Zm1.34-.82a1.7,1.7,0,0,0-.11-.76A.6.6,0,0,0,619,258c-.44,0-.64.34-.66,1.13Z"/><path class="cls-3" d="M623.1,257.17v1.24c.25-.91.62-1.31,1.2-1.31l.25,0v1.39l-.24,0c-.72,0-1,.51-1,1.58v2.21h-1.42v-5.12Z"/><path class="cls-3" d="M629.32,255.37l1,4.27,1.1-4.27h2.16v6.92h-1.43V256.5l-1.41,5.79h-1.11l-1.28-5.79v5.79h-1.24v-6.92Z"/><path class="cls-3" d="M634.72,256.75v-1.41h1.46v1.41Zm1.44.42v5.12h-1.43v-5.12Z"/><path class="cls-3" d="M639.71,259.1c-.05-.69-.2-1-.56-1s-.72.48-.72,1.52.21,1.57.69,1.57.54-.27.59-.94l1.33.08c-.15,1.36-.8,2-2,2s-2-.92-2-2.66.75-2.66,2.11-2.66a1.76,1.76,0,0,1,1.37.52,2.06,2.06,0,0,1,.56,1.46Z"/><path class="cls-3" d="M643.07,257.17v1.24c.26-.91.62-1.31,1.2-1.31a1.21,1.21,0,0,1,.25,0v1.39l-.24,0c-.71,0-1,.51-1,1.58v2.21h-1.43v-5.12Z"/><path class="cls-3" d="M649.05,259.74c0,1.76-.7,2.65-2.08,2.65s-2.08-.89-2.08-2.64.68-2.68,2.1-2.68S649.05,258,649.05,259.74Zm-2.69,0c0,1.25.16,1.67.61,1.67s.61-.42.61-1.66-.16-1.67-.6-1.67S646.36,258.48,646.36,259.73Z"/><path class="cls-3" d="M652.24,258.71c-.17-.5-.39-.7-.75-.7a.43.43,0,0,0-.45.45c0,.33.15.45.85.7a2.74,2.74,0,0,1,1,.49,1.37,1.37,0,0,1,.48,1.07,1.73,1.73,0,0,1-1.94,1.67,2.11,2.11,0,0,1-1.45-.48,1.56,1.56,0,0,1-.47-1l1.13-.19c.11.52.37.76.82.76s.56-.18.56-.48-.14-.46-.82-.66c-1.08-.36-1.53-.83-1.53-1.61a1.64,1.64,0,0,1,1.81-1.63,1.79,1.79,0,0,1,1.23.45,1.6,1.6,0,0,1,.5.88Z"/><path class="cls-3" d="M654.11,256.75v-1.41h1.45v1.41Zm1.43.42v5.12h-1.42v-5.12Z"/><path class="cls-3" d="M658.2,255.55v1.62h.93v1.12h-.93v1.88c0,.69,0,.77.12.89a.63.63,0,0,0,.5.15h.38v1.09a3.6,3.6,0,0,1-.86.1,1.41,1.41,0,0,1-1.3-.57c-.19-.3-.23-.54-.23-1.49v-2h-.57v-1.12h.64l.11-1.51Z"/><path class="cls-3" d="M661,260v.27c0,.82.2,1.17.69,1.17s.65-.25.72-.87l1.28.08a2.24,2.24,0,0,1-.54,1.19,1.85,1.85,0,0,1-1.49.59c-1.35,0-2.13-.94-2.13-2.59s.79-2.73,2.13-2.73a1.86,1.86,0,0,1,1.66.93,3.69,3.69,0,0,1,.37,2Zm1.34-.82a1.9,1.9,0,0,0-.1-.76.62.62,0,0,0-.56-.37c-.45,0-.65.34-.67,1.13Z"/><rect class="cls-1" x="434.88" y="155.36" width="88.81" height="57.28"/><rect class="cls-2" x="434.88" y="155.41" width="88.81" height="16.96"/><path class="cls-3" d="M453.21,160.37l1,4.27,1.1-4.27h2.16v6.92H456V161.5l-1.41,5.79H453.5l-1.29-5.79v5.79H451v-6.92Z"/><path class="cls-3" d="M461.12,164.1c0-.69-.2-.95-.56-.95s-.72.48-.72,1.52.21,1.57.7,1.57.54-.27.58-.94l1.34.08c-.16,1.36-.81,2-2,2s-2-.92-2-2.66.75-2.66,2.12-2.66a1.78,1.78,0,0,1,1.37.52,2.1,2.1,0,0,1,.56,1.46Z"/><path class="cls-3" d="M464.87,160.37v6.92h-1.52v-6.92Z"/><path class="cls-3" d="M467.41,162.17v.7a1.43,1.43,0,0,1,2.43-.22,2.4,2.4,0,0,1,.19,1.29v3.35h-1.42v-3.35c0-.59-.12-.76-.5-.76a.53.53,0,0,0-.58.38,2.84,2.84,0,0,0,0,.73v3h-1.43v-5.12Z"/><path class="cls-3" d="M472.6,160.55v1.62h.94v1.12h-.94v1.88c0,.69,0,.77.13.89a.61.61,0,0,0,.5.15h.38v1.09a3.6,3.6,0,0,1-.86.1,1.44,1.44,0,0,1-1.31-.57c-.19-.3-.23-.54-.23-1.49v-2h-.57v-1.12h.65l.11-1.51Z"/><path class="cls-3" d="M474.19,161.75v-1.41h1.46v1.41Zm1.43.42v5.12H474.2v-5.12Z"/><path class="cls-3" d="M477.94,162.17v1.24c.26-.91.62-1.31,1.2-1.31a1.21,1.21,0,0,1,.25,0v1.39l-.24,0c-.71,0-1,.51-1,1.58v2.21h-1.43v-5.12Z"/><path class="cls-3" d="M481.21,165v.27c0,.82.2,1.17.68,1.17s.66-.25.73-.87l1.28.08a2.32,2.32,0,0,1-.54,1.19,1.86,1.86,0,0,1-1.5.59c-1.34,0-2.12-.94-2.12-2.59s.79-2.73,2.12-2.73a1.84,1.84,0,0,1,1.66.93,3.68,3.68,0,0,1,.38,2Zm1.34-.82a1.9,1.9,0,0,0-.1-.76.62.62,0,0,0-.57-.37c-.44,0-.64.34-.66,1.13Z"/><path class="cls-3" d="M489.16,160.37a2.55,2.55,0,0,1,1.59.3,1.85,1.85,0,0,1,.66,1.52,1.39,1.39,0,0,1-1,1.49,1.66,1.66,0,0,1,1.17,1.7,2,2,0,0,1-.76,1.59,2.62,2.62,0,0,1-1.67.32H486.8v-6.92Zm-.41,2.79a1.38,1.38,0,0,0,.84-.18.88.88,0,0,0,.28-.68c0-.56-.3-.81-1-.81h-.6v1.67Zm.26,2.94c.7,0,1-.3,1-.92s-.31-.9-1-.9h-.75v1.82Z"/><path class="cls-3" d="M493.93,160.37v6.92h-1.42v-6.92Z"/><path class="cls-3" d="M498.93,164.74c0,1.76-.69,2.65-2.07,2.65s-2.09-.89-2.09-2.64.69-2.68,2.11-2.68S498.93,163,498.93,164.74Zm-2.69,0c0,1.25.16,1.67.62,1.67s.6-.42.6-1.66-.16-1.67-.59-1.67S496.24,163.48,496.24,164.73Z"/><path class="cls-3" d="M504.05,162.26a1.89,1.89,0,0,0-.31,0,.49.49,0,0,0-.54.45,1.45,1.45,0,0,1,.38,1c0,.91-.74,1.53-1.84,1.53a2.85,2.85,0,0,1-.68-.08c-.22.13-.33.26-.33.43s.06.19.2.25.15,0,1,.1,1.25.12,1.56.36a1.3,1.3,0,0,1,.49,1.09c0,1.14-.84,1.71-2.51,1.71-1.37,0-2.09-.41-2.09-1.21,0-.47.24-.75.83-.95a1,1,0,0,1-.66-.9,1,1,0,0,1,.36-.76,2.15,2.15,0,0,1,.52-.36,1.26,1.26,0,0,1-.76-1.28c0-1,.72-1.56,1.91-1.56a2.39,2.39,0,0,1,1.1.23c.1-.76.34-1,1-1a1.31,1.31,0,0,1,.39.05Zm-3.49,5.42c0,.36.36.52,1.15.52s1-.15,1-.54a.44.44,0,0,0-.21-.4c-.15-.09-.23-.11-.89-.14l-.64-.05C500.7,167.23,500.56,167.41,500.56,167.68Zm.59-4c0,.52.16.77.5.77s.46-.22.46-.81-.14-.82-.45-.82S501.15,163.08,501.15,163.7Z"/><path class="cls-3" d="M506.89,163.71c-.16-.5-.38-.7-.74-.7a.43.43,0,0,0-.45.45c0,.33.15.45.85.7a2.74,2.74,0,0,1,1,.49,1.37,1.37,0,0,1,.48,1.07,1.73,1.73,0,0,1-1.94,1.67,2.16,2.16,0,0,1-1.46-.48,1.55,1.55,0,0,1-.46-1l1.13-.19c.11.52.37.76.82.76s.56-.18.56-.48-.15-.46-.82-.66c-1.08-.36-1.54-.83-1.54-1.61a1.65,1.65,0,0,1,1.82-1.63,1.75,1.75,0,0,1,1.22.45,1.56,1.56,0,0,1,.51.88Z"/><rect class="cls-1" x="434.88" y="250.36" width="88.81" height="57.28"/><rect class="cls-2" x="434.88" y="250.41" width="88.81" height="16.96"/><path class="cls-3" d="M454.89,255v5.63h2.23v1.29h-3.75V255Z"/><path class="cls-3" d="M457.84,258.29a1.82,1.82,0,0,1,2.06-1.6,2,2,0,0,1,1.49.55c.25.26.33.63.33,1.5v2a3.56,3.56,0,0,0,.08,1.14h-1.32a2.15,2.15,0,0,1-.07-.78,1.76,1.76,0,0,1-.39.52,1.51,1.51,0,0,1-1,.37,1.27,1.27,0,0,1-1.35-1.4,1.58,1.58,0,0,1,1-1.56,5.26,5.26,0,0,1,1.66-.32v-.2c0-.69-.12-.9-.5-.9s-.55.22-.61.78Zm2.45,1.17c-.88.11-1.16.35-1.16,1,0,.41.17.64.48.64a.57.57,0,0,0,.49-.32,1.89,1.89,0,0,0,.19-1Z"/><path class="cls-3" d="M464.13,256.8v.69a1.42,1.42,0,0,1,2.42-.22,2.4,2.4,0,0,1,.19,1.29v3.35h-1.42v-3.35c0-.59-.11-.76-.5-.76a.54.54,0,0,0-.58.39,2.7,2.7,0,0,0-.05.72v3h-1.42V256.8Z"/><path class="cls-3" d="M471.62,255v6.92H470.3v-.85c-.27.69-.57.93-1.17.93-1,0-1.63-1-1.63-2.63s.62-2.64,1.69-2.64a1.07,1.07,0,0,1,1,.55V255Zm-1.4,4a2.26,2.26,0,0,0-.12-.94.52.52,0,0,0-.5-.34c-.45,0-.62.41-.62,1.44a6.58,6.58,0,0,0,.06,1.26c.07.41.25.62.55.62s.63-.34.63-1.14Z"/><path class="cls-3" d="M472.65,256.37V255h1.45v1.41Zm1.43.43v5.11h-1.42V256.8Z"/><path class="cls-3" d="M476.5,256.8v.69a1.43,1.43,0,0,1,2.43-.22,2.4,2.4,0,0,1,.19,1.29v3.35H477.7v-3.35c0-.59-.12-.76-.5-.76a.54.54,0,0,0-.58.39,2.2,2.2,0,0,0-.06.72v3h-1.42V256.8Z"/><path class="cls-3" d="M484.4,256.88a1.8,1.8,0,0,0-.31,0,.49.49,0,0,0-.54.46,1.44,1.44,0,0,1,.38,1c0,.92-.74,1.54-1.84,1.54a2.85,2.85,0,0,1-.68-.08c-.21.12-.33.26-.33.42a.25.25,0,0,0,.2.25c.12.05.15.05,1,.1s1.25.13,1.56.37a1.29,1.29,0,0,1,.49,1.09c0,1.14-.84,1.71-2.51,1.71-1.37,0-2.09-.42-2.09-1.22,0-.46.24-.74.83-.95a1,1,0,0,1-.66-.89,1.08,1.08,0,0,1,.36-.77,2.09,2.09,0,0,1,.52-.35,1.27,1.27,0,0,1-.76-1.29c0-1,.72-1.56,1.91-1.56a2.53,2.53,0,0,1,1.1.23c.11-.75.34-1,1-1a1.27,1.27,0,0,1,.39.05Zm-3.48,5.43c0,.35.35.52,1.14.52s1-.16,1-.54a.46.46,0,0,0-.2-.41c-.16-.08-.24-.1-.9-.13l-.64-.05A.64.64,0,0,0,480.92,262.31Zm.59-4c0,.52.15.77.49.77s.46-.22.46-.81-.13-.82-.45-.82S481.51,257.7,481.51,258.32Z"/><path class="cls-3" d="M488.88,255a2.78,2.78,0,0,1,1.77.34,2.5,2.5,0,0,1,0,3.67,2.8,2.8,0,0,1-1.72.36h-.54v2.55H486.9V255Zm-.47,3.18h.47c.7,0,1-.29,1-1.05a1.13,1.13,0,0,0-.28-.82c-.14-.15-.32-.19-.69-.19h-.47Z"/><path class="cls-3" d="M492.05,258.29a1.84,1.84,0,0,1,2.07-1.6,2,2,0,0,1,1.49.55c.25.26.33.63.33,1.5v2a3.56,3.56,0,0,0,.08,1.14H494.7a2.15,2.15,0,0,1-.07-.78,1.76,1.76,0,0,1-.39.52,1.51,1.51,0,0,1-1,.37,1.27,1.27,0,0,1-1.35-1.4,1.58,1.58,0,0,1,1-1.56,5.26,5.26,0,0,1,1.66-.32v-.2c0-.69-.12-.9-.5-.9s-.55.22-.61.78Zm2.46,1.17c-.88.11-1.16.35-1.16,1,0,.41.17.64.48.64a.57.57,0,0,0,.49-.32,1.89,1.89,0,0,0,.19-1Z"/><path class="cls-3" d="M501.24,256.88a1.8,1.8,0,0,0-.31,0,.49.49,0,0,0-.54.46,1.44,1.44,0,0,1,.38,1c0,.92-.74,1.54-1.84,1.54a2.85,2.85,0,0,1-.68-.08c-.21.12-.33.26-.33.42a.25.25,0,0,0,.2.25c.12.05.15.05,1,.1s1.25.13,1.56.37a1.29,1.29,0,0,1,.49,1.09c0,1.14-.84,1.71-2.51,1.71-1.37,0-2.09-.42-2.09-1.22,0-.46.24-.74.83-.95a1,1,0,0,1-.66-.89,1.08,1.08,0,0,1,.36-.77,2.09,2.09,0,0,1,.52-.35,1.27,1.27,0,0,1-.76-1.29c0-1,.72-1.56,1.91-1.56a2.53,2.53,0,0,1,1.1.23c.11-.75.34-1,1-1a1.27,1.27,0,0,1,.39.05Zm-3.49,5.43c0,.35.36.52,1.15.52s1-.16,1-.54a.46.46,0,0,0-.2-.41c-.16-.08-.24-.1-.9-.13l-.64-.05A.65.65,0,0,0,497.75,262.31Zm.6-4c0,.52.15.77.49.77s.46-.22.46-.81-.13-.82-.45-.82S498.35,257.7,498.35,258.32Z"/><path class="cls-3" d="M502.87,259.59v.27c0,.82.2,1.16.69,1.16s.65-.25.72-.87l1.28.08a2.24,2.24,0,0,1-.54,1.19,1.86,1.86,0,0,1-1.49.6c-1.35,0-2.13-.95-2.13-2.6s.79-2.73,2.13-2.73a1.86,1.86,0,0,1,1.66.94,3.67,3.67,0,0,1,.37,2Zm1.34-.82a2,2,0,0,0-.1-.77.6.6,0,0,0-.56-.36c-.45,0-.65.33-.67,1.13Z"/><rect class="cls-1" x="588.88" y="155.36" width="88.81" height="57.28"/><rect class="cls-2" x="588.88" y="155.41" width="88.81" height="16.96"/><path class="cls-3" d="M608.21,162.36c-.19-.6-.49-.86-1-.86a.66.66,0,0,0-.73.63c0,.4.2.55,1.2.93a3.62,3.62,0,0,1,1.22.63,1.83,1.83,0,0,1,.69,1.49,2.21,2.21,0,0,1-2.45,2.21,2.27,2.27,0,0,1-2.41-1.9l1.33-.37c.2.73.53,1,1.11,1a.78.78,0,0,0,.88-.75c0-.39-.24-.61-1-.87a4,4,0,0,1-1.45-.71,1.88,1.88,0,0,1-.64-1.45,2.05,2.05,0,0,1,2.22-2.12,2.43,2.43,0,0,1,1.54.49,2,2,0,0,1,.68,1.12Z"/><path class="cls-3" d="M611.94,160.55v1.62h.94v1.12h-.94v1.88c0,.69,0,.77.13.89a.61.61,0,0,0,.5.15H613v1.09a3.6,3.6,0,0,1-.86.1,1.44,1.44,0,0,1-1.31-.57c-.18-.3-.23-.54-.23-1.49v-2H610v-1.12h.65l.11-1.51Z"/><path class="cls-3" d="M614.91,162.17v3.28a1.49,1.49,0,0,0,.05.58.42.42,0,0,0,.45.25.52.52,0,0,0,.56-.36,3.56,3.56,0,0,0,.07-1.13v-2.62h1.43v5.12h-1.34v-.7a1.3,1.3,0,0,1-1.33.8,1.22,1.22,0,0,1-1.07-.45c-.2-.29-.24-.54-.24-1.45v-3.32Z"/><path class="cls-3" d="M622.42,160.37v6.92H621.1v-.85c-.27.68-.57.92-1.17.92-1,0-1.63-1-1.63-2.62s.62-2.64,1.69-2.64a1.07,1.07,0,0,1,1,.55v-2.28Zm-1.4,3.95a2,2,0,0,0-.13-.93.52.52,0,0,0-.5-.35c-.44,0-.62.42-.62,1.45a6.45,6.45,0,0,0,.06,1.25c.08.42.25.63.55.63.45,0,.64-.35.64-1.15Z"/><path class="cls-3" d="M624.72,165v.27c0,.82.2,1.17.69,1.17s.65-.25.73-.87l1.27.08a2.24,2.24,0,0,1-.54,1.19,1.85,1.85,0,0,1-1.49.59c-1.35,0-2.13-.94-2.13-2.59s.79-2.73,2.13-2.73A1.85,1.85,0,0,1,627,163a3.69,3.69,0,0,1,.37,2Zm1.34-.82a1.9,1.9,0,0,0-.1-.76.6.6,0,0,0-.56-.37c-.45,0-.64.34-.67,1.13Z"/><path class="cls-3" d="M629.6,162.17v.7a1.43,1.43,0,0,1,2.43-.22,2.4,2.4,0,0,1,.19,1.29v3.35H630.8v-3.35c0-.59-.12-.76-.5-.76a.53.53,0,0,0-.58.38,2.84,2.84,0,0,0-.05.73v3h-1.42v-5.12Z"/><path class="cls-3" d="M634.79,160.55v1.62h.94v1.12h-.94v1.88c0,.69,0,.77.13.89a.61.61,0,0,0,.5.15h.38v1.09a3.6,3.6,0,0,1-.86.1,1.44,1.44,0,0,1-1.31-.57c-.18-.3-.23-.54-.23-1.49v-2h-.57v-1.12h.65l.11-1.51Z"/><path class="cls-3" d="M640.43,160.37a2.81,2.81,0,0,1,1.78.34,2.13,2.13,0,0,1,.81,1.83,2.11,2.11,0,0,1-.79,1.83,2.83,2.83,0,0,1-1.73.37H640v2.55h-1.51v-6.92Zm-.47,3.17h.47c.71,0,1-.29,1-1a1.14,1.14,0,0,0-.28-.82c-.15-.15-.32-.19-.7-.19H640Z"/><path class="cls-3" d="M647.57,164.74c0,1.76-.69,2.65-2.07,2.65s-2.09-.89-2.09-2.64.69-2.68,2.11-2.68S647.57,163,647.57,164.74Zm-2.68,0c0,1.25.15,1.67.61,1.67s.6-.42.6-1.66-.15-1.67-.59-1.67S644.89,163.48,644.89,164.73Z"/><path class="cls-3" d="M649.66,162.17v1.24c.26-.91.63-1.31,1.21-1.31l.25,0v1.39l-.24,0c-.72,0-1,.51-1,1.58v2.21h-1.42v-5.12Z"/><path class="cls-3" d="M653.43,160.55v1.62h.94v1.12h-.94v1.88c0,.69,0,.77.13.89s.24.15.49.15h.39v1.09a3.66,3.66,0,0,1-.86.1,1.43,1.43,0,0,1-1.31-.57c-.19-.3-.23-.54-.23-1.49v-2h-.57v-1.12h.64l.12-1.51Z"/><path class="cls-3" d="M655.11,163.67a1.84,1.84,0,0,1,2.07-1.6,2,2,0,0,1,1.49.55c.25.26.32.62.32,1.49v2a3.15,3.15,0,0,0,.09,1.14h-1.32a2.15,2.15,0,0,1-.07-.78,1.91,1.91,0,0,1-.39.52,1.52,1.52,0,0,1-1,.36,1.27,1.27,0,0,1-1.35-1.4,1.56,1.56,0,0,1,1-1.55,5.53,5.53,0,0,1,1.66-.33v-.19c0-.7-.12-.91-.51-.91s-.55.22-.6.78Zm2.46,1.17c-.88.1-1.16.34-1.16,1,0,.42.17.65.48.65a.61.61,0,0,0,.49-.32,1.89,1.89,0,0,0,.19-1Z"/><path class="cls-3" d="M661.47,160.37v6.92H660v-6.92Z"/></svg>
