<svg id="Layer_1" data-name="Layer 1" xmlns="http://www.w3.org/2000/svg" width="960" height="464" viewBox="0 0 960 464"><defs><style>.cls-1,.cls-10,.cls-11,.cls-12,.cls-13,.cls-14,.cls-15,.cls-16,.cls-2,.cls-3,.cls-4,.cls-5,.cls-6,.cls-7,.cls-8,.cls-9{fill:none;stroke:#6d6e71;stroke-miterlimit:10;stroke-width:2px;}.cls-2{stroke-dasharray:1.97 5.91;}.cls-3{stroke-dasharray:1.96 5.87;}.cls-4{stroke-dasharray:2.03 6.1;}.cls-5{stroke-dasharray:1.94 5.83;}.cls-6{stroke-dasharray:1.89 5.66;}.cls-7{stroke-dasharray:1.89 5.67;}.cls-8{stroke-dasharray:1.96 5.88;}.cls-9{stroke-dasharray:2.16 6.47;}.cls-10{stroke-dasharray:1.93 5.78;}.cls-11{stroke-dasharray:1.95 5.85;}.cls-12{stroke-dasharray:2 6;}.cls-13{stroke-dasharray:2.05 6.16;}.cls-14{stroke-dasharray:1.87 5.61;}.cls-15{stroke-dasharray:1.94 5.81;}.cls-16{stroke-dasharray:1.98 5.94;}</style></defs><title>currentArch</title><polyline class="cls-1" points="255.79 85 255.79 86 254.79 86"/><line class="cls-2" x1="248.88" y1="86" x2="125.75" y2="86"/><polyline class="cls-1" points="122.79 86 121.79 86 121.79 85"/><line class="cls-3" x1="121.79" y1="79.13" x2="121.79" y2="42.93"/><polyline class="cls-1" points="121.79 40 121.79 39 122.79 39"/><line class="cls-2" x1="128.7" y1="39" x2="251.84" y2="39"/><polyline class="cls-1" points="254.79 39 255.79 39 255.79 40"/><line class="cls-3" x1="255.79" y1="45.87" x2="255.79" y2="82.07"/><polyline class="cls-1" points="158.79 177 158.79 178 157.79 178"/><line class="cls-4" x1="151.69" y1="178" x2="40.84" y2="178"/><polyline class="cls-1" points="37.79 178 36.79 178 36.79 177"/><line class="cls-3" x1="36.79" y1="171.13" x2="36.79" y2="134.93"/><polyline class="cls-1" points="36.79 132 36.79 131 37.79 131"/><line class="cls-4" x1="43.89" y1="131" x2="154.74" y2="131"/><polyline class="cls-1" points="157.79 131 158.79 131 158.79 132"/><line class="cls-3" x1="158.79" y1="137.87" x2="158.79" y2="174.07"/><polyline class="cls-1" points="239.79 259 239.79 260 238.79 260"/><line class="cls-5" x1="232.96" y1="260" x2="173.71" y2="260"/><polyline class="cls-1" points="170.79 260 169.79 260 169.79 259"/><line class="cls-3" x1="169.79" y1="253.13" x2="169.79" y2="216.93"/><polyline class="cls-1" points="169.79 214 169.79 213 170.79 213"/><line class="cls-5" x1="176.62" y1="213" x2="235.88" y2="213"/><polyline class="cls-1" points="238.79 213 239.79 213 239.79 214"/><line class="cls-3" x1="239.79" y1="219.87" x2="239.79" y2="256.07"/><polyline class="cls-1" points="154.79 437 154.79 438 153.79 438"/><line class="cls-6" x1="148.13" y1="438" x2="90.62" y2="438"/><polyline class="cls-1" points="87.79 438 86.79 438 86.79 437"/><line class="cls-7" x1="86.79" y1="431.33" x2="86.79" y2="388.83"/><polyline class="cls-1" points="86.79 386 86.79 385 87.79 385"/><line class="cls-6" x1="93.45" y1="385" x2="150.96" y2="385"/><polyline class="cls-1" points="153.79 385 154.79 385 154.79 386"/><line class="cls-7" x1="154.79" y1="391.67" x2="154.79" y2="434.17"/><polyline class="cls-1" points="398.79 53 398.79 54 397.79 54"/><line class="cls-8" x1="391.91" y1="54" x2="300.73" y2="54"/><polyline class="cls-1" points="297.79 54 296.79 54 296.79 53"/><line class="cls-9" x1="296.79" y1="46.53" x2="296.79" y2="15.24"/><polyline class="cls-1" points="296.79 12 296.79 11 297.79 11"/><line class="cls-8" x1="303.67" y1="11" x2="394.85" y2="11"/><polyline class="cls-1" points="397.79 11 398.79 11 398.79 12"/><line class="cls-9" x1="398.79" y1="18.47" x2="398.79" y2="49.76"/><polyline class="cls-1" points="382.79 317 382.79 318 381.79 318"/><line class="cls-10" x1="376.01" y1="318" x2="278.68" y2="318"/><polyline class="cls-1" points="275.79 318 274.79 318 274.79 317"/><line class="cls-11" x1="274.79" y1="311.15" x2="274.79" y2="243.92"/><polyline class="cls-1" points="274.79 241 274.79 240 275.79 240"/><line class="cls-10" x1="281.57" y1="240" x2="378.9" y2="240"/><polyline class="cls-1" points="381.79 240 382.79 240 382.79 241"/><line class="cls-11" x1="382.79" y1="246.85" x2="382.79" y2="314.08"/><polyline class="cls-1" points="382.79 222 382.79 223 381.79 223"/><line class="cls-10" x1="376.01" y1="223" x2="278.68" y2="223"/><polyline class="cls-1" points="275.79 223 274.79 223 274.79 222"/><line class="cls-11" x1="274.79" y1="216.15" x2="274.79" y2="148.92"/><polyline class="cls-1" points="274.79 146 274.79 145 275.79 145"/><line class="cls-10" x1="281.57" y1="145" x2="378.9" y2="145"/><polyline class="cls-1" points="381.79 145 382.79 145 382.79 146"/><line class="cls-11" x1="382.79" y1="151.85" x2="382.79" y2="219.08"/><polyline class="cls-1" points="533.79 317 533.79 318 532.79 318"/><line class="cls-10" x1="527.01" y1="318" x2="429.68" y2="318"/><polyline class="cls-1" points="426.79 318 425.79 318 425.79 317"/><line class="cls-11" x1="425.79" y1="311.15" x2="425.79" y2="243.92"/><polyline class="cls-1" points="425.79 241 425.79 240 426.79 240"/><line class="cls-10" x1="432.57" y1="240" x2="529.9" y2="240"/><polyline class="cls-1" points="532.79 240 533.79 240 533.79 241"/><line class="cls-11" x1="533.79" y1="246.85" x2="533.79" y2="314.08"/><polyline class="cls-1" points="533.79 222 533.79 223 532.79 223"/><line class="cls-10" x1="527.01" y1="223" x2="429.68" y2="223"/><polyline class="cls-1" points="426.79 223 425.79 223 425.79 222"/><line class="cls-11" x1="425.79" y1="216.15" x2="425.79" y2="148.92"/><polyline class="cls-1" points="425.79 146 425.79 145 426.79 145"/><line class="cls-10" x1="432.57" y1="145" x2="529.9" y2="145"/><polyline class="cls-1" points="532.79 145 533.79 145 533.79 146"/><line class="cls-11" x1="533.79" y1="151.85" x2="533.79" y2="219.08"/><polyline class="cls-1" points="687.79 317 687.79 318 686.79 318"/><line class="cls-10" x1="681.01" y1="318" x2="583.68" y2="318"/><polyline class="cls-1" points="580.79 318 579.79 318 579.79 317"/><line class="cls-11" x1="579.79" y1="311.15" x2="579.79" y2="243.92"/><polyline class="cls-1" points="579.79 241 579.79 240 580.79 240"/><line class="cls-10" x1="586.57" y1="240" x2="683.9" y2="240"/><polyline class="cls-1" points="686.79 240 687.79 240 687.79 241"/><line class="cls-11" x1="687.79" y1="246.85" x2="687.79" y2="314.08"/><polyline class="cls-1" points="687.79 222 687.79 223 686.79 223"/><line class="cls-10" x1="681.01" y1="223" x2="583.68" y2="223"/><polyline class="cls-1" points="580.79 223 579.79 223 579.79 222"/><line class="cls-11" x1="579.79" y1="216.15" x2="579.79" y2="148.92"/><polyline class="cls-1" points="579.79 146 579.79 145 580.79 145"/><line class="cls-10" x1="586.57" y1="145" x2="683.9" y2="145"/><polyline class="cls-1" points="686.79 145 687.79 145 687.79 146"/><line class="cls-11" x1="687.79" y1="151.85" x2="687.79" y2="219.08"/><polyline class="cls-1" points="697.79 448 697.79 449 696.79 449"/><line class="cls-12" x1="690.79" y1="449" x2="597.79" y2="449"/><polyline class="cls-1" points="594.79 449 593.79 449 593.79 448"/><line class="cls-13" x1="593.79" y1="441.84" x2="593.79" y2="412.08"/><polyline class="cls-1" points="593.79 409 593.79 408 594.79 408"/><line class="cls-12" x1="600.79" y1="408" x2="693.79" y2="408"/><polyline class="cls-1" points="696.79 408 697.79 408 697.79 409"/><line class="cls-13" x1="697.79" y1="415.16" x2="697.79" y2="444.92"/><polyline class="cls-1" points="888.79 429 888.79 430 887.79 430"/><line class="cls-12" x1="881.79" y1="430" x2="788.79" y2="430"/><polyline class="cls-1" points="785.79 430 784.79 430 784.79 429"/><line class="cls-13" x1="784.79" y1="422.84" x2="784.79" y2="393.08"/><polyline class="cls-1" points="784.79 390 784.79 389 785.79 389"/><line class="cls-12" x1="791.79" y1="389" x2="884.79" y2="389"/><polyline class="cls-1" points="887.79 389 888.79 389 888.79 390"/><line class="cls-13" x1="888.79" y1="396.16" x2="888.79" y2="425.92"/><polyline class="cls-1" points="140.79 324 140.79 325 139.79 325"/><line class="cls-12" x1="133.79" y1="325" x2="56.79" y2="325"/><polyline class="cls-1" points="53.79 325 52.79 325 52.79 324"/><line class="cls-14" x1="52.79" y1="318.39" x2="52.79" y2="283.8"/><polyline class="cls-1" points="52.79 281 52.79 280 53.79 280"/><line class="cls-12" x1="59.79" y1="280" x2="136.79" y2="280"/><polyline class="cls-1" points="139.79 280 140.79 280 140.79 281"/><line class="cls-14" x1="140.79" y1="286.61" x2="140.79" y2="321.2"/><polyline class="cls-1" points="607.79 385 607.79 386 606.79 386"/><line class="cls-15" x1="600.98" y1="386" x2="549.69" y2="386"/><polyline class="cls-1" points="546.79 386 545.79 386 545.79 385"/><line class="cls-12" x1="545.79" y1="379" x2="545.79" y2="350"/><polyline class="cls-1" points="545.79 347 545.79 346 546.79 346"/><line class="cls-15" x1="552.6" y1="346" x2="603.89" y2="346"/><polyline class="cls-1" points="606.79 346 607.79 346 607.79 347"/><line class="cls-12" x1="607.79" y1="353" x2="607.79" y2="382"/><polyline class="cls-1" points="677.79 58 677.79 59 676.79 59"/><line class="cls-16" x1="670.85" y1="59" x2="586.76" y2="59"/><polyline class="cls-1" points="583.79 59 582.79 59 582.79 58"/><line class="cls-12" x1="582.79" y1="52" x2="582.79" y2="23"/><polyline class="cls-1" points="582.79 20 582.79 19 583.79 19"/><line class="cls-16" x1="589.73" y1="19" x2="673.82" y2="19"/><polyline class="cls-1" points="676.79 19 677.79 19 677.79 20"/><line class="cls-12" x1="677.79" y1="26" x2="677.79" y2="55"/></svg>
