<svg id="Layer_1" data-name="Layer 1" xmlns="http://www.w3.org/2000/svg" width="208" height="507.02" viewBox="0 0 208 507.02"><defs><style>.cls-1{fill:none;stroke:#d0d2d3;stroke-miterlimit:10;stroke-width:2px;stroke-dasharray:2 6;}.cls-2{font-size:11px;font-family:FranklinGothicURW-Med, FranklinGothic URW;}.cls-2,.cls-9{fill:#231f20;}.cls-3{letter-spacing:-0.01em;}.cls-4{letter-spacing:0.02em;}.cls-5{letter-spacing:0em;}.cls-6{letter-spacing:-0.01em;}.cls-7{letter-spacing:-0.01em;}.cls-8{letter-spacing:0em;}.cls-9{font-size:25px;font-family:FontAwesome5FreeSolid, "Font Awesome 5 Free";}.cls-10{font-size:10px;font-family:FranklinGothicURW-Boo, FranklinGothic URW;}.cls-11{letter-spacing:-0.01em;}.cls-12{letter-spacing:-0.02em;}.cls-13{letter-spacing:0em;}.cls-14{letter-spacing:0em;}.cls-15{letter-spacing:-0.01em;}.cls-16{letter-spacing:-0.01em;}.cls-17{letter-spacing:0em;}.cls-18{letter-spacing:-0.02em;}.cls-19{letter-spacing:0em;}.cls-20{letter-spacing:-0.01em;}.cls-21{letter-spacing:0.02em;}.cls-22{letter-spacing:-0.02em;}.cls-23{letter-spacing:-0.01em;}.cls-24{letter-spacing:-0.02em;}.cls-25{letter-spacing:-0.01em;}.cls-26{letter-spacing:0em;}.cls-27{letter-spacing:-0.01em;}.cls-28{letter-spacing:-0.02em;}.cls-29{letter-spacing:-0.01em;}.cls-30{letter-spacing:0.01em;}.cls-31{letter-spacing:-0.01em;}.cls-32{letter-spacing:-0.01em;}.cls-33{letter-spacing:0em;}.cls-34{letter-spacing:-0.01em;}.cls-35{letter-spacing:0em;}.cls-36{letter-spacing:-0.01em;}.cls-37{letter-spacing:-0.02em;}.cls-38{letter-spacing:-0.01em;}.cls-39{letter-spacing:-0.01em;}.cls-40{letter-spacing:-0.01em;}.cls-41{letter-spacing:-0.02em;}.cls-42{letter-spacing:0.02em;}.cls-43{letter-spacing:0em;}.cls-44{letter-spacing:-0.01em;}.cls-45{letter-spacing:0em;}.cls-46{letter-spacing:0.01em;}.cls-47{letter-spacing:0.01em;}</style></defs><title>graphics</title><rect class="cls-1" x="1" y="1" width="206" height="505.02"/><text class="cls-2" transform="translate(80.33 101.32)">J<tspan class="cls-3" x="4.08" y="0">e</tspan><tspan class="cls-4" x="9.78" y="0">f</tspan><tspan class="cls-5" x="13.49" y="0">f B</tspan><tspan class="cls-6" x="26.39" y="0">e</tspan><tspan class="cls-7" x="32.06" y="0">z</tspan><tspan class="cls-8" x="36.53" y="0">os</tspan></text><text class="cls-9" transform="translate(93.06 88.06)"></text><text class="cls-10" transform="translate(19.19 121.23)">Cli<tspan class="cls-11" x="10.38" y="0">c</tspan><tspan class="cls-12" x="14.96" y="0">k</tspan><tspan x="19.73" y="0">ed </tspan><tspan class="cls-13" x="32.81" y="0">t</tspan><tspan class="cls-14" x="35.84" y="0">h</tspan><tspan class="cls-15" x="41.24" y="0">r</tspan><tspan x="44.39" y="0">o</tspan><tspan class="cls-16" x="49.58" y="0">u</tspan><tspan x="54.93" y="0">gh f</tspan><tspan class="cls-15" x="70.74" y="0">r</tspan><tspan class="cls-14" x="73.89" y="0">om mon</tspan><tspan class="cls-13" x="108.47" y="0">t</tspan><tspan x="111.5" y="0">h</tspan><tspan class="cls-17" x="116.9" y="0">l</tspan><tspan class="cls-14" x="119.16" y="0">y n</tspan><tspan class="cls-18" x="131.23" y="0">e</tspan><tspan class="cls-19" x="136.26" y="0">w</tspan><tspan x="142.88" y="0">sl</tspan><tspan class="cls-20" x="149.82" y="0">e</tspan><tspan class="cls-21" x="154.95" y="0">t</tspan><tspan class="cls-22" x="158.23" y="0">t</tspan><tspan class="cls-14" x="161.13" y="0">er</tspan><tspan class="cls-12" x="18.89" y="12">W</tspan><tspan class="cls-23" x="26.82" y="12">a</tspan><tspan class="cls-24" x="32" y="12">t</tspan><tspan class="cls-11" x="34.93" y="12">c</tspan><tspan class="cls-14" x="39.51" y="12">hed 32 seconds of X </tspan><tspan class="cls-25" x="128.24" y="12">v</tspan><tspan x="132.67" y="12">ideo</tspan><tspan class="cls-26" x="-0.1" y="24">D</tspan><tspan x="6.38" y="24">on</tspan><tspan class="cls-27" x="16.99" y="24">a</tspan><tspan class="cls-22" x="22.17" y="24">t</tspan><tspan x="25.07" y="24">ed $2million </tspan><tspan class="cls-28" x="80.31" y="24">t</tspan><tspan x="83.23" y="24">o Buildi</tspan><tspan class="cls-29" x="114.64" y="24">n</tspan><tspan x="119.96" y="24">g </tspan><tspan class="cls-30" x="127.37" y="24">C</tspan><tspan x="133.23" y="24">a</tspan><tspan class="cls-31" x="138.52" y="24">m</tspan><tspan x="146.53" y="24">pa</tspan><tspan class="cls-16" x="157.16" y="24">i</tspan><tspan x="159.39" y="24">gn</tspan></text><text class="cls-2" transform="translate(80.79 223.32)">19<tspan class="cls-32" x="12.91" y="0">2</tspan><tspan x="19.26" y="0">.</tspan><tspan class="cls-33" x="21.91" y="0">0</tspan><tspan x="28.31" y="0">.</tspan><tspan class="cls-34" x="30.96" y="0">2</tspan><tspan x="37.31" y="0">.1</tspan></text><text class="cls-9" transform="translate(93.06 210.06)"></text><text class="cls-10" transform="translate(19.19 243.23)">Cli<tspan class="cls-11" x="10.38" y="0">c</tspan><tspan class="cls-12" x="14.96" y="0">k</tspan><tspan x="19.73" y="0">ed </tspan><tspan class="cls-13" x="32.81" y="0">t</tspan><tspan class="cls-14" x="35.84" y="0">h</tspan><tspan class="cls-15" x="41.24" y="0">r</tspan><tspan x="44.39" y="0">o</tspan><tspan class="cls-16" x="49.58" y="0">u</tspan><tspan x="54.93" y="0">gh f</tspan><tspan class="cls-15" x="70.74" y="0">r</tspan><tspan class="cls-14" x="73.89" y="0">om mon</tspan><tspan class="cls-13" x="108.47" y="0">t</tspan><tspan x="111.5" y="0">h</tspan><tspan class="cls-17" x="116.9" y="0">l</tspan><tspan class="cls-14" x="119.16" y="0">y n</tspan><tspan class="cls-18" x="131.23" y="0">e</tspan><tspan class="cls-19" x="136.26" y="0">w</tspan><tspan x="142.88" y="0">sl</tspan><tspan class="cls-20" x="149.82" y="0">e</tspan><tspan class="cls-21" x="154.95" y="0">t</tspan><tspan class="cls-22" x="158.23" y="0">t</tspan><tspan class="cls-14" x="161.13" y="0">er</tspan><tspan class="cls-12" x="18.89" y="12">W</tspan><tspan class="cls-23" x="26.82" y="12">a</tspan><tspan class="cls-24" x="32" y="12">t</tspan><tspan class="cls-11" x="34.93" y="12">c</tspan><tspan class="cls-14" x="39.51" y="12">hed 32 seconds of X </tspan><tspan class="cls-25" x="128.24" y="12">v</tspan><tspan x="132.67" y="12">ideo</tspan><tspan class="cls-26" x="-0.1" y="24">D</tspan><tspan x="6.38" y="24">on</tspan><tspan class="cls-27" x="16.99" y="24">a</tspan><tspan class="cls-22" x="22.17" y="24">t</tspan><tspan x="25.07" y="24">ed $2million </tspan><tspan class="cls-28" x="80.31" y="24">t</tspan><tspan x="83.23" y="24">o Buildi</tspan><tspan class="cls-29" x="114.64" y="24">n</tspan><tspan x="119.96" y="24">g </tspan><tspan class="cls-30" x="127.37" y="24">C</tspan><tspan x="133.23" y="24">a</tspan><tspan class="cls-31" x="138.52" y="24">m</tspan><tspan x="146.53" y="24">pa</tspan><tspan class="cls-16" x="157.16" y="24">i</tspan><tspan x="159.39" y="24">gn</tspan></text><text class="cls-2" transform="translate(59.1 347.32)">emusk@gmai<tspan class="cls-26" x="63.9" y="0">l</tspan><tspan x="66.6" y="0">.</tspan><tspan class="cls-35" x="69.25" y="0">c</tspan><tspan class="cls-8" x="74.41" y="0">om</tspan></text><text class="cls-9" transform="translate(93.06 334.06)"></text><text class="cls-10" transform="translate(27.47 367.23)">Cli<tspan class="cls-11" x="10.38" y="0">c</tspan><tspan class="cls-12" x="14.96" y="0">k</tspan><tspan x="19.73" y="0">ed </tspan><tspan class="cls-13" x="32.81" y="0">t</tspan><tspan class="cls-14" x="35.84" y="0">h</tspan><tspan class="cls-15" x="41.24" y="0">r</tspan><tspan x="44.39" y="0">o</tspan><tspan class="cls-16" x="49.58" y="0">u</tspan><tspan x="54.93" y="0">gh f</tspan><tspan class="cls-15" x="70.74" y="0">r</tspan><tspan class="cls-14" x="73.89" y="0">om </tspan><tspan class="cls-13" x="89.72" y="0">L</tspan><tspan x="94.57" y="0">in</tspan><tspan class="cls-12" x="102.28" y="0">k</tspan><tspan x="107.05" y="0">edIn </tspan><tspan class="cls-36" x="128.05" y="0">A</tspan><tspan x="133.44" y="0">d #1</tspan><tspan x="10.49" y="12">Visi</tspan><tspan class="cls-37" x="25.08" y="12">t</tspan><tspan x="27.97" y="12">ed x p</tspan><tspan class="cls-38" x="53.13" y="12">a</tspan><tspan class="cls-28" x="58.33" y="12">g</tspan><tspan class="cls-30" x="63.08" y="12">e</tspan><tspan x="68.34" y="12">s in MSM</tspan><tspan class="cls-13" x="107.58" y="12">I</tspan><tspan x="110.03" y="12">T p</tspan><tspan class="cls-38" x="122.72" y="12">a</tspan><tspan class="cls-28" x="127.91" y="12">g</tspan><tspan class="cls-30" x="132.66" y="12">e</tspan><tspan x="137.93" y="12">s</tspan><tspan class="cls-26" x="30.4" y="24">D</tspan><tspan class="cls-24" x="36.88" y="24">o</tspan><tspan x="41.92" y="24">wnloaded b</tspan><tspan class="cls-39" x="90.59" y="24">r</tspan><tspan x="93.74" y="24">o</tspan><tspan class="cls-11" x="98.93" y="24">c</tspan><tspan class="cls-14" x="103.51" y="24">hu</tspan><tspan class="cls-24" x="114.32" y="24">r</tspan><tspan x="117.46" y="24">e</tspan><tspan class="cls-40" x="7.99" y="36">Si</tspan><tspan x="15.84" y="36">gned up </tspan><tspan class="cls-41" x="52.5" y="36">f</tspan><tspan x="55.31" y="36">or online in</tspan><tspan class="cls-41" x="102.32" y="36">f</tspan><tspan x="105.13" y="36">o s</tspan><tspan class="cls-30" x="117.46" y="36">e</tspan><tspan class="cls-42" x="122.73" y="36">s</tspan><tspan x="127.53" y="36">sion</tspan><tspan class="cls-28" x="27.95" y="48">R</tspan><tspan x="33.92" y="48">e</tspan><tspan class="cls-43" x="39.12" y="48">c</tspan><tspan class="cls-14" x="43.77" y="48">e</tspan><tspan class="cls-20" x="48.97" y="48">i</tspan><tspan class="cls-44" x="51.19" y="48">v</tspan><tspan x="55.54" y="48">ed </tspan><tspan class="cls-24" x="68.62" y="48">r</tspan><tspan class="cls-20" x="71.76" y="48">e</tspan><tspan class="cls-45" x="76.89" y="48">t</tspan><tspan x="80.01" y="48">a</tspan><tspan class="cls-43" x="85.3" y="48">r</tspan><tspan class="cls-28" x="88.58" y="48">g</tspan><tspan class="cls-20" x="93.33" y="48">e</tspan><tspan class="cls-37" x="98.46" y="48">t</tspan><tspan x="101.36" y="48">ed ad</tspan><tspan class="cls-46" x="29.42" y="60">C</tspan><tspan class="cls-14" x="35.29" y="60">o</tspan><tspan class="cls-31" x="40.48" y="60">m</tspan><tspan x="48.5" y="60">pl</tspan><tspan class="cls-20" x="56.13" y="60">e</tspan><tspan class="cls-22" x="61.26" y="60">t</tspan><tspan x="64.17" y="60">ed appli</tspan><tspan class="cls-47" x="97.8" y="60">c</tspan><tspan class="cls-27" x="102.52" y="60">a</tspan><tspan class="cls-17" x="107.7" y="60">t</tspan><tspan x="110.74" y="60">ion</tspan></text></svg>