<svg id="Layer_1" data-name="Layer 1" xmlns="http://www.w3.org/2000/svg" width="426" height="507.02" viewBox="0 0 426 507.02"><defs><style>.cls-1,.cls-8{fill:none;}.cls-1,.cls-2,.cls-3{stroke:#d0d2d3;}.cls-1,.cls-2,.cls-3,.cls-7,.cls-8{stroke-miterlimit:10;}.cls-1{stroke-width:2px;stroke-dasharray:2 6;}.cls-2,.cls-7{fill:#f1f1f2;}.cls-3{fill:#d0d2d3;}.cls-4{font-size:10.38px;fill:#231f20;font-family:FranklinGothicURWCon-Dem, FranklinGothic URW Cond;}.cls-5{letter-spacing:0.01em;}.cls-6{letter-spacing:0em;}.cls-7,.cls-8{stroke:#bbbdbf;}</style></defs><title>graphics</title><rect class="cls-1" x="1" y="1" width="424" height="505.02"/><rect class="cls-2" x="27.19" y="81.46" width="88.81" height="57.28"/><rect class="cls-3" x="27.19" y="81.51" width="88.81" height="16.96"/><text class="cls-4" transform="translate(44.25 93.39)"><tspan class="cls-5">C</tspan><tspan x="5.73" y="0">omm</tspan><tspan class="cls-6" x="25" y="0">c</tspan><tspan x="29.58" y="0">al Site</tspan></text><rect class="cls-2" x="28.19" y="334.46" width="88.81" height="57.28"/><rect class="cls-3" x="28.19" y="334.51" width="88.81" height="16.96"/><text class="cls-4" transform="translate(45.25 346.39)"><tspan class="cls-5">C</tspan><tspan x="5.73" y="0">omm</tspan><tspan class="cls-6" x="25" y="0">c</tspan><tspan x="29.58" y="0">al Site</tspan></text><rect class="cls-2" x="171.19" y="376.46" width="88.81" height="57.28"/><rect class="cls-3" x="171.19" y="376.51" width="88.81" height="16.96"/><text class="cls-4" transform="translate(188.25 388.39)"><tspan class="cls-5">C</tspan><tspan x="5.73" y="0">omm</tspan><tspan class="cls-6" x="25" y="0">c</tspan><tspan x="29.58" y="0">al Site</tspan></text><rect class="cls-2" x="355.19" y="210.46" width="30.81" height="57.28"/><rect class="cls-3" x="355.19" y="259.51" width="30.81" height="8.01"/><rect class="cls-3" x="355.19" y="210.51" width="30.81" height="3.01"/><rect class="cls-2" x="44.19" y="210.46" width="30.81" height="57.28"/><rect class="cls-3" x="44.19" y="259.51" width="30.81" height="8.01"/><rect class="cls-3" x="44.19" y="210.51" width="30.81" height="3.01"/><rect class="cls-2" x="171.19" y="39.46" width="88.81" height="57.28"/><rect class="cls-3" x="171.19" y="39.51" width="88.81" height="16.96"/><text class="cls-4" transform="translate(188.25 51.39)"><tspan class="cls-5">C</tspan><tspan x="5.73" y="0">omm</tspan><tspan class="cls-6" x="25" y="0">c</tspan><tspan x="29.58" y="0">al Site</tspan></text><rect class="cls-2" x="315.19" y="336.46" width="88.81" height="57.28"/><rect class="cls-3" x="315.19" y="336.51" width="88.81" height="16.96"/><text class="cls-4" transform="translate(332.25 348.39)"><tspan class="cls-5">C</tspan><tspan x="5.73" y="0">omm</tspan><tspan class="cls-6" x="25" y="0">c</tspan><tspan x="29.58" y="0">al Site</tspan></text><rect class="cls-2" x="315.19" y="80.46" width="88.81" height="57.28"/><rect class="cls-3" x="315.19" y="80.51" width="88.81" height="16.96"/><text class="cls-4" transform="translate(332.25 92.39)"><tspan class="cls-5">C</tspan><tspan x="5.73" y="0">omm</tspan><tspan class="cls-6" x="25" y="0">c</tspan><tspan x="29.58" y="0">al Site</tspan></text><circle class="cls-7" cx="215.5" cy="236.52" r="46"/><line class="cls-8" x1="215.5" y1="97.52" x2="215.5" y2="190.52"/><line class="cls-8" x1="215.5" y1="283.02" x2="215.5" y2="376.02"/><line class="cls-8" x1="76.25" y1="236.77" x2="169.25" y2="236.77"/><line class="cls-8" x1="261.75" y1="236.77" x2="354.75" y2="236.77"/><line class="cls-8" x1="313.96" y1="138.3" x2="248.2" y2="204.06"/><line class="cls-8" x1="182.8" y1="269.47" x2="117.04" y2="335.23"/><line class="cls-8" x1="117.04" y1="138.3" x2="182.8" y2="204.06"/><line class="cls-8" x1="248.2" y1="269.47" x2="313.96" y2="335.23"/></svg>