<svg id="Layer_1" data-name="Layer 1" xmlns="http://www.w3.org/2000/svg" width="80.2" height="18.01" viewBox="0 0 80.2 18.01"><defs><style>.cls-1{fill:#1c4b98;}.cls-2{fill:#db1f26;}.cls-3{fill:#b2d238;}.cls-4{fill:#009444;}.cls-5{fill:#01accd;}.cls-6{fill:#06a886;}.cls-7{fill:#fdd304;}.cls-8{fill:#f9a71b;}.cls-9{fill:#595959;}</style></defs><title>logos</title><path class="cls-1" d="M8.48,12.8c-.45,0-.8.48-.8,1.09v3c0,.61.35,1.09.8,1.09s.81-.48.81-1.09v-3c0-.61-.35-1.09-.81-1.09"/><path class="cls-2" d="M8.48,0c-.45,0-.8.48-.8,1.1V4.18c0,.62.35,1.11.8,1.11s.81-.49.81-1.11V1.1C9.29.48,8.94,0,8.48,0"/><path class="cls-3" d="M4,8.11H1A1,1,0,0,0,0,9a1,1,0,0,0,1,.84H4A1,1,0,0,0,5,9a1,1,0,0,0-1-.84"/><path class="cls-4" d="M16,8.11H13A1,1,0,0,0,11.94,9,1,1,0,0,0,13,9.79h3A1,1,0,0,0,17,9,1,1,0,0,0,16,8.11"/><path class="cls-5" d="M6.29,11.73a.68.68,0,0,0-.51-.21,1.14,1.14,0,0,0-.8.38L2.93,14a1.21,1.21,0,0,0-.37.84.76.76,0,0,0,.2.53.7.7,0,0,0,.5.2,1.12,1.12,0,0,0,.81-.38l2.06-2.14a1.25,1.25,0,0,0,.36-.84.73.73,0,0,0-.2-.52"/><path class="cls-6" d="M14.45,2.76a.7.7,0,0,0-.5-.2,1.16,1.16,0,0,0-.82.39L11,5.13a1.27,1.27,0,0,0-.38.85.76.76,0,0,0,.2.53.7.7,0,0,0,.5.2,1.16,1.16,0,0,0,.82-.39l2.09-2.18a1.26,1.26,0,0,0,.37-.85.75.75,0,0,0-.19-.53"/><path class="cls-7" d="M6.13,5.08,4.07,2.94a1.15,1.15,0,0,0-.81-.38.67.67,0,0,0-.5.21.73.73,0,0,0-.2.52,1.21,1.21,0,0,0,.37.84L5,6.28a1.16,1.16,0,0,0,.8.37.71.71,0,0,0,.51-.2.76.76,0,0,0,.2-.53,1.27,1.27,0,0,0-.36-.84"/><path class="cls-8" d="M14.27,14.09l-2.09-2.18a1.13,1.13,0,0,0-.82-.39.7.7,0,0,0-.5.2.74.74,0,0,0-.2.53,1.27,1.27,0,0,0,.38.85l2.09,2.18a1.17,1.17,0,0,0,.82.39.67.67,0,0,0,.5-.21.73.73,0,0,0,.19-.52,1.23,1.23,0,0,0-.37-.85"/><path d="M26.12,9.62s1.23,3.24,1.51,4,.22.85-.81.85-1.21,0-1.51-.85l-1.19-3.19H22.9l-.64,3.19c-.18.85-.18.85-1.24.85s-1.06-.05-.9-.85L21.67,6c.17-.86.17-.86,1.24-.86s1.06,0,.9.86l-.54,2.63h1.14L26.35,6c.64-.86.67-.86,1.89-.86s1.16.19.64.87L26.12,9.62"/><path d="M44,14.48H40.21c-1,0-1.05-.05-.89-.85L40.87,6c.16-.86.16-.86,1.24-.86s1.06,0,.89.86l-1.35,6.66h2.71c1.06,0,1.1,0,.92.92s-.18.92-1.28.92"/><path d="M52.47,7H51.05L49.7,13.63c-.17.85-.17.85-1.24.85s-1.07-.05-.9-.85L48.92,7H47.5c-1,0-1.1,0-.92-.92s.19-.91,1.29-.91h5c1,0,1.09,0,.91.91S53.57,7,52.47,7"/><path d="M61.74,9.89c-.78,3.82-1.81,4.72-4.58,4.72s-3.47-.88-2.68-4.72L55.28,6c.18-.86.18-.86,1.25-.86s1.06,0,.89.86l-.8,3.91c-.51,2.44-.45,2.88.91,2.88s1.56-.45,2.07-2.88L60.39,6c.18-.86.18-.86,1.26-.86s1.05,0,.89.86Z"/><path d="M35.43,10.71l0-4.14H34.9l-1.77,4.14Zm-3,1.64c-.11.27-.46,1-.56,1.28-.37.82-.39.85-1.41.85-1.2,0-1.23-.08-.88-.85.52-1.21,3-6.83,3.4-7.65s.42-.86,1.55-.86h1.57c1.07,0,1.16,0,1.18.84s.19,6.34.21,7.67c0,.82,0,.85-1,.85s-1,0-1-.85c0-.19,0-1,0-1.28Zm34.26-5.6-.53,2.62h1.71c.87,0,1.22-.29,1.42-1.31s0-1.31-1-1.31Zm3,7.73c-1.1,0-1.11,0-1.35-.85-.13-.47-.72-2.08-.86-2.61H65.87l-.52,2.61c-.18.85-.18.85-1.25.85s-1-.05-.9-.85L64.76,6c.18-.86.18-.86,1.24-.86h2.89c2.39,0,3.1.89,2.69,2.94a3,3,0,0,1-2,2.65c.29.88.84,2.35,1,2.92.27.78.21.85-.86.85Zm8.38-3.77,0-4.14h-.49l-1.76,4.14Zm-3,1.64c-.11.27-.46,1-.56,1.28-.37.82-.39.85-1.41.85-1.2,0-1.23-.08-.88-.85.52-1.21,3-6.83,3.4-7.65s.42-.86,1.54-.86h1.58c1.07,0,1.16,0,1.18.84s.19,6.34.21,7.67c0,.82,0,.85-1,.85s-1,0-1-.85c0-.19,0-1,0-1.28Z"/><path class="cls-9" d="M7.25,8.87a1.18,1.18,0,0,0,1.14,1.19h0A1.19,1.19,0,1,0,7.25,8.87h0"/></svg>