<svg id="Layer_1" data-name="Layer 1" xmlns="http://www.w3.org/2000/svg" width="960" height="480" viewBox="0 0 960 480"><defs><style>.cls-1{fill:#f2f2f2;}.cls-1,.cls-2{stroke:#ccc;stroke-miterlimit:10;}.cls-2{fill:none;}.cls-3{fill:#ccc;}.cls-4{fill:#231f20;}</style></defs><title>newArch</title><rect class="cls-1" x="725.41" y="22.69" width="208.84" height="435.86"/><line class="cls-2" x1="714.59" y1="240.62" x2="673.41" y2="240.63"/><polygon class="cls-3" points="713.13 235.63 721.77 240.62 713.13 245.61 713.13 235.63"/><path class="cls-4" d="M810,104.39a2.87,2.87,0,0,1-.37,1.58,2,2,0,0,1-1.88.75,3.63,3.63,0,0,1-1-.11v-1l.83,0a1.28,1.28,0,0,0,1-.32,1.63,1.63,0,0,0,.16-.9V99.45H810Z"/><path class="cls-4" d="M815.86,105.06a2.3,2.3,0,0,1-2.36,1.66,2.44,2.44,0,0,1-2.44-2.74,2.5,2.5,0,0,1,2.5-2.77c1.52,0,2.37,1,2.38,2.9h-3.63v.15c0,1,.47,1.51,1.27,1.51a1.14,1.14,0,0,0,1.19-.86Zm-1.15-1.73a1.34,1.34,0,0,0-.27-.82,1.12,1.12,0,0,0-.93-.46c-.67,0-1.1.45-1.2,1.28Z"/><path class="cls-4" d="M817.16,106.61v-4.36h-.79v-.93h.79c0-.84.08-1.19.39-1.53a1.83,1.83,0,0,1,1.51-.46h.43v.94a2,2,0,0,0-.32,0,.94.94,0,0,0-.75.23c-.1.14-.11.21-.11.83h1.18v.93h-1.18v4.36Z"/><path class="cls-4" d="M820.78,106.61v-4.36H820v-.93h.78a1.93,1.93,0,0,1,.4-1.53,1.8,1.8,0,0,1,1.5-.46h.43v.94a2,2,0,0,0-.32,0,.92.92,0,0,0-.74.23c-.11.14-.12.21-.12.83h1.18v.93h-1.18v4.36Z"/><path class="cls-4" d="M826.74,99.45h2.8a2.45,2.45,0,0,1,1.58.36,1.79,1.79,0,0,1,.74,1.49,1.55,1.55,0,0,1-1.3,1.59,1.86,1.86,0,0,1,.85.35,1.7,1.7,0,0,1,.67,1.43,1.93,1.93,0,0,1-.58,1.41,2.17,2.17,0,0,1-1.63.53h-3.13Zm2.8,3a1,1,0,0,0,1-1,1,1,0,0,0-1.07-1H828v2Zm.09,3.09a1,1,0,0,0,1.14-1,1,1,0,0,0-1.13-1H828v2.07Z"/><path class="cls-4" d="M837.65,105.06a2.29,2.29,0,0,1-2.35,1.66,2.44,2.44,0,0,1-2.44-2.74,2.5,2.5,0,0,1,2.49-2.77c1.53,0,2.37,1,2.38,2.9H834.1v.15c0,1,.48,1.51,1.27,1.51a1.13,1.13,0,0,0,1.19-.86Zm-1.15-1.73a1.28,1.28,0,0,0-.27-.82,1.11,1.11,0,0,0-.92-.46c-.68,0-1.11.45-1.21,1.28Z"/><path class="cls-4" d="M842.27,106.61h-4v-.93l2.61-3.43h-2.36v-.93h3.75v.84l-2.58,3.52h2.58Z"/><path class="cls-4" d="M847.26,102.29a3,3,0,0,1,.44,1.68,2.52,2.52,0,0,1-2.52,2.75,2.15,2.15,0,0,1-1.89-1,3.11,3.11,0,0,1-.52-1.79,2.51,2.51,0,0,1,2.48-2.74A2.21,2.21,0,0,1,847.26,102.29ZM844,104c0,1.14.43,1.78,1.2,1.78s1.2-.64,1.2-1.8-.42-1.75-1.18-1.75S844,102.82,844,104Z"/><path class="cls-4" d="M849.27,105.18c.22.48.52.65,1.17.65s1.07-.24,1.07-.66c0-.26-.22-.46-.58-.52l-1-.2c-1.09-.2-1.6-.7-1.6-1.56a1.62,1.62,0,0,1,.42-1.1,2.06,2.06,0,0,1,1.63-.58,1.88,1.88,0,0,1,2,1.22l-1.08.23c-.14-.43-.42-.6-1-.6s-.94.22-.94.57.23.49.76.6l1.14.23A1.46,1.46,0,0,1,852.7,105c0,1-.9,1.72-2.31,1.72a2.78,2.78,0,0,1-1.69-.5,1.42,1.42,0,0,1-.55-.82Z"/><path class="cls-4" d="M834.12,86a6.29,6.29,0,0,1,3.2.86,6.4,6.4,0,0,1,2.34,2.34,6.25,6.25,0,0,1,.85,3.19v2a2.27,2.27,0,0,1-2.29,2.29H821.43a2.29,2.29,0,0,1-2.29-2.29v-2a6.26,6.26,0,0,1,.86-3.19,6.41,6.41,0,0,1,5.54-3.2h.81a8.35,8.35,0,0,0,7,0Zm-4.29-1.53a6.08,6.08,0,0,1-3.08-.81,6.06,6.06,0,0,1-3-5.29,6.08,6.08,0,0,1,.81-3.08,6,6,0,0,1,2.22-2.22,6.26,6.26,0,0,1,6.16,0,6,6,0,0,1,2.21,2.22,6.08,6.08,0,0,1,.81,3.08,6,6,0,0,1-.81,3.07,6,6,0,0,1-2.21,2.22A6.08,6.08,0,0,1,829.83,84.49Z"/><path d="M752.43,124a3,3,0,0,1-.65,1.39,2.19,2.19,0,0,1-1.75.76,2.21,2.21,0,0,1-1.78-.79,4.08,4.08,0,0,1-.86-2.66c0-2,1.06-3.32,2.7-3.32a2.32,2.32,0,0,1,2.34,2.09l-.76.15c-.32-1.08-.79-1.54-1.59-1.54-1.13,0-1.81,1-1.81,2.71s.7,2.67,1.78,2.67a1.52,1.52,0,0,0,1.2-.6,2.65,2.65,0,0,0,.44-1Z"/><path d="M753.38,126.05v-6.51h.76v6.51Z"/><path d="M756.4,120.37h-.81v-.83h.81Zm0,5.68h-.75v-4.81h.75Z"/><path d="M761.38,124.48a1.93,1.93,0,0,1-.56,1.18,1.68,1.68,0,0,1-1.3.52c-1.23,0-2-1-2-2.53s.82-2.54,2.07-2.54a1.78,1.78,0,0,1,1.82,1.68l-.67.13a1.66,1.66,0,0,0-.25-.73,1.1,1.1,0,0,0-.91-.46c-.79,0-1.28.73-1.28,1.9s.47,1.94,1.27,1.94c.6,0,1-.41,1.17-1.2Z"/><path d="M765.54,126.05l-1.4-2.68-1,1.2v1.48h-.75v-6.51h.75v4.17l2.24-2.47h.8l-1.5,1.7,1.7,3.11Z"/><path d="M770.87,124.77a2.07,2.07,0,0,1-2,1.41,2.24,2.24,0,0,1-2.21-2.51,2.31,2.31,0,0,1,2.24-2.56,1.93,1.93,0,0,1,1.81,1.12,3.27,3.27,0,0,1,.29,1.48h-3.51a2.19,2.19,0,0,0,.2,1.12,1.38,1.38,0,0,0,1.23.74,1.32,1.32,0,0,0,1-.44,1.75,1.75,0,0,0,.3-.51Zm-.73-1.62a1.47,1.47,0,0,0-.28-1,1.13,1.13,0,0,0-1-.51,1.32,1.32,0,0,0-1,.5,1.67,1.67,0,0,0-.34,1Z"/><path d="M775.83,126.05h-.68v-.82a1.6,1.6,0,0,1-1.53,1c-1.13,0-1.93-1-1.93-2.5s.81-2.58,2-2.58a1.62,1.62,0,0,1,1.42.78v-2.35h.75Zm-.75-3a1.47,1.47,0,0,0-.28-.89,1.31,1.31,0,0,0-1-.5c-.77,0-1.27.74-1.27,1.88s.46,2,1.24,2a1.35,1.35,0,0,0,1-.49,1.55,1.55,0,0,0,.35-1Z"/><path d="M782,126.13a4.12,4.12,0,0,1-.71.06c-.91,0-1.38-.5-1.38-1.46v-2.9H779v-.59h.85l0-1.21.7-.06v1.27h1.08v.59H780.6v3a.68.68,0,0,0,.78.76,2.77,2.77,0,0,0,.58-.06Z"/><path d="M785.77,126.05v-2.92a2.08,2.08,0,0,0-.1-.86.89.89,0,0,0-.84-.54,1.29,1.29,0,0,0-.94.46,1.78,1.78,0,0,0-.4,1.27v2.59h-.75v-6.51h.75v2.59a1.56,1.56,0,0,1,1.48-1,1.49,1.49,0,0,1,1.26.64,2,2,0,0,1,.29,1.39v2.92Z"/><path d="M788,126.05v-4.81h.65v1.12a3.43,3.43,0,0,1,.5-.84,1.26,1.26,0,0,1,1-.42l.27,0v.72a1.54,1.54,0,0,0-1.62,1.67v2.54Z"/><path d="M795,123.7a2.28,2.28,0,0,1-2.23,2.48c-1.26,0-2.1-1-2.1-2.55a2.26,2.26,0,0,1,2.18-2.52C794.2,121.11,795,122.13,795,123.7Zm-3.18-1.44a2.46,2.46,0,0,0-.33,1.36c0,1.24.49,1.95,1.34,1.95s1.35-.72,1.35-1.91a2.36,2.36,0,0,0-.34-1.41,1.29,1.29,0,0,0-1-.52A1.25,1.25,0,0,0,791.86,122.26Z"/><path d="M799.28,126.05v-.91a1.66,1.66,0,0,1-1.53,1c-1,0-1.59-.7-1.59-1.86v-3.08h.76v3.08a1.31,1.31,0,0,0,.24.91.9.9,0,0,0,.7.34A1.5,1.5,0,0,0,799.2,124v-2.72H800v4.81Z"/><path d="M805.32,121.08c-.65,0-.85.12-.92.55a1.76,1.76,0,0,1,.46,1.16,1.67,1.67,0,0,1-1.85,1.6l-.33,0-.31-.05a.51.51,0,0,0-.51.46.38.38,0,0,0,.24.35,3.66,3.66,0,0,0,1.25.12c1,0,1.32.08,1.62.29a1.07,1.07,0,0,1,.53.95c0,.91-.82,1.38-2.42,1.38-1.44,0-2.2-.44-2.2-1.27a1,1,0,0,1,.73-1,.85.85,0,0,1-.46-.78c0-.39.17-.61.66-.85a1.54,1.54,0,0,1-.63-1.28,1.71,1.71,0,0,1,1.84-1.64,2.12,2.12,0,0,1,1,.23,1,1,0,0,1,.3-.63c.17-.16.36-.21.81-.21h.2Zm-3.72,5.44a.53.53,0,0,0,.18.41,2.21,2.21,0,0,0,1.36.36,3.78,3.78,0,0,0,1.14-.17.64.64,0,0,0,.51-.6.48.48,0,0,0-.33-.46,2.76,2.76,0,0,0-1.17-.13c-.48,0-.93,0-1.16-.07C801.73,126.05,801.6,126.22,801.6,126.52Zm.36-3.76a1.07,1.07,0,0,0,2.14,0,1,1,0,0,0-1.06-1.09A1,1,0,0,0,802,122.76Z"/><path d="M809.21,126.05v-2.92a2.34,2.34,0,0,0-.09-.86.89.89,0,0,0-.84-.54,1.26,1.26,0,0,0-.94.46,1.78,1.78,0,0,0-.4,1.27v2.59h-.75v-6.51h.75v2.59a1.56,1.56,0,0,1,1.47-1,1.47,1.47,0,0,1,1.26.64c.25.35.3.59.3,1.39v2.92Z"/><path d="M815.9,121.83h-1.18v4.22H814v-4.22h-.85v-.59H814a2.76,2.76,0,0,1,.16-1.07,1.27,1.27,0,0,1,1.28-.77,4.5,4.5,0,0,1,.71.07v.61a1.37,1.37,0,0,0-.45-.07c-.5,0-.81.16-.92.46s-.09.24-.09.77h1.18Z"/><path d="M816.83,126.05v-4.81h.66v1.12a3.43,3.43,0,0,1,.5-.84,1.26,1.26,0,0,1,.94-.42l.28,0v.72a1.54,1.54,0,0,0-1.62,1.67v2.54Z"/><path d="M823.86,123.7a2.28,2.28,0,0,1-2.23,2.48c-1.26,0-2.1-1-2.1-2.55a2.26,2.26,0,0,1,2.18-2.52C823,121.11,823.86,122.13,823.86,123.7Zm-3.18-1.44a2.46,2.46,0,0,0-.33,1.36c0,1.24.49,1.95,1.34,1.95s1.35-.72,1.35-1.91a2.36,2.36,0,0,0-.34-1.41,1.29,1.29,0,0,0-1-.52A1.25,1.25,0,0,0,820.68,122.26Z"/><path d="M830.71,126.05v-3a1.39,1.39,0,0,0-.16-.88.91.91,0,0,0-.77-.43,1.17,1.17,0,0,0-.86.42,1.52,1.52,0,0,0-.37,1.16v2.71h-.73v-3.16a1.19,1.19,0,0,0-.22-.81,1,1,0,0,0-.72-.35,1.31,1.31,0,0,0-1.18,1.44v2.88H825v-4.81h.65v.93a1.63,1.63,0,0,1,1.48-1.06,1.36,1.36,0,0,1,1.35,1.16,1.65,1.65,0,0,1,1.52-1.16,1.44,1.44,0,0,1,1.23.69,2.15,2.15,0,0,1,.23,1.27v3Z"/><path d="M841.1,126.05v-3a1.39,1.39,0,0,0-.16-.88.9.9,0,0,0-.77-.43,1.2,1.2,0,0,0-.86.42,1.56,1.56,0,0,0-.37,1.16v2.71h-.72v-3.16a1.19,1.19,0,0,0-.23-.81.94.94,0,0,0-.72-.35,1.31,1.31,0,0,0-1.18,1.44v2.88h-.71v-4.81H836v.93a1.63,1.63,0,0,1,1.49-1.06,1.35,1.35,0,0,1,1.34,1.16,1.66,1.66,0,0,1,1.53-1.16,1.46,1.46,0,0,1,1.23.69,2.25,2.25,0,0,1,.22,1.27v3Z"/><path d="M847.27,123.7a2.27,2.27,0,0,1-2.22,2.48c-1.26,0-2.1-1-2.1-2.55a2.26,2.26,0,0,1,2.18-2.52C846.43,121.11,847.27,122.13,847.27,123.7Zm-3.17-1.44a2.46,2.46,0,0,0-.33,1.36c0,1.24.49,1.95,1.34,1.95s1.34-.72,1.34-1.91a2.29,2.29,0,0,0-.34-1.41,1.22,1.22,0,0,0-2,0Z"/><path d="M851.5,126.05V123c0-.78-.36-1.2-1-1.2a1.48,1.48,0,0,0-1.35,1.65v2.64h-.75v-4.81h.69v.89c.5-.76.88-1,1.55-1A1.53,1.53,0,0,1,852,122a3,3,0,0,1,.18,1.32v2.78Z"/><path d="M855.87,126.13a4.12,4.12,0,0,1-.71.06c-.91,0-1.38-.5-1.38-1.46v-2.9h-.85v-.59h.85l0-1.21.7-.06v1.27h1.09v.59h-1.09v3a.69.69,0,0,0,.79.76,2.68,2.68,0,0,0,.57-.06Z"/><path d="M859.68,126.05v-2.92a2.08,2.08,0,0,0-.1-.86.87.87,0,0,0-.84-.54,1.25,1.25,0,0,0-.93.46,1.73,1.73,0,0,0-.4,1.27v2.59h-.76v-6.51h.76v2.59a1.56,1.56,0,0,1,1.47-1,1.47,1.47,0,0,1,1.26.64,2,2,0,0,1,.29,1.39v2.92Z"/><path d="M861.93,126.05v-6.51h.75v6.51Z"/><path d="M865.5,126.62a1.88,1.88,0,0,1-.66,1,1.28,1.28,0,0,1-.75.18,2.59,2.59,0,0,1-.57-.07v-.6a2.25,2.25,0,0,0,.5.07.82.82,0,0,0,.76-.41,3.13,3.13,0,0,0,.32-.79l-1.67-4.73h.77l1.29,3.62,1.31-3.62h.64Z"/><path d="M873.73,126.05V123c0-.78-.35-1.2-1-1.2a1.47,1.47,0,0,0-1.34,1.65v2.64h-.76v-4.81h.7v.89c.5-.76.88-1,1.54-1a1.54,1.54,0,0,1,1.39.84,3.15,3.15,0,0,1,.17,1.32v2.78Z"/><path d="M879.8,124.77a2.08,2.08,0,0,1-2,1.41,2.24,2.24,0,0,1-2.2-2.51,2.31,2.31,0,0,1,2.23-2.56,2,2,0,0,1,1.82,1.12,3.28,3.28,0,0,1,.28,1.48h-3.5a2.32,2.32,0,0,0,.19,1.12,1.4,1.4,0,0,0,1.23.74,1.34,1.34,0,0,0,1-.44,1.56,1.56,0,0,0,.29-.51Zm-.74-1.62a1.47,1.47,0,0,0-.27-1,1.15,1.15,0,0,0-1-.51,1.29,1.29,0,0,0-1,.5,1.6,1.6,0,0,0-.34,1Z"/><path d="M885,126.05h-.6l-1.08-3.57-1,3.57h-.62l-1.44-4.81H881l1,3.58,1-3.58h.55l1.07,3.6,1.08-3.6h.61Z"/><path d="M887.37,124.66a1,1,0,0,0,.31.55,2,2,0,0,0,1.18.36c.68,0,1.14-.32,1.14-.78s-.29-.64-.83-.75l-1-.18c-.82-.16-1.3-.65-1.3-1.33,0-.85.72-1.42,1.82-1.42a1.75,1.75,0,0,1,1.89,1.22l-.68.15a1.2,1.2,0,0,0-1.23-.75c-.63,0-1,.28-1,.71s.25.58.75.68l.95.16c1,.18,1.47.65,1.47,1.43s-.79,1.47-2,1.47a2.35,2.35,0,0,1-1.64-.54,1.42,1.42,0,0,1-.49-.84Z"/><path d="M891.84,126.05v-6.51h.75v6.51Z"/><path d="M898,124.77a2.08,2.08,0,0,1-2,1.41,2.24,2.24,0,0,1-2.21-2.51,2.31,2.31,0,0,1,2.24-2.56,1.93,1.93,0,0,1,1.81,1.12,3.15,3.15,0,0,1,.28,1.48h-3.5a2.32,2.32,0,0,0,.19,1.12,1.4,1.4,0,0,0,1.23.74,1.32,1.32,0,0,0,1-.44,1.56,1.56,0,0,0,.29-.51Zm-.74-1.62a1.47,1.47,0,0,0-.27-1,1.15,1.15,0,0,0-1-.51,1.31,1.31,0,0,0-1,.5,1.67,1.67,0,0,0-.34,1Z"/><path d="M901.28,126.13a4.12,4.12,0,0,1-.71.06c-.91,0-1.38-.5-1.38-1.46v-2.9h-.85v-.59h.85l0-1.21.7-.06v1.27H901v.59h-1.09v3a.69.69,0,0,0,.78.76,2.71,2.71,0,0,0,.58-.06Z"/><path d="M904.48,126.13a4,4,0,0,1-.71.06c-.91,0-1.38-.5-1.38-1.46v-2.9h-.85v-.59h.85l0-1.21.71-.06v1.27h1.08v.59h-1.08v3a.68.68,0,0,0,.78.76,2.68,2.68,0,0,0,.57-.06Z"/><path d="M909,124.77a2.08,2.08,0,0,1-2,1.41,2.24,2.24,0,0,1-2.2-2.51,2.31,2.31,0,0,1,2.23-2.56,2,2,0,0,1,1.82,1.12,3.28,3.28,0,0,1,.28,1.48h-3.5a2.32,2.32,0,0,0,.19,1.12,1.4,1.4,0,0,0,1.23.74,1.34,1.34,0,0,0,1-.44,1.56,1.56,0,0,0,.29-.51Zm-.74-1.62a1.47,1.47,0,0,0-.27-1,1.15,1.15,0,0,0-1-.51,1.29,1.29,0,0,0-1,.5,1.6,1.6,0,0,0-.34,1Z"/><path d="M910.22,126.05v-4.81h.65v1.12a4.22,4.22,0,0,1,.5-.84,1.3,1.3,0,0,1,1-.42l.27,0v.72a1.54,1.54,0,0,0-1.62,1.67v2.54Z"/><path d="M771.66,137.78h-.83l-1.41-5.05-1.33,5.05h-.83l-1.65-6.52h.84l1.31,5.28,1.39-5.28h.65l1.49,5.28,1.21-5.28h.72Z"/><path d="M777,137.78a5.68,5.68,0,0,1-.09-.87,1.7,1.7,0,0,1-1.69,1,1.48,1.48,0,0,1-.87-2.78,4.34,4.34,0,0,1,1.94-.35c.17,0,.32,0,.62,0v-.16c0-.9-.34-1.24-1.26-1.24a1.16,1.16,0,0,0-1.29.88l-.69-.11a1.29,1.29,0,0,1,.36-.76,2.42,2.42,0,0,1,1.79-.58,1.72,1.72,0,0,1,1.49.56,2.21,2.21,0,0,1,.33,1.41v2a3.93,3.93,0,0,0,.1.94Zm-.72-2.43c-1.25,0-1.94.39-1.94,1.12,0,.52.41.86,1,.86a1.58,1.58,0,0,0,1.55-1.65c0-.09,0-.19,0-.31Z"/><path d="M781.16,137.86a4.12,4.12,0,0,1-.71.06c-.91,0-1.38-.5-1.38-1.47v-2.9h-.85V133h.85l0-1.21.7-.06V133h1.09v.59H779.8v3c0,.5.27.75.79.75a2.68,2.68,0,0,0,.57-.06Z"/><path d="M785.36,136.21a2,2,0,0,1-.56,1.18,1.74,1.74,0,0,1-1.3.52c-1.23,0-2-1-2-2.53s.82-2.54,2.07-2.54a1.77,1.77,0,0,1,1.82,1.68l-.67.12a1.58,1.58,0,0,0-.26-.73,1.09,1.09,0,0,0-.9-.46c-.79,0-1.28.73-1.28,1.91s.47,1.93,1.27,1.93c.6,0,1-.41,1.17-1.2Z"/><path d="M789.35,137.78v-2.92a2.1,2.1,0,0,0-.1-.87.91.91,0,0,0-.84-.54,1.33,1.33,0,0,0-.94.46,1.78,1.78,0,0,0-.4,1.27v2.6h-.75v-6.52h.75v2.59a1.55,1.55,0,0,1,1.48-1,1.47,1.47,0,0,1,1.26.63,2.07,2.07,0,0,1,.29,1.4v2.92Z"/><path d="M795.46,136.49a2.06,2.06,0,0,1-2,1.42,2.24,2.24,0,0,1-2.2-2.51,2.3,2.3,0,0,1,2.23-2.56,2,2,0,0,1,1.82,1.11,3.42,3.42,0,0,1,.28,1.48h-3.5a2.28,2.28,0,0,0,.19,1.13,1.38,1.38,0,0,0,1.23.73,1.35,1.35,0,0,0,1-.44,1.86,1.86,0,0,0,.29-.51Zm-.73-1.61a1.54,1.54,0,0,0-.27-1,1.16,1.16,0,0,0-1-.51,1.29,1.29,0,0,0-1,.5,1.61,1.61,0,0,0-.35,1Z"/><path d="M800.43,137.78h-.69V137a1.61,1.61,0,0,1-1.52,1c-1.13,0-1.93-1-1.93-2.5s.81-2.58,2-2.58a1.58,1.58,0,0,1,1.41.78v-2.36h.76Zm-.76-3a1.37,1.37,0,0,0-.28-.89,1.31,1.31,0,0,0-1-.5c-.78,0-1.27.74-1.27,1.89s.46,2,1.24,2a1.32,1.32,0,0,0,1-.49,1.42,1.42,0,0,0,.35-1Z"/><path d="M805.52,134.07h.74c1,0,1.51-.41,1.51-1.15a1.2,1.2,0,0,0-1.35-1.14,1.7,1.7,0,0,0-1.17.45,1.56,1.56,0,0,0-.36.61l-.74-.21a2.11,2.11,0,0,1,.73-1,2.58,2.58,0,0,1,1.6-.49,1.89,1.89,0,0,1,2.12,1.73,1.48,1.48,0,0,1-1.25,1.48,1.63,1.63,0,0,1,1.51,1.62c0,1.15-1,1.94-2.47,1.94a2.72,2.72,0,0,1-1.72-.54,2,2,0,0,1-.75-1.05l.76-.25a1.56,1.56,0,0,0,.46.79,2,2,0,0,0,1.28.38,1.73,1.73,0,0,0,1.22-.39A1.19,1.19,0,0,0,808,136c0-.79-.66-1.27-1.75-1.27h-.74Z"/><path d="M814.48,137.78h-4.61v-.68c1.42-1.06,1.42-1.06,2.14-1.67,1.27-1.06,1.64-1.58,1.64-2.32a1.38,1.38,0,0,0-1.46-1.33,1.56,1.56,0,0,0-1.25.63,1.45,1.45,0,0,0-.31.87l-.76-.24a2.25,2.25,0,0,1,2.33-1.9,2.07,2.07,0,0,1,2.26,2c0,.91-.44,1.56-1.85,2.71-.56.45-1.07.84-1.72,1.29h3.59Z"/><path d="M818.34,136.38a1,1,0,0,0,.32.55,2,2,0,0,0,1.18.36c.67,0,1.13-.31,1.13-.78s-.28-.64-.83-.74l-1-.19c-.82-.16-1.3-.64-1.3-1.33,0-.85.72-1.41,1.81-1.41a1.76,1.76,0,0,1,1.9,1.22l-.69.14a1.19,1.19,0,0,0-1.23-.75c-.62,0-1,.29-1,.72s.24.57.75.67l.95.16c1,.18,1.46.65,1.46,1.43s-.79,1.48-2,1.48a2.4,2.4,0,0,1-1.64-.54,1.52,1.52,0,0,1-.5-.84Z"/><path d="M826.69,136.49a2.08,2.08,0,0,1-2.05,1.42,2.25,2.25,0,0,1-2.2-2.51,2.3,2.3,0,0,1,2.23-2.56,2,2,0,0,1,1.82,1.11,3.28,3.28,0,0,1,.28,1.48h-3.5a2.4,2.4,0,0,0,.19,1.13,1.39,1.39,0,0,0,1.23.73,1.34,1.34,0,0,0,1-.44,1.63,1.63,0,0,0,.29-.51Zm-.74-1.61a1.48,1.48,0,0,0-.27-1,1.15,1.15,0,0,0-1-.51,1.29,1.29,0,0,0-1,.5,1.61,1.61,0,0,0-.34,1Z"/><path d="M831.41,136.21a2,2,0,0,1-.56,1.18,1.71,1.71,0,0,1-1.3.52c-1.23,0-2-1-2-2.53s.82-2.54,2.07-2.54a1.77,1.77,0,0,1,1.82,1.68l-.67.12a1.71,1.71,0,0,0-.25-.73,1.12,1.12,0,0,0-.91-.46c-.79,0-1.28.73-1.28,1.91s.47,1.93,1.27,1.93c.6,0,1-.41,1.17-1.2Z"/><path d="M836.4,135.42a2.28,2.28,0,0,1-2.23,2.49c-1.26,0-2.1-1-2.1-2.55a2.25,2.25,0,0,1,2.18-2.52C835.56,132.84,836.4,133.85,836.4,135.42ZM833.22,134a2.47,2.47,0,0,0-.33,1.37c0,1.24.49,1.94,1.34,1.94s1.35-.71,1.35-1.9a2.3,2.3,0,0,0-.35-1.42,1.22,1.22,0,0,0-2,0Z"/><path d="M840.62,137.78v-3.1c0-.78-.35-1.2-1-1.2a1.48,1.48,0,0,0-1.35,1.65v2.65h-.75V133h.69v.89c.5-.76.88-1,1.55-1a1.51,1.51,0,0,1,1.38.84,2.89,2.89,0,0,1,.18,1.32v2.78Z"/><path d="M846.57,137.78h-.69V137a1.61,1.61,0,0,1-1.52,1c-1.13,0-1.93-1-1.93-2.5s.81-2.58,2-2.58a1.59,1.59,0,0,1,1.41.78v-2.36h.76Zm-.76-3a1.37,1.37,0,0,0-.28-.89,1.31,1.31,0,0,0-1-.5c-.78,0-1.27.74-1.27,1.89s.46,2,1.24,2a1.32,1.32,0,0,0,1-.49,1.42,1.42,0,0,0,.35-1Z"/><path d="M848.13,136.38a1,1,0,0,0,.31.55,2,2,0,0,0,1.18.36c.68,0,1.14-.31,1.14-.78s-.29-.64-.83-.74l-1-.19c-.82-.16-1.3-.64-1.3-1.33,0-.85.73-1.41,1.82-1.41a1.74,1.74,0,0,1,1.89,1.22l-.68.14a1.19,1.19,0,0,0-1.23-.75c-.62,0-1,.29-1,.72s.24.57.75.67l.94.16c1,.18,1.47.65,1.47,1.43s-.79,1.48-2,1.48a2.38,2.38,0,0,1-1.64-.54,1.46,1.46,0,0,1-.5-.84Z"/><path d="M859,135.42a2.28,2.28,0,0,1-2.22,2.49c-1.26,0-2.1-1-2.1-2.55a2.25,2.25,0,0,1,2.17-2.52C858.15,132.84,859,133.85,859,135.42ZM855.82,134a2.39,2.39,0,0,0-.33,1.37c0,1.24.48,1.94,1.33,1.94s1.35-.71,1.35-1.9a2.38,2.38,0,0,0-.34-1.42,1.29,1.29,0,0,0-1-.52A1.24,1.24,0,0,0,855.82,134Z"/><path d="M862.11,133.55h-1.17v4.23h-.7v-4.23h-.85V133h.85a2.8,2.8,0,0,1,.16-1.07,1.27,1.27,0,0,1,1.28-.76,4.5,4.5,0,0,1,.71.07v.6a1.34,1.34,0,0,0-.45-.07c-.49,0-.81.16-.91.46s-.09.25-.09.77h1.17Z"/><path d="M867.7,134.24l2.09,3.54h-.92L867.22,135l-1.7,2.78h-.76l2.09-3.37L865,131.26h.91l1.44,2.42,1.45-2.42h.74Z"/><path d="M874.88,137.78h-.78L872.38,133h.83l1.34,3.92,1.32-3.92h.67Z"/><path d="M878.11,132.09h-.81v-.83h.81Zm0,5.69h-.75V133h.75Z"/><path d="M883.33,137.78h-.69V137a1.61,1.61,0,0,1-1.52,1c-1.13,0-1.93-1-1.93-2.5s.81-2.58,2-2.58a1.61,1.61,0,0,1,1.42.78v-2.36h.75Zm-.75-3a1.43,1.43,0,0,0-.29-.89,1.31,1.31,0,0,0-1-.5c-.78,0-1.27.74-1.27,1.89s.46,2,1.24,2a1.32,1.32,0,0,0,1-.49,1.47,1.47,0,0,0,.36-1Z"/><path d="M888.7,136.49a2.06,2.06,0,0,1-2,1.42,2.25,2.25,0,0,1-2.21-2.51,2.3,2.3,0,0,1,2.24-2.56A1.94,1.94,0,0,1,888.5,134a3.27,3.27,0,0,1,.29,1.48h-3.51a2.26,2.26,0,0,0,.2,1.13,1.37,1.37,0,0,0,1.23.73,1.32,1.32,0,0,0,1-.44,1.62,1.62,0,0,0,.3-.51Zm-.73-1.61a1.48,1.48,0,0,0-.28-1,1.13,1.13,0,0,0-1-.51,1.32,1.32,0,0,0-1,.5,1.67,1.67,0,0,0-.34,1Z"/><path d="M893.86,135.42a2.28,2.28,0,0,1-2.23,2.49c-1.26,0-2.1-1-2.1-2.55a2.25,2.25,0,0,1,2.18-2.52C893,132.84,893.86,133.85,893.86,135.42ZM890.68,134a2.47,2.47,0,0,0-.33,1.37c0,1.24.49,1.94,1.34,1.94s1.35-.71,1.35-1.9a2.38,2.38,0,0,0-.34-1.42,1.32,1.32,0,0,0-1-.52A1.28,1.28,0,0,0,890.68,134Z"/><path d="M747.68,143h2.18a2.59,2.59,0,0,1,1.93.71,3.4,3.4,0,0,1,1,2.52c0,1.88-1.12,3.28-2.65,3.28h-2.45Zm2.14,5.82a2,2,0,0,0,1.43-.54,3,3,0,0,0,.7-2.05,2.93,2.93,0,0,0-.68-2,1.85,1.85,0,0,0-1.46-.57h-1.32v5.14Z"/><path d="M757.9,147.15a2.28,2.28,0,0,1-2.23,2.48c-1.26,0-2.1-1-2.1-2.55a2.25,2.25,0,0,1,2.18-2.52C757.06,144.56,757.9,145.58,757.9,147.15Zm-3.17-1.45a2.39,2.39,0,0,0-.34,1.37c0,1.24.49,1.94,1.34,1.94s1.35-.71,1.35-1.9a2.38,2.38,0,0,0-.34-1.42,1.32,1.32,0,0,0-1-.52A1.24,1.24,0,0,0,754.73,145.7Z"/><path d="M762.12,149.5v-3.09c0-.79-.35-1.21-1-1.21a1.48,1.48,0,0,0-1.34,1.65v2.65H759v-4.81h.69v.89c.5-.77.88-1,1.54-1a1.51,1.51,0,0,1,1.39.84,2.94,2.94,0,0,1,.17,1.32v2.78Z"/><path d="M767.35,149.5a5.52,5.52,0,0,1-.09-.87,1.7,1.7,0,0,1-1.69,1,1.48,1.48,0,0,1-.87-2.78,4.29,4.29,0,0,1,1.93-.35c.18,0,.33,0,.63,0v-.15c0-.91-.34-1.24-1.26-1.24a1.15,1.15,0,0,0-1.29.87l-.69-.11a1.21,1.21,0,0,1,.36-.75,2.43,2.43,0,0,1,1.79-.59,1.73,1.73,0,0,1,1.49.57,2.22,2.22,0,0,1,.32,1.4v2a3.42,3.42,0,0,0,.11.94Zm-.73-2.43c-1.24,0-1.93.39-1.93,1.12,0,.52.4.86,1,.86a1.58,1.58,0,0,0,1.55-1.65c0-.09,0-.18,0-.31Z"/><path d="M771.56,149.58a4.12,4.12,0,0,1-.71.06c-.91,0-1.38-.5-1.38-1.47v-2.9h-.85v-.58h.85l0-1.21.7-.06v1.27h1.09v.58H770.2v3q0,.75.78.75a2.77,2.77,0,0,0,.58-.06Z"/><path d="M776.08,148.21a2.06,2.06,0,0,1-2,1.42,2.25,2.25,0,0,1-2.21-2.51,2.3,2.3,0,0,1,2.24-2.56,2,2,0,0,1,1.82,1.11,3.44,3.44,0,0,1,.28,1.49h-3.51a2.22,2.22,0,0,0,.2,1.12,1.37,1.37,0,0,0,1.23.73,1.28,1.28,0,0,0,1-.44,1.55,1.55,0,0,0,.3-.5Zm-.73-1.61a1.56,1.56,0,0,0-.27-1,1.16,1.16,0,0,0-1-.5,1.31,1.31,0,0,0-1,.49,1.7,1.7,0,0,0-.34,1Z"/><path d="M781,149.5h-.68v-.82a1.61,1.61,0,0,1-1.52,1c-1.14,0-1.94-1-1.94-2.5s.81-2.58,2-2.58a1.59,1.59,0,0,1,1.41.78V143H781Zm-.75-3a1.49,1.49,0,0,0-.28-.89,1.34,1.34,0,0,0-1-.49c-.77,0-1.27.74-1.27,1.88s.46,2,1.24,2a1.29,1.29,0,0,0,1-.49,1.5,1.5,0,0,0,.35-1Z"/><path d="M786.74,150.21v-.91a2.19,2.19,0,0,1-2-1.5l.64-.25a1.57,1.57,0,0,0,1.4,1.09v-2.22a3.37,3.37,0,0,1-1.1-.4,1.42,1.42,0,0,1-.68-1.25,1.55,1.55,0,0,1,.84-1.39,2.76,2.76,0,0,1,.94-.28v-.79h.58v.79a2,2,0,0,1,1.84,1.25l-.64.22a1.25,1.25,0,0,0-1.2-.84v2a4.39,4.39,0,0,1,1.13.36,1.62,1.62,0,0,1,.84,1.42,1.69,1.69,0,0,1-.88,1.46,2.83,2.83,0,0,1-1.09.29v.91Zm0-6.48c-.69.08-1.08.42-1.08,1s.34.85,1.08,1Zm.58,4.91c.78,0,1.24-.43,1.24-1a.92.92,0,0,0-.44-.79,1.87,1.87,0,0,0-.8-.26Z"/><path d="M795.1,149.5h-4.62v-.67c1.43-1.07,1.43-1.07,2.15-1.67,1.27-1.07,1.64-1.58,1.64-2.33a1.38,1.38,0,0,0-1.46-1.33,1.56,1.56,0,0,0-1.25.63,1.45,1.45,0,0,0-.32.87l-.76-.24a2.42,2.42,0,0,1,.58-1.18,2.3,2.3,0,0,1,1.76-.72,2.07,2.07,0,0,1,2.26,2c0,.91-.45,1.57-1.85,2.71-.56.46-1.07.84-1.72,1.3h3.59Z"/><path d="M802.18,149.5v-3a1.53,1.53,0,0,0-.15-.88.93.93,0,0,0-.77-.43,1.2,1.2,0,0,0-.86.42,1.56,1.56,0,0,0-.37,1.17v2.71h-.73v-3.16a1.22,1.22,0,0,0-.22-.81.94.94,0,0,0-.72-.36,1.33,1.33,0,0,0-1.19,1.45v2.88h-.71v-4.81h.65v.92a1.63,1.63,0,0,1,1.48-1.05,1.37,1.37,0,0,1,1.35,1.15,1.65,1.65,0,0,1,1.52-1.15,1.43,1.43,0,0,1,1.23.68,2.19,2.19,0,0,1,.23,1.27v3Z"/><path d="M805.18,143.82h-.81V143h.81Zm0,5.68h-.76v-4.81h.76Z"/><path d="M806.65,149.5V143h.75v6.51Z"/><path d="M808.9,149.5V143h.75v6.51Z"/><path d="M811.92,143.82h-.81V143h.81Zm0,5.68h-.76v-4.81h.76Z"/><path d="M817.33,147.15a2.28,2.28,0,0,1-2.23,2.48c-1.26,0-2.1-1-2.1-2.55a2.25,2.25,0,0,1,2.18-2.52C816.49,144.56,817.33,145.58,817.33,147.15Zm-3.18-1.45a2.47,2.47,0,0,0-.33,1.37c0,1.24.49,1.94,1.34,1.94s1.35-.71,1.35-1.9a2.3,2.3,0,0,0-.35-1.42,1.22,1.22,0,0,0-2,0Z"/><path d="M821.55,149.5v-3.09c0-.79-.35-1.21-1-1.21a1.48,1.48,0,0,0-1.35,1.65v2.65h-.75v-4.81h.69v.89c.5-.77.88-1,1.55-1a1.51,1.51,0,0,1,1.38.84,2.89,2.89,0,0,1,.18,1.32v2.78Z"/><path d="M828.37,149.58a4.22,4.22,0,0,1-.72.06c-.9,0-1.37-.5-1.37-1.47v-2.9h-.85v-.58h.85l0-1.21.7-.06v1.27h1.08v.58H827v3q0,.75.78.75a2.77,2.77,0,0,0,.58-.06Z"/><path d="M833,147.15a2.28,2.28,0,0,1-2.23,2.48c-1.26,0-2.1-1-2.1-2.55a2.25,2.25,0,0,1,2.18-2.52C832.15,144.56,833,145.58,833,147.15Zm-3.18-1.45a2.47,2.47,0,0,0-.33,1.37c0,1.24.49,1.94,1.34,1.94s1.35-.71,1.35-1.9a2.3,2.3,0,0,0-.35-1.42,1.22,1.22,0,0,0-2,0Z"/><path d="M836.61,143h2.58a2.06,2.06,0,0,1,1.22.3,1.51,1.51,0,0,1,.69,1.29,1.53,1.53,0,0,1-.45,1.1,1.69,1.69,0,0,1-.7.36,1.73,1.73,0,0,1,.83.42,1.77,1.77,0,0,1-.3,2.75,2.41,2.41,0,0,1-1.3.29h-2.57Zm2.21,2.79a1.71,1.71,0,0,0,1.07-.24,1.09,1.09,0,0,0,.4-.87c0-.65-.46-1-1.27-1H837.4v2.13Zm.33,3c.83,0,1.33-.42,1.33-1.13a1.31,1.31,0,0,0-.34-.89,1.35,1.35,0,0,0-1.11-.37H837.4v2.39Z"/><path d="M845.58,149.5v-.92a1.66,1.66,0,0,1-1.53,1c-1,0-1.59-.71-1.59-1.87v-3.07h.76v3.07a1.34,1.34,0,0,0,.24.92.9.9,0,0,0,.7.33,1.49,1.49,0,0,0,1.34-1.61v-2.71h.75v4.81Z"/><path d="M848.52,143.82h-.81V143h.81Zm0,5.68h-.75v-4.81h.75Z"/><path d="M850,149.5V143h.75v6.51Z"/><path d="M856,149.5h-.68v-.82a1.61,1.61,0,0,1-1.52,1c-1.14,0-1.94-1-1.94-2.5s.81-2.58,2-2.58a1.59,1.59,0,0,1,1.41.78V143H856Zm-.75-3a1.49,1.49,0,0,0-.28-.89,1.34,1.34,0,0,0-1-.49c-.77,0-1.27.74-1.27,1.88s.46,2,1.24,2a1.3,1.3,0,0,0,1-.49,1.5,1.5,0,0,0,.35-1Z"/><path d="M858.26,143.82h-.81V143h.81Zm0,5.68h-.75v-4.81h.75Z"/><path d="M862.82,149.5v-3.09c0-.79-.35-1.21-1-1.21a1.48,1.48,0,0,0-1.35,1.65v2.65h-.75v-4.81h.69v.89c.5-.77.88-1,1.54-1a1.51,1.51,0,0,1,1.39.84,2.89,2.89,0,0,1,.18,1.32v2.78Z"/><path d="M868.85,144.53c-.64,0-.85.12-.92.55a1.76,1.76,0,0,1,.46,1.16,1.87,1.87,0,0,1-2.18,1.57l-.31-.05a.53.53,0,0,0-.51.46.36.36,0,0,0,.25.35,3.46,3.46,0,0,0,1.25.13c1,0,1.32.08,1.62.28a1.11,1.11,0,0,1,.53,1c0,.91-.83,1.38-2.43,1.38-1.43,0-2.19-.44-2.19-1.27a1,1,0,0,1,.73-1,.87.87,0,0,1-.47-.78c0-.39.18-.62.66-.85a1.53,1.53,0,0,1-.62-1.28,1.7,1.7,0,0,1,1.83-1.64,2.18,2.18,0,0,1,1,.22,1.07,1.07,0,0,1,.3-.62c.17-.17.37-.22.81-.22h.2ZM865.14,150a.57.57,0,0,0,.17.41,2.32,2.32,0,0,0,1.36.36,4.13,4.13,0,0,0,1.14-.17.63.63,0,0,0,.51-.6.48.48,0,0,0-.33-.46c-.23-.11-.32-.12-1.16-.14-.49,0-.94,0-1.16-.06C865.27,149.5,865.14,149.67,865.14,150Zm.35-3.76a1,1,0,0,0,1.07,1,1,1,0,0,0,1.08-1,1,1,0,0,0-1.07-1.09A1,1,0,0,0,865.49,146.21Z"/><path d="M876.87,147.48a3.06,3.06,0,0,1-.66,1.39,2.2,2.2,0,0,1-1.74.76,2.27,2.27,0,0,1-1.79-.79,4.1,4.1,0,0,1-.86-2.66c0-2,1.06-3.32,2.71-3.32a2.31,2.31,0,0,1,2.34,2.09l-.76.15c-.32-1.09-.79-1.55-1.59-1.55-1.14,0-1.81,1-1.81,2.72s.69,2.66,1.78,2.66a1.53,1.53,0,0,0,1.2-.59,3,3,0,0,0,.44-1Z"/><path d="M880.91,149.5a8,8,0,0,1-.08-.87,1.7,1.7,0,0,1-1.69,1,1.48,1.48,0,0,1-.87-2.78,4.29,4.29,0,0,1,1.93-.35c.18,0,.32,0,.63,0v-.15c0-.91-.35-1.24-1.26-1.24-.73,0-1.17.3-1.29.87l-.7-.11a1.22,1.22,0,0,1,.37-.75,2.4,2.4,0,0,1,1.78-.59,1.75,1.75,0,0,1,1.5.57,2.22,2.22,0,0,1,.32,1.4v2a3.42,3.42,0,0,0,.11.94Zm-.72-2.43c-1.25,0-1.93.39-1.93,1.12,0,.52.4.86,1,.86a1.58,1.58,0,0,0,1.56-1.65c0-.09,0-.18,0-.31Z"/><path d="M888.78,149.5v-3a1.43,1.43,0,0,0-.16-.88.93.93,0,0,0-.77-.43,1.22,1.22,0,0,0-.86.42,1.6,1.6,0,0,0-.37,1.17v2.71h-.72v-3.16a1.17,1.17,0,0,0-.23-.81.92.92,0,0,0-.72-.36,1.32,1.32,0,0,0-1.18,1.45v2.88h-.72v-4.81h.65v.92a1.63,1.63,0,0,1,1.48-1.05,1.35,1.35,0,0,1,1.35,1.15,1.65,1.65,0,0,1,1.52-1.15,1.46,1.46,0,0,1,1.24.68,2.29,2.29,0,0,1,.22,1.27v3Z"/><path d="M890.88,151.13v-6.44h.67v.93a1.61,1.61,0,0,1,1.52-1.06c1.14,0,1.91,1,1.91,2.53s-.78,2.54-1.92,2.54a1.56,1.56,0,0,1-1.43-.86v2.36Zm.75-3.38a1.39,1.39,0,0,0,1.28,1.26,1.2,1.2,0,0,0,.89-.45,2.3,2.3,0,0,0,.36-1.42c0-1.21-.47-1.93-1.25-1.93a1.4,1.4,0,0,0-1.28,1.2Z"/><path d="M899.12,149.5a8,8,0,0,1-.08-.87,1.7,1.7,0,0,1-1.69,1,1.48,1.48,0,0,1-.87-2.78,4.29,4.29,0,0,1,1.93-.35c.18,0,.32,0,.63,0v-.15c0-.91-.35-1.24-1.26-1.24-.73,0-1.17.3-1.29.87l-.7-.11a1.22,1.22,0,0,1,.37-.75,2.4,2.4,0,0,1,1.78-.59,1.75,1.75,0,0,1,1.5.57,2.22,2.22,0,0,1,.32,1.4v2a3.42,3.42,0,0,0,.11.94Zm-.72-2.43c-1.25,0-1.93.39-1.93,1.12,0,.52.4.86,1,.86a1.58,1.58,0,0,0,1.56-1.65c0-.09,0-.18,0-.31Z"/><path d="M902,143.82h-.81V143H902Zm0,5.68h-.76v-4.81H902Z"/><path d="M907.37,144.53c-.65,0-.85.12-.92.55a1.76,1.76,0,0,1,.46,1.16,1.87,1.87,0,0,1-2.18,1.57l-.31-.05a.53.53,0,0,0-.51.46.36.36,0,0,0,.25.35,3.46,3.46,0,0,0,1.25.13c1,0,1.31.08,1.62.28a1.1,1.1,0,0,1,.52,1c0,.91-.82,1.38-2.42,1.38-1.43,0-2.19-.44-2.19-1.27a1,1,0,0,1,.73-1,.87.87,0,0,1-.47-.78c0-.39.18-.62.66-.85a1.53,1.53,0,0,1-.62-1.28,1.7,1.7,0,0,1,1.83-1.64,2.18,2.18,0,0,1,1,.22,1.07,1.07,0,0,1,.3-.62c.17-.17.36-.22.81-.22h.2ZM903.66,150a.57.57,0,0,0,.17.41,2.3,2.3,0,0,0,1.36.36,4.13,4.13,0,0,0,1.14-.17.63.63,0,0,0,.51-.6.48.48,0,0,0-.33-.46c-.23-.11-.32-.12-1.16-.14-.49,0-.94,0-1.16-.06C903.79,149.5,903.66,149.67,903.66,150Zm.35-3.76a1,1,0,0,0,1.07,1,1,1,0,0,0,1.08-1,1,1,0,0,0-1.07-1.09A1,1,0,0,0,904,146.21Z"/><path d="M911.34,149.5v-3.09c0-.79-.36-1.21-1-1.21a1.48,1.48,0,0,0-1.35,1.65v2.65h-.75v-4.81h.69v.89c.5-.77.88-1,1.55-1a1.51,1.51,0,0,1,1.38.84,2.89,2.89,0,0,1,.18,1.32v2.78Z"/><path class="cls-4" d="M807.88,225.8v-1.06H810v-4.53a6.65,6.65,0,0,1-1.95,1.3v-1.3a4.24,4.24,0,0,0,1.55-.8,3.57,3.57,0,0,0,.84-.92h.86v6.25h2v1.06Z"/><path class="cls-4" d="M815.18,224.2a2.39,2.39,0,0,0,.34.45,1.42,1.42,0,0,0,.87.29c1.07,0,1.68-1,1.69-2.85a2.23,2.23,0,0,1-.65.81,2.37,2.37,0,0,1-3.58-2,2.38,2.38,0,0,1,2.57-2.41,2.69,2.69,0,0,1,2.06.85,3.74,3.74,0,0,1,.85,2.65,4.8,4.8,0,0,1-.71,2.7,2.53,2.53,0,0,1-2.26,1.18,2.24,2.24,0,0,1-2.26-1.4Zm-.1-3.34a1.31,1.31,0,0,0,1.37,1.33,1.37,1.37,0,0,0,1.42-1.33,1.4,1.4,0,0,0-2.79,0Z"/><path class="cls-4" d="M825.5,225.8h-5.28v-1.26c.53-.34.72-.46,1.34-.89a10.12,10.12,0,0,0,1.91-1.41,1.86,1.86,0,0,0,.66-1.33,1.23,1.23,0,0,0-1.27-1.26c-.8,0-1.27.52-1.39,1.5l-1.25-.32a2.58,2.58,0,0,1,.66-1.42,2.49,2.49,0,0,1,2-.89,2.37,2.37,0,0,1,2.6,2.41,2.58,2.58,0,0,1-1.09,2,16,16,0,0,1-2.66,1.7h3.73Z"/><path class="cls-4" d="M827.92,225.8h-1.3v-1.38h1.3Z"/><path class="cls-4" d="M834.48,222.27a4.6,4.6,0,0,1-.6,2.38,2.36,2.36,0,0,1-2.19,1.25c-1.7,0-2.75-1.38-2.75-3.64a4.3,4.3,0,0,1,.75-2.69,2.33,2.33,0,0,1,2-1C833.42,218.52,834.48,220,834.48,222.27Zm-4.23-.09c0,1.86.45,2.71,1.44,2.71s1.46-.84,1.46-2.63a6.09,6.09,0,0,0-.25-1.86,1.17,1.17,0,0,0-1.18-.92C830.73,219.48,830.25,220.36,830.25,222.18Z"/><path class="cls-4" d="M836.76,225.8h-1.3v-1.38h1.3Z"/><path class="cls-4" d="M843.13,225.8h-5.27v-1.26c.52-.34.72-.46,1.34-.89a9.57,9.57,0,0,0,1.9-1.41,1.88,1.88,0,0,0,.67-1.33,1.23,1.23,0,0,0-1.27-1.26c-.81,0-1.28.52-1.4,1.5l-1.24-.32a2.66,2.66,0,0,1,2.69-2.31,2.37,2.37,0,0,1,2.6,2.41,2.57,2.57,0,0,1-1.08,2,17,17,0,0,1-2.67,1.7h3.73Z"/><path class="cls-4" d="M845.55,225.8h-1.3v-1.38h1.3Z"/><path class="cls-4" d="M846.93,225.8v-1.06h2.15v-4.53a6.52,6.52,0,0,1-2,1.3v-1.3a4.24,4.24,0,0,0,1.55-.8,3.86,3.86,0,0,0,.85-.92h.85v6.25h2v1.06Z"/><path class="cls-4" d="M834.12,205.21a6.28,6.28,0,0,1,3.2.85,6.56,6.56,0,0,1,2.34,2.34,6.28,6.28,0,0,1,.85,3.2v2a2.27,2.27,0,0,1-2.29,2.29H821.43a2.29,2.29,0,0,1-2.29-2.29v-2a6.29,6.29,0,0,1,.86-3.2,6.48,6.48,0,0,1,2.34-2.34,6.28,6.28,0,0,1,3.2-.85h.81a8.35,8.35,0,0,0,7,0Zm-4.29-1.53a6.08,6.08,0,0,1-3.08-.81,6,6,0,0,1-2.22-2.22,6.24,6.24,0,0,1,0-6.15,6,6,0,0,1,2.22-2.22,6.26,6.26,0,0,1,6.16,0,6,6,0,0,1,2.21,2.22,6.24,6.24,0,0,1,0,6.15,6,6,0,0,1-2.21,2.22A6.08,6.08,0,0,1,829.83,203.68Z"/><path d="M752.43,243.22a3.11,3.11,0,0,1-.65,1.39,2.4,2.4,0,0,1-3.53,0,4.12,4.12,0,0,1-.86-2.66c0-2,1.06-3.32,2.7-3.32a2.31,2.31,0,0,1,2.34,2.09l-.76.15c-.32-1.09-.79-1.55-1.59-1.55-1.13,0-1.81,1-1.81,2.72s.7,2.66,1.78,2.66a1.51,1.51,0,0,0,1.2-.59,2.7,2.7,0,0,0,.44-1Z"/><path d="M753.38,245.24v-6.51h.76v6.51Z"/><path d="M756.4,239.56h-.81v-.83h.81Zm0,5.68h-.75v-4.81h.75Z"/><path d="M761.38,243.67a2,2,0,0,1-.56,1.18,1.71,1.71,0,0,1-1.3.52c-1.23,0-2-1-2-2.53s.82-2.54,2.07-2.54a1.77,1.77,0,0,1,1.82,1.68l-.67.13a1.71,1.71,0,0,0-.25-.74,1.12,1.12,0,0,0-.91-.46c-.79,0-1.28.74-1.28,1.91s.47,1.93,1.27,1.93c.6,0,1-.41,1.17-1.2Z"/><path d="M765.54,245.24l-1.4-2.69-1,1.21v1.48h-.75v-6.51h.75v4.17l2.24-2.47h.8l-1.5,1.7,1.7,3.11Z"/><path d="M770.87,244a2.07,2.07,0,0,1-2,1.42,2.25,2.25,0,0,1-2.21-2.51,2.3,2.3,0,0,1,2.24-2.56,1.94,1.94,0,0,1,1.81,1.11,3.29,3.29,0,0,1,.29,1.49h-3.51a2.22,2.22,0,0,0,.2,1.12,1.37,1.37,0,0,0,1.23.73,1.28,1.28,0,0,0,1-.44,1.51,1.51,0,0,0,.3-.51Zm-.73-1.61a1.5,1.5,0,0,0-.28-1,1.13,1.13,0,0,0-1-.5,1.31,1.31,0,0,0-1,.49,1.7,1.7,0,0,0-.34,1Z"/><path d="M775.83,245.24h-.68v-.82a1.61,1.61,0,0,1-1.53,1c-1.13,0-1.93-1-1.93-2.5s.81-2.58,2-2.58a1.6,1.6,0,0,1,1.42.78v-2.35h.75Zm-.75-3a1.49,1.49,0,0,0-.28-.89,1.35,1.35,0,0,0-1-.5c-.77,0-1.27.75-1.27,1.89s.46,2,1.24,2a1.32,1.32,0,0,0,1-.49,1.5,1.5,0,0,0,.35-1Z"/><path d="M782,245.32a4.12,4.12,0,0,1-.71.06c-.91,0-1.38-.5-1.38-1.47V241H779v-.58h.85l0-1.22.7-.05v1.27h1.08V241H780.6v3q0,.75.78.75a2.77,2.77,0,0,0,.58-.06Z"/><path d="M785.77,245.24v-2.92a2.13,2.13,0,0,0-.1-.87.91.91,0,0,0-.84-.54,1.33,1.33,0,0,0-.94.46,1.81,1.81,0,0,0-.4,1.27v2.6h-.75v-6.51h.75v2.58a1.55,1.55,0,0,1,1.48-1,1.48,1.48,0,0,1,1.26.63,2.08,2.08,0,0,1,.29,1.4v2.92Z"/><path d="M788,245.24v-4.81h.65v1.12a3.24,3.24,0,0,1,.5-.84,1.26,1.26,0,0,1,1-.42l.27,0V241a1.55,1.55,0,0,0-1.62,1.67v2.55Z"/><path d="M795,242.89a2.28,2.28,0,0,1-2.23,2.48c-1.26,0-2.1-1-2.1-2.55a2.25,2.25,0,0,1,2.18-2.52C794.2,240.3,795,241.31,795,242.89Zm-3.18-1.45a2.47,2.47,0,0,0-.33,1.37c0,1.24.49,1.94,1.34,1.94s1.35-.71,1.35-1.9a2.38,2.38,0,0,0-.34-1.42,1.32,1.32,0,0,0-1-.52A1.28,1.28,0,0,0,791.86,241.44Z"/><path d="M799.28,245.24v-.92a1.66,1.66,0,0,1-1.53,1.05c-1,0-1.59-.71-1.59-1.87v-3.07h.76v3.07a1.35,1.35,0,0,0,.24.92.92.92,0,0,0,.7.33,1.49,1.49,0,0,0,1.34-1.61v-2.71H800v4.81Z"/><path d="M805.32,240.27c-.65,0-.85.12-.92.55a1.76,1.76,0,0,1,.46,1.16,1.67,1.67,0,0,1-1.85,1.6,1.61,1.61,0,0,1-.33,0l-.31-.05a.52.52,0,0,0-.51.46.37.37,0,0,0,.24.35,3.51,3.51,0,0,0,1.25.13c1,0,1.32.08,1.62.28a1.09,1.09,0,0,1,.53,1c0,.91-.82,1.38-2.42,1.38-1.44,0-2.2-.44-2.2-1.27a1,1,0,0,1,.73-1,.86.86,0,0,1-.46-.78c0-.39.17-.62.66-.85a1.54,1.54,0,0,1-.63-1.28,1.71,1.71,0,0,1,1.84-1.64,2.24,2.24,0,0,1,1,.22,1,1,0,0,1,.3-.62c.17-.17.36-.22.81-.22h.2Zm-3.72,5.44a.54.54,0,0,0,.18.41,2.28,2.28,0,0,0,1.36.36,3.78,3.78,0,0,0,1.14-.18.63.63,0,0,0,.51-.59.48.48,0,0,0-.33-.46c-.24-.11-.33-.12-1.17-.14-.48,0-.93,0-1.16-.07C801.73,245.24,801.6,245.41,801.6,245.71ZM802,242a1.07,1.07,0,0,0,2.14,0,1,1,0,0,0-1.06-1.09A1,1,0,0,0,802,242Z"/><path d="M809.21,245.24v-2.92a2.4,2.4,0,0,0-.09-.87.91.91,0,0,0-.84-.54,1.29,1.29,0,0,0-.94.46,1.81,1.81,0,0,0-.4,1.27v2.6h-.75v-6.51h.75v2.58a1.55,1.55,0,0,1,1.47-1,1.46,1.46,0,0,1,1.26.63,2,2,0,0,1,.3,1.4v2.92Z"/><path d="M815.9,241h-1.18v4.23H814V241h-.85v-.58H814a2.82,2.82,0,0,1,.16-1.08,1.26,1.26,0,0,1,1.28-.76,4.5,4.5,0,0,1,.71.07v.6a1.64,1.64,0,0,0-.45-.06c-.5,0-.81.15-.92.45s-.09.25-.09.78h1.18Z"/><path d="M816.83,245.24v-4.81h.66v1.12a3.24,3.24,0,0,1,.5-.84,1.26,1.26,0,0,1,.94-.42l.28,0V241a1.55,1.55,0,0,0-1.62,1.67v2.55Z"/><path d="M823.86,242.89a2.28,2.28,0,0,1-2.23,2.48c-1.26,0-2.1-1-2.1-2.55a2.25,2.25,0,0,1,2.18-2.52C823,240.3,823.86,241.31,823.86,242.89Zm-3.18-1.45a2.47,2.47,0,0,0-.33,1.37c0,1.24.49,1.94,1.34,1.94s1.35-.71,1.35-1.9a2.38,2.38,0,0,0-.34-1.42,1.32,1.32,0,0,0-1-.52A1.28,1.28,0,0,0,820.68,241.44Z"/><path d="M830.71,245.24v-3a1.41,1.41,0,0,0-.16-.88.93.93,0,0,0-.77-.43,1.2,1.2,0,0,0-.86.42,1.56,1.56,0,0,0-.37,1.17v2.71h-.73v-3.16a1.17,1.17,0,0,0-.22-.81.94.94,0,0,0-.72-.36,1.32,1.32,0,0,0-1.18,1.45v2.88H825v-4.81h.65v.92a1.63,1.63,0,0,1,1.48-1,1.36,1.36,0,0,1,1.35,1.15A1.65,1.65,0,0,1,830,240.3a1.43,1.43,0,0,1,1.23.68,2.19,2.19,0,0,1,.23,1.27v3Z"/><path d="M841.1,245.24v-3a1.41,1.41,0,0,0-.16-.88.92.92,0,0,0-.77-.43,1.24,1.24,0,0,0-.86.42,1.6,1.6,0,0,0-.37,1.17v2.71h-.72v-3.16a1.17,1.17,0,0,0-.23-.81.92.92,0,0,0-.72-.36,1.32,1.32,0,0,0-1.18,1.45v2.88h-.71v-4.81H836v.92a1.64,1.64,0,0,1,1.49-1,1.35,1.35,0,0,1,1.34,1.15,1.66,1.66,0,0,1,1.53-1.15,1.45,1.45,0,0,1,1.23.68,2.29,2.29,0,0,1,.22,1.27v3Z"/><path d="M847.27,242.89a2.27,2.27,0,0,1-2.22,2.48c-1.26,0-2.1-1-2.1-2.55a2.25,2.25,0,0,1,2.18-2.52C846.43,240.3,847.27,241.31,847.27,242.89Zm-3.17-1.45a2.47,2.47,0,0,0-.33,1.37c0,1.24.49,1.94,1.34,1.94s1.34-.71,1.34-1.9a2.31,2.31,0,0,0-.34-1.42,1.22,1.22,0,0,0-2,0Z"/><path d="M851.5,245.24v-3.1c0-.78-.36-1.2-1-1.2a1.48,1.48,0,0,0-1.35,1.65v2.65h-.75v-4.81h.69v.88c.5-.76.88-1,1.55-1a1.51,1.51,0,0,1,1.38.84,2.89,2.89,0,0,1,.18,1.32v2.78Z"/><path d="M855.87,245.32a4.12,4.12,0,0,1-.71.06c-.91,0-1.38-.5-1.38-1.47V241h-.85v-.58h.85l0-1.22.7-.05v1.27h1.09V241h-1.09v3c0,.5.27.75.79.75a2.68,2.68,0,0,0,.57-.06Z"/><path d="M859.68,245.24v-2.92a2.13,2.13,0,0,0-.1-.87.89.89,0,0,0-.84-.54,1.29,1.29,0,0,0-.93.46,1.77,1.77,0,0,0-.4,1.27v2.6h-.76v-6.51h.76v2.58a1.55,1.55,0,0,1,1.47-1,1.46,1.46,0,0,1,1.26.63,2.08,2.08,0,0,1,.29,1.4v2.92Z"/><path d="M861.93,245.24v-6.51h.75v6.51Z"/><path d="M865.5,245.81a1.81,1.81,0,0,1-.66,1,1.2,1.2,0,0,1-.75.19,2.15,2.15,0,0,1-.57-.08v-.59a2.86,2.86,0,0,0,.5.06.8.8,0,0,0,.76-.41,3,3,0,0,0,.32-.79l-1.67-4.72h.77l1.29,3.62,1.31-3.62h.64Z"/><path d="M873.73,245.24v-3.1c0-.78-.35-1.2-1-1.2a1.48,1.48,0,0,0-1.34,1.65v2.65h-.76v-4.81h.7v.88c.5-.76.88-1,1.54-1a1.53,1.53,0,0,1,1.39.84,3.09,3.09,0,0,1,.17,1.32v2.78Z"/><path d="M879.8,244a2.08,2.08,0,0,1-2,1.42,2.25,2.25,0,0,1-2.2-2.51,2.3,2.3,0,0,1,2.23-2.56,2,2,0,0,1,1.82,1.11,3.3,3.3,0,0,1,.28,1.49h-3.5a2.35,2.35,0,0,0,.19,1.12,1.39,1.39,0,0,0,1.23.73,1.3,1.3,0,0,0,1-.44,1.37,1.37,0,0,0,.29-.51Zm-.74-1.61a1.5,1.5,0,0,0-.27-1,1.14,1.14,0,0,0-1-.5,1.28,1.28,0,0,0-1,.49,1.63,1.63,0,0,0-.34,1Z"/><path d="M885,245.24h-.6l-1.08-3.57-1,3.57h-.62l-1.44-4.81H881l1,3.58,1-3.58h.55l1.07,3.6,1.08-3.6h.61Z"/><path d="M887.37,243.84a.94.94,0,0,0,.31.55,1.91,1.91,0,0,0,1.18.36c.68,0,1.14-.31,1.14-.78s-.29-.63-.83-.74l-1-.19a1.37,1.37,0,0,1-1.3-1.33c0-.84.72-1.41,1.82-1.41a1.75,1.75,0,0,1,1.89,1.22l-.68.15a1.21,1.21,0,0,0-1.23-.76c-.63,0-1,.29-1,.72s.25.57.75.67l.95.17c1,.17,1.47.64,1.47,1.42s-.79,1.48-2,1.48a2.4,2.4,0,0,1-1.64-.54,1.42,1.42,0,0,1-.49-.84Z"/><path d="M891.84,245.24v-6.51h.75v6.51Z"/><path d="M898,244a2.08,2.08,0,0,1-2,1.42,2.25,2.25,0,0,1-2.21-2.51A2.3,2.3,0,0,1,896,240.3a1.94,1.94,0,0,1,1.81,1.11,3.17,3.17,0,0,1,.28,1.49h-3.5a2.35,2.35,0,0,0,.19,1.12,1.39,1.39,0,0,0,1.23.73,1.29,1.29,0,0,0,1-.44,1.37,1.37,0,0,0,.29-.51Zm-.74-1.61a1.5,1.5,0,0,0-.27-1,1.14,1.14,0,0,0-1-.5,1.3,1.3,0,0,0-1,.49,1.7,1.7,0,0,0-.34,1Z"/><path d="M901.28,245.32a4.12,4.12,0,0,1-.71.06c-.91,0-1.38-.5-1.38-1.47V241h-.85v-.58h.85l0-1.22.7-.05v1.27H901V241h-1.09v3a.68.68,0,0,0,.78.75,2.71,2.71,0,0,0,.58-.06Z"/><path d="M904.48,245.32a4,4,0,0,1-.71.06c-.91,0-1.38-.5-1.38-1.47V241h-.85v-.58h.85l0-1.22.71-.05v1.27h1.08V241h-1.08v3q0,.75.78.75a2.68,2.68,0,0,0,.57-.06Z"/><path d="M909,244a2.08,2.08,0,0,1-2,1.42,2.25,2.25,0,0,1-2.2-2.51A2.3,2.3,0,0,1,907,240.3a2,2,0,0,1,1.82,1.11,3.3,3.3,0,0,1,.28,1.49h-3.5a2.35,2.35,0,0,0,.19,1.12,1.39,1.39,0,0,0,1.23.73,1.3,1.3,0,0,0,1-.44,1.37,1.37,0,0,0,.29-.51Zm-.74-1.61a1.5,1.5,0,0,0-.27-1,1.14,1.14,0,0,0-1-.5,1.28,1.28,0,0,0-1,.49,1.63,1.63,0,0,0-.34,1Z"/><path d="M910.22,245.24v-4.81h.65v1.12a3.93,3.93,0,0,1,.5-.84,1.3,1.3,0,0,1,1-.42l.27,0V241a1.55,1.55,0,0,0-1.62,1.67v2.55Z"/><path d="M771.66,257h-.83l-1.41-5-1.33,5h-.83l-1.65-6.51h.84l1.31,5.27,1.39-5.27h.65l1.49,5.27,1.21-5.27h.72Z"/><path d="M777,257a5.52,5.52,0,0,1-.09-.87,1.69,1.69,0,0,1-1.69,1,1.47,1.47,0,0,1-.87-2.77,4.2,4.2,0,0,1,1.94-.35c.17,0,.32,0,.62,0v-.16c0-.91-.34-1.24-1.26-1.24a1.15,1.15,0,0,0-1.29.88l-.69-.12a1.27,1.27,0,0,1,.36-.75,2.43,2.43,0,0,1,1.79-.59,1.73,1.73,0,0,1,1.49.57,2.17,2.17,0,0,1,.33,1.41v2a3.84,3.84,0,0,0,.1.93Zm-.72-2.43c-1.25,0-1.94.39-1.94,1.13,0,.51.41.85,1,.85a1.58,1.58,0,0,0,1.55-1.65c0-.08,0-.18,0-.31Z"/><path d="M781.16,257a4.12,4.12,0,0,1-.71.06c-.91,0-1.38-.5-1.38-1.46v-2.9h-.85v-.59h.85l0-1.21.7-.06v1.27h1.09v.59H779.8v3c0,.5.27.75.79.75a2.57,2.57,0,0,0,.57-.05Z"/><path d="M785.36,255.39a1.93,1.93,0,0,1-.56,1.18,1.74,1.74,0,0,1-1.3.52c-1.23,0-2-1-2-2.53s.82-2.54,2.07-2.54a1.78,1.78,0,0,1,1.82,1.68l-.67.13a1.53,1.53,0,0,0-.26-.73,1.07,1.07,0,0,0-.9-.46c-.79,0-1.28.73-1.28,1.9s.47,1.94,1.27,1.94c.6,0,1-.41,1.17-1.21Z"/><path d="M789.35,257V254a2.16,2.16,0,0,0-.1-.87.9.9,0,0,0-.84-.53,1.29,1.29,0,0,0-.94.46,1.78,1.78,0,0,0-.4,1.27V257h-.75v-6.51h.75V253a1.56,1.56,0,0,1,1.48-1,1.48,1.48,0,0,1,1.26.64,2,2,0,0,1,.29,1.39V257Z"/><path d="M795.46,255.67a2.06,2.06,0,0,1-2,1.42,2.24,2.24,0,0,1-2.2-2.51,2.3,2.3,0,0,1,2.23-2.56,2,2,0,0,1,1.82,1.12,3.42,3.42,0,0,1,.28,1.48h-3.5a2.21,2.21,0,0,0,.19,1.12,1.39,1.39,0,0,0,1.23.74,1.35,1.35,0,0,0,1-.44,2,2,0,0,0,.29-.51Zm-.73-1.61a1.51,1.51,0,0,0-.27-.95,1.14,1.14,0,0,0-1-.51,1.26,1.26,0,0,0-1,.5,1.58,1.58,0,0,0-.35,1Z"/><path d="M800.43,257h-.69v-.82a1.59,1.59,0,0,1-1.52,1c-1.13,0-1.93-1-1.93-2.5s.81-2.58,2-2.58a1.6,1.6,0,0,1,1.41.78v-2.35h.76Zm-.76-3a1.34,1.34,0,0,0-.28-.88,1.28,1.28,0,0,0-1-.5c-.78,0-1.27.74-1.27,1.88s.46,2,1.24,2a1.32,1.32,0,0,0,1-.49,1.45,1.45,0,0,0,.35-1Z"/><path d="M805.52,253.25h.74c1,0,1.51-.41,1.51-1.14a1.2,1.2,0,0,0-1.35-1.14,1.66,1.66,0,0,0-1.17.45,1.51,1.51,0,0,0-.36.6l-.74-.2a2.19,2.19,0,0,1,.73-1,2.65,2.65,0,0,1,1.6-.49,1.9,1.9,0,0,1,2.12,1.73,1.49,1.49,0,0,1-1.25,1.49,1.63,1.63,0,0,1,1.51,1.62c0,1.15-1,1.93-2.47,1.93a2.66,2.66,0,0,1-1.72-.54,2,2,0,0,1-.75-1l.76-.26a1.55,1.55,0,0,0,.46.8,2,2,0,0,0,1.28.38,1.73,1.73,0,0,0,1.22-.39,1.21,1.21,0,0,0,.37-.86c0-.79-.66-1.27-1.75-1.27h-.74Z"/><path d="M814.48,257h-4.61v-.67c1.42-1.06,1.42-1.06,2.14-1.67,1.27-1.06,1.64-1.58,1.64-2.32a1.37,1.37,0,0,0-1.46-1.33,1.55,1.55,0,0,0-1.25.62,1.47,1.47,0,0,0-.31.87l-.76-.23a2.25,2.25,0,0,1,.57-1.18,2.32,2.32,0,0,1,1.76-.73,2.07,2.07,0,0,1,2.26,2c0,.9-.44,1.56-1.85,2.7-.56.46-1.07.84-1.72,1.3h3.59Z"/><path d="M818.34,255.57a.92.92,0,0,0,.32.54,1.91,1.91,0,0,0,1.18.37c.67,0,1.13-.32,1.13-.79s-.28-.63-.83-.74l-1-.18c-.82-.16-1.3-.65-1.3-1.33,0-.85.72-1.42,1.81-1.42a1.76,1.76,0,0,1,1.9,1.22l-.69.15a1.18,1.18,0,0,0-1.23-.75c-.62,0-1,.28-1,.71s.24.58.75.67l.95.17c1,.18,1.46.64,1.46,1.43s-.79,1.47-2,1.47a2.35,2.35,0,0,1-1.64-.54,1.48,1.48,0,0,1-.5-.84Z"/><path d="M826.69,255.67a2.08,2.08,0,0,1-2.05,1.42,2.25,2.25,0,0,1-2.2-2.51,2.31,2.31,0,0,1,2.23-2.56,2,2,0,0,1,1.82,1.12,3.28,3.28,0,0,1,.28,1.48h-3.5a2.32,2.32,0,0,0,.19,1.12,1.4,1.4,0,0,0,1.23.74,1.34,1.34,0,0,0,1-.44,1.76,1.76,0,0,0,.29-.51Zm-.74-1.61a1.45,1.45,0,0,0-.27-.95,1.13,1.13,0,0,0-1-.51,1.26,1.26,0,0,0-1,.5,1.58,1.58,0,0,0-.34,1Z"/><path d="M831.41,255.39a1.93,1.93,0,0,1-.56,1.18,1.71,1.71,0,0,1-1.3.52c-1.23,0-2-1-2-2.53s.82-2.54,2.07-2.54a1.78,1.78,0,0,1,1.82,1.68l-.67.13a1.66,1.66,0,0,0-.25-.73,1.1,1.1,0,0,0-.91-.46c-.79,0-1.28.73-1.28,1.9s.47,1.94,1.27,1.94c.6,0,1-.41,1.17-1.21Z"/><path d="M836.4,254.61a2.28,2.28,0,0,1-2.23,2.48c-1.26,0-2.1-1-2.1-2.55a2.26,2.26,0,0,1,2.18-2.52C835.56,252,836.4,253,836.4,254.61Zm-3.18-1.44a2.46,2.46,0,0,0-.33,1.36c0,1.24.49,2,1.34,2s1.35-.72,1.35-1.91a2.29,2.29,0,0,0-.35-1.41,1.22,1.22,0,0,0-2,0Z"/><path d="M840.62,257v-3.09c0-.78-.35-1.2-1-1.2a1.48,1.48,0,0,0-1.35,1.65V257h-.75v-4.81h.69V253c.5-.76.88-1,1.55-1a1.51,1.51,0,0,1,1.38.84,3,3,0,0,1,.18,1.32V257Z"/><path d="M846.57,257h-.69v-.82a1.59,1.59,0,0,1-1.52,1c-1.13,0-1.93-1-1.93-2.5s.81-2.58,2-2.58a1.62,1.62,0,0,1,1.41.78v-2.35h.76Zm-.76-3a1.34,1.34,0,0,0-.28-.88,1.28,1.28,0,0,0-1-.5c-.78,0-1.27.74-1.27,1.88s.46,2,1.24,2a1.32,1.32,0,0,0,1-.49,1.45,1.45,0,0,0,.35-1Z"/><path d="M848.13,255.57a1,1,0,0,0,.31.54,2,2,0,0,0,1.18.37c.68,0,1.14-.32,1.14-.79s-.29-.63-.83-.74l-1-.18c-.82-.16-1.3-.65-1.3-1.33,0-.85.73-1.42,1.82-1.42a1.74,1.74,0,0,1,1.89,1.22l-.68.15a1.18,1.18,0,0,0-1.23-.75c-.62,0-1,.28-1,.71s.24.58.75.67l.94.17c1,.18,1.47.64,1.47,1.43s-.79,1.47-2,1.47a2.34,2.34,0,0,1-1.64-.54,1.43,1.43,0,0,1-.5-.84Z"/><path d="M859,254.61a2.27,2.27,0,0,1-2.22,2.48c-1.26,0-2.1-1-2.1-2.55a2.25,2.25,0,0,1,2.17-2.52C858.15,252,859,253,859,254.61Zm-3.17-1.44a2.38,2.38,0,0,0-.33,1.36c0,1.24.48,2,1.33,2s1.35-.72,1.35-1.91a2.36,2.36,0,0,0-.34-1.41,1.26,1.26,0,0,0-1-.52A1.22,1.22,0,0,0,855.82,253.17Z"/><path d="M862.11,252.74h-1.17V257h-.7v-4.22h-.85v-.59h.85a2.76,2.76,0,0,1,.16-1.07,1.28,1.28,0,0,1,1.28-.77,4.5,4.5,0,0,1,.71.07V251a1.34,1.34,0,0,0-.45-.07c-.49,0-.81.16-.91.46s-.09.24-.09.77h1.17Z"/><path d="M867.7,253.43l2.09,3.53h-.92l-1.65-2.77-1.7,2.77h-.76l2.09-3.37L865,250.45h.91l1.44,2.41,1.45-2.41h.74Z"/><path d="M874.88,257h-.78l-1.72-4.81h.83l1.34,3.92,1.32-3.92h.67Z"/><path d="M878.11,251.28h-.81v-.83h.81Zm0,5.68h-.75v-4.81h.75Z"/><path d="M883.33,257h-.69v-.82a1.59,1.59,0,0,1-1.52,1c-1.13,0-1.93-1-1.93-2.5s.81-2.58,2-2.58a1.63,1.63,0,0,1,1.42.78v-2.35h.75Zm-.75-3a1.39,1.39,0,0,0-.29-.88,1.28,1.28,0,0,0-1-.5c-.78,0-1.27.74-1.27,1.88s.46,2,1.24,2a1.32,1.32,0,0,0,1-.49,1.5,1.5,0,0,0,.36-1Z"/><path d="M888.7,255.67a2.06,2.06,0,0,1-2,1.42,2.25,2.25,0,0,1-2.21-2.51,2.31,2.31,0,0,1,2.24-2.56,1.93,1.93,0,0,1,1.81,1.12,3.27,3.27,0,0,1,.29,1.48h-3.51a2.19,2.19,0,0,0,.2,1.12,1.38,1.38,0,0,0,1.23.74,1.32,1.32,0,0,0,1-.44,1.75,1.75,0,0,0,.3-.51Zm-.73-1.61a1.45,1.45,0,0,0-.28-.95,1.11,1.11,0,0,0-1-.51,1.29,1.29,0,0,0-1,.5,1.64,1.64,0,0,0-.34,1Z"/><path d="M893.86,254.61a2.28,2.28,0,0,1-2.23,2.48c-1.26,0-2.1-1-2.1-2.55a2.26,2.26,0,0,1,2.18-2.52C893,252,893.86,253,893.86,254.61Zm-3.18-1.44a2.46,2.46,0,0,0-.33,1.36c0,1.24.49,2,1.34,2s1.35-.72,1.35-1.91a2.36,2.36,0,0,0-.34-1.41,1.29,1.29,0,0,0-1-.52A1.25,1.25,0,0,0,890.68,253.17Z"/><path d="M747.68,262.17h2.18a2.59,2.59,0,0,1,1.93.72,3.38,3.38,0,0,1,1,2.52c0,1.88-1.12,3.28-2.65,3.28h-2.45Zm2.14,5.82a2,2,0,0,0,1.43-.53,3,3,0,0,0,.7-2,2.94,2.94,0,0,0-.68-2,1.84,1.84,0,0,0-1.46-.56h-1.32V268Z"/><path d="M757.9,266.33a2.28,2.28,0,0,1-2.23,2.48c-1.26,0-2.1-1-2.1-2.55a2.25,2.25,0,0,1,2.18-2.51C757.06,263.75,757.9,264.76,757.9,266.33Zm-3.17-1.44a2.37,2.37,0,0,0-.34,1.36c0,1.25.49,1.95,1.34,1.95s1.35-.71,1.35-1.91a2.36,2.36,0,0,0-.34-1.41,1.32,1.32,0,0,0-1-.52A1.24,1.24,0,0,0,754.73,264.89Z"/><path d="M762.12,268.69v-3.1c0-.78-.35-1.2-1-1.2a1.47,1.47,0,0,0-1.34,1.65v2.65H759v-4.82h.69v.89c.5-.76.88-1,1.54-1a1.52,1.52,0,0,1,1.39.83,3,3,0,0,1,.17,1.32v2.79Z"/><path d="M767.35,268.69a5.85,5.85,0,0,1-.09-.87,1.7,1.7,0,0,1-1.69,1,1.5,1.5,0,0,1-1.68-1.45,1.48,1.48,0,0,1,.81-1.32,4.29,4.29,0,0,1,1.93-.35c.18,0,.33,0,.63,0v-.16c0-.91-.34-1.24-1.26-1.24a1.15,1.15,0,0,0-1.29.88l-.69-.12a1.24,1.24,0,0,1,.36-.75,2.42,2.42,0,0,1,1.79-.58,1.72,1.72,0,0,1,1.49.56,2.24,2.24,0,0,1,.32,1.41v2a3.51,3.51,0,0,0,.11.94Zm-.73-2.44c-1.24,0-1.93.4-1.93,1.13,0,.52.4.86,1,.86a1.58,1.58,0,0,0,1.55-1.65c0-.09,0-.19,0-.32Z"/><path d="M771.56,268.76a4.12,4.12,0,0,1-.71.06c-.91,0-1.38-.49-1.38-1.46v-2.9h-.85v-.59h.85l0-1.21.7-.06v1.27h1.09v.59H770.2v3a.68.68,0,0,0,.78.75,2.77,2.77,0,0,0,.58-.06Z"/><path d="M776.08,267.4a2.05,2.05,0,0,1-2,1.41,2.24,2.24,0,0,1-2.21-2.51,2.3,2.3,0,0,1,2.24-2.55,2,2,0,0,1,1.82,1.11,3.42,3.42,0,0,1,.28,1.48h-3.51a2.26,2.26,0,0,0,.2,1.13,1.37,1.37,0,0,0,1.23.73,1.32,1.32,0,0,0,1-.44,1.75,1.75,0,0,0,.3-.51Zm-.73-1.61a1.54,1.54,0,0,0-.27-1,1.16,1.16,0,0,0-1-.51,1.32,1.32,0,0,0-1,.5,1.67,1.67,0,0,0-.34,1Z"/><path d="M781,268.69h-.68v-.82a1.6,1.6,0,0,1-1.52.95c-1.14,0-1.94-1-1.94-2.5s.81-2.57,2-2.57a1.59,1.59,0,0,1,1.41.78v-2.36H781Zm-.75-3a1.47,1.47,0,0,0-.28-.89,1.35,1.35,0,0,0-1-.5c-.77,0-1.27.74-1.27,1.89s.46,2,1.24,2a1.32,1.32,0,0,0,1-.49,1.53,1.53,0,0,0,.35-1Z"/><path d="M786.74,269.4v-.92a2.18,2.18,0,0,1-2-1.49l.64-.26a1.57,1.57,0,0,0,1.4,1.1v-2.22a3.62,3.62,0,0,1-1.1-.4A1.42,1.42,0,0,1,785,264a1.57,1.57,0,0,1,.84-1.4,3,3,0,0,1,.94-.27v-.79h.58v.79a2,2,0,0,1,1.84,1.25l-.64.21a1.24,1.24,0,0,0-1.2-.83v2a3.72,3.72,0,0,1,1.13.36,1.6,1.6,0,0,1,.84,1.41,1.7,1.7,0,0,1-.88,1.47,3,3,0,0,1-1.09.28v.92Zm0-6.48c-.69.07-1.08.41-1.08.95s.34.85,1.08,1Zm.58,4.91c.78-.05,1.24-.43,1.24-1a.94.94,0,0,0-.44-.79,1.88,1.88,0,0,0-.8-.25Z"/><path d="M795.1,268.69h-4.62V268c1.43-1.06,1.43-1.06,2.15-1.67,1.27-1.06,1.64-1.58,1.64-2.32a1.38,1.38,0,0,0-1.46-1.33,1.53,1.53,0,0,0-1.25.63,1.42,1.42,0,0,0-.32.86l-.76-.23a2.33,2.33,0,0,1,.58-1.18,2.3,2.3,0,0,1,1.76-.72,2.07,2.07,0,0,1,2.26,2c0,.91-.45,1.56-1.85,2.7-.56.46-1.07.84-1.72,1.3h3.59Z"/><path d="M802.18,268.69v-3a1.49,1.49,0,0,0-.15-.88.93.93,0,0,0-.77-.43,1.2,1.2,0,0,0-.86.42A1.52,1.52,0,0,0,800,266v2.72h-.73v-3.17a1.24,1.24,0,0,0-.22-.81,1,1,0,0,0-.72-.35,1.33,1.33,0,0,0-1.19,1.45v2.88h-.71v-4.82h.65v.93a1.63,1.63,0,0,1,1.48-1.05,1.37,1.37,0,0,1,1.35,1.15,1.65,1.65,0,0,1,1.52-1.15,1.43,1.43,0,0,1,1.23.68,2.15,2.15,0,0,1,.23,1.27v3Z"/><path d="M805.18,263h-.81v-.83h.81Zm0,5.69h-.76v-4.82h.76Z"/><path d="M806.65,268.69v-6.52h.75v6.52Z"/><path d="M808.9,268.69v-6.52h.75v6.52Z"/><path d="M811.92,263h-.81v-.83h.81Zm0,5.69h-.76v-4.82h.76Z"/><path d="M817.33,266.33a2.28,2.28,0,0,1-2.23,2.48c-1.26,0-2.1-1-2.1-2.55a2.25,2.25,0,0,1,2.18-2.51C816.49,263.75,817.33,264.76,817.33,266.33Zm-3.18-1.44a2.46,2.46,0,0,0-.33,1.36c0,1.25.49,1.95,1.34,1.95s1.35-.71,1.35-1.91a2.29,2.29,0,0,0-.35-1.41,1.22,1.22,0,0,0-2,0Z"/><path d="M821.55,268.69v-3.1c0-.78-.35-1.2-1-1.2A1.48,1.48,0,0,0,819.2,266v2.65h-.75v-4.82h.69v.89c.5-.76.88-1,1.55-1a1.52,1.52,0,0,1,1.38.83,3,3,0,0,1,.18,1.32v2.79Z"/><path d="M828.37,268.76a4.22,4.22,0,0,1-.72.06c-.9,0-1.37-.49-1.37-1.46v-2.9h-.85v-.59h.85l0-1.21.7-.06v1.27h1.08v.59H827v3a.68.68,0,0,0,.78.75,2.77,2.77,0,0,0,.58-.06Z"/><path d="M833,266.33a2.28,2.28,0,0,1-2.23,2.48c-1.26,0-2.1-1-2.1-2.55a2.25,2.25,0,0,1,2.18-2.51C832.15,263.75,833,264.76,833,266.33Zm-3.18-1.44a2.46,2.46,0,0,0-.33,1.36c0,1.25.49,1.95,1.34,1.95s1.35-.71,1.35-1.91a2.29,2.29,0,0,0-.35-1.41,1.22,1.22,0,0,0-2,0Z"/><path d="M836.61,262.17h2.58a2,2,0,0,1,1.22.31,1.5,1.5,0,0,1,.69,1.28,1.57,1.57,0,0,1-.45,1.11,2,2,0,0,1-.7.36,1.65,1.65,0,0,1,.83.42,1.67,1.67,0,0,1,.52,1.23,1.7,1.7,0,0,1-.82,1.51,2.32,2.32,0,0,1-1.3.3h-2.57Zm2.21,2.8a1.63,1.63,0,0,0,1.07-.25,1.08,1.08,0,0,0,.4-.87c0-.64-.46-1-1.27-1H837.4V265Zm.33,3c.83,0,1.33-.42,1.33-1.13a1.35,1.35,0,0,0-.34-.89,1.38,1.38,0,0,0-1.11-.37H837.4V268Z"/><path d="M845.58,268.69v-.92a1.66,1.66,0,0,1-1.53,1c-1,0-1.59-.7-1.59-1.86v-3.08h.76V267a1.35,1.35,0,0,0,.24.92.93.93,0,0,0,.7.33,1.49,1.49,0,0,0,1.34-1.61v-2.72h.75v4.82Z"/><path d="M848.52,263h-.81v-.83h.81Zm0,5.69h-.75v-4.82h.75Z"/><path d="M850,268.69v-6.52h.75v6.52Z"/><path d="M856,268.69h-.68v-.82a1.6,1.6,0,0,1-1.52.95c-1.14,0-1.94-1-1.94-2.5s.81-2.57,2-2.57a1.59,1.59,0,0,1,1.41.78v-2.36H856Zm-.75-3a1.47,1.47,0,0,0-.28-.89,1.35,1.35,0,0,0-1-.5c-.77,0-1.27.74-1.27,1.89s.46,2,1.24,2a1.34,1.34,0,0,0,1-.49,1.53,1.53,0,0,0,.35-1Z"/><path d="M858.26,263h-.81v-.83h.81Zm0,5.69h-.75v-4.82h.75Z"/><path d="M862.82,268.69v-3.1c0-.78-.35-1.2-1-1.2a1.47,1.47,0,0,0-1.35,1.65v2.65h-.75v-4.82h.69v.89c.5-.76.88-1,1.54-1a1.52,1.52,0,0,1,1.39.83,3,3,0,0,1,.18,1.32v2.79Z"/><path d="M868.85,263.72c-.64,0-.85.11-.92.54a1.76,1.76,0,0,1,.46,1.16,1.86,1.86,0,0,1-2.18,1.58l-.31-.05a.52.52,0,0,0-.51.46.38.38,0,0,0,.25.35,3.46,3.46,0,0,0,1.25.13c1,0,1.32.07,1.62.28a1.1,1.1,0,0,1,.53,1c0,.9-.83,1.37-2.43,1.37-1.43,0-2.19-.44-2.19-1.27a.94.94,0,0,1,.73-1,.88.88,0,0,1-.47-.78c0-.4.18-.62.66-.85a1.56,1.56,0,0,1-.62-1.28,1.7,1.7,0,0,1,1.83-1.64,2.06,2.06,0,0,1,1,.22,1,1,0,0,1,.3-.62c.17-.17.37-.22.81-.22h.2Zm-3.71,5.44a.59.59,0,0,0,.17.41,2.32,2.32,0,0,0,1.36.36,3.78,3.78,0,0,0,1.14-.18.62.62,0,0,0,.51-.59.47.47,0,0,0-.33-.46c-.23-.11-.32-.12-1.16-.14-.49,0-.94,0-1.16-.07C865.27,268.69,865.14,268.85,865.14,269.16Zm.35-3.76a1,1,0,0,0,1.07,1.05,1,1,0,0,0,1.08-1,1.05,1.05,0,0,0-1.07-1.1A1,1,0,0,0,865.49,265.4Z"/><path d="M876.87,266.67a3,3,0,0,1-.66,1.38,2.17,2.17,0,0,1-1.74.76,2.23,2.23,0,0,1-1.79-.79,4.07,4.07,0,0,1-.86-2.65c0-2,1.06-3.32,2.71-3.32a2.31,2.31,0,0,1,2.34,2.09l-.76.14c-.32-1.08-.79-1.54-1.59-1.54-1.14,0-1.81,1-1.81,2.71s.69,2.67,1.78,2.67a1.51,1.51,0,0,0,1.2-.6,2.9,2.9,0,0,0,.44-1Z"/><path d="M880.91,268.69a8.66,8.66,0,0,1-.08-.87,1.7,1.7,0,0,1-1.69,1,1.5,1.5,0,0,1-1.68-1.45,1.48,1.48,0,0,1,.81-1.32,4.29,4.29,0,0,1,1.93-.35c.18,0,.32,0,.63,0v-.16c0-.91-.35-1.24-1.26-1.24-.73,0-1.17.3-1.29.88l-.7-.12a1.25,1.25,0,0,1,.37-.75,2.4,2.4,0,0,1,1.78-.58,1.75,1.75,0,0,1,1.5.56,2.24,2.24,0,0,1,.32,1.41v2a3.51,3.51,0,0,0,.11.94Zm-.72-2.44c-1.25,0-1.93.4-1.93,1.13,0,.52.4.86,1,.86a1.59,1.59,0,0,0,1.56-1.65c0-.09,0-.19,0-.32Z"/><path d="M888.78,268.69v-3a1.39,1.39,0,0,0-.16-.88.93.93,0,0,0-.77-.43,1.22,1.22,0,0,0-.86.42,1.56,1.56,0,0,0-.37,1.16v2.72h-.72v-3.17a1.19,1.19,0,0,0-.23-.81.94.94,0,0,0-.72-.35,1.32,1.32,0,0,0-1.18,1.45v2.88h-.72v-4.82h.65v.93a1.63,1.63,0,0,1,1.48-1.05,1.35,1.35,0,0,1,1.35,1.15,1.65,1.65,0,0,1,1.52-1.15,1.46,1.46,0,0,1,1.24.68,2.25,2.25,0,0,1,.22,1.27v3Z"/><path d="M890.88,270.32v-6.45h.67v.94a1.61,1.61,0,0,1,1.52-1.06c1.14,0,1.91,1,1.91,2.52s-.78,2.54-1.92,2.54a1.54,1.54,0,0,1-1.43-.86v2.37Zm.75-3.38a1.4,1.4,0,0,0,1.28,1.26,1.23,1.23,0,0,0,.89-.45,2.31,2.31,0,0,0,.36-1.43c0-1.21-.47-1.92-1.25-1.92a1.4,1.4,0,0,0-1.28,1.19Z"/><path d="M899.12,268.69a8.66,8.66,0,0,1-.08-.87,1.7,1.7,0,0,1-1.69,1,1.5,1.5,0,0,1-1.68-1.45,1.48,1.48,0,0,1,.81-1.32,4.29,4.29,0,0,1,1.93-.35c.18,0,.32,0,.63,0v-.16c0-.91-.35-1.24-1.26-1.24-.73,0-1.17.3-1.29.88l-.7-.12a1.25,1.25,0,0,1,.37-.75,2.4,2.4,0,0,1,1.78-.58,1.75,1.75,0,0,1,1.5.56,2.24,2.24,0,0,1,.32,1.41v2a3.51,3.51,0,0,0,.11.94Zm-.72-2.44c-1.25,0-1.93.4-1.93,1.13,0,.52.4.86,1,.86a1.59,1.59,0,0,0,1.56-1.65c0-.09,0-.19,0-.32Z"/><path d="M902,263h-.81v-.83H902Zm0,5.69h-.76v-4.82H902Z"/><path d="M907.37,263.72c-.65,0-.85.11-.92.54a1.76,1.76,0,0,1,.46,1.16,1.86,1.86,0,0,1-2.18,1.58l-.31-.05a.52.52,0,0,0-.51.46.38.38,0,0,0,.25.35,3.46,3.46,0,0,0,1.25.13c1,0,1.31.07,1.62.28a1.09,1.09,0,0,1,.52,1c0,.9-.82,1.37-2.42,1.37-1.43,0-2.19-.44-2.19-1.27a.94.94,0,0,1,.73-1,.88.88,0,0,1-.47-.78c0-.4.18-.62.66-.85a1.56,1.56,0,0,1-.62-1.28,1.7,1.7,0,0,1,1.83-1.64,2.06,2.06,0,0,1,1,.22,1,1,0,0,1,.3-.62c.17-.17.36-.22.81-.22h.2Zm-3.71,5.44a.59.59,0,0,0,.17.41,2.3,2.3,0,0,0,1.36.36,3.78,3.78,0,0,0,1.14-.18.62.62,0,0,0,.51-.59.47.47,0,0,0-.33-.46c-.23-.11-.32-.12-1.16-.14-.49,0-.94,0-1.16-.07C903.79,268.69,903.66,268.85,903.66,269.16Zm.35-3.76a1,1,0,0,0,1.07,1.05,1,1,0,0,0,1.08-1,1.05,1.05,0,0,0-1.07-1.1A1,1,0,0,0,904,265.4Z"/><path d="M911.34,268.69v-3.1c0-.78-.36-1.2-1-1.2A1.48,1.48,0,0,0,909,266v2.65h-.75v-4.82h.69v.89c.5-.76.88-1,1.55-1a1.52,1.52,0,0,1,1.38.83,3,3,0,0,1,.18,1.32v2.79Z"/><path class="cls-4" d="M791.13,345.39a2.28,2.28,0,0,1-2.35,1.65,2.43,2.43,0,0,1-2.44-2.74,2.5,2.5,0,0,1,2.49-2.77c1.53,0,2.38,1,2.39,2.9h-3.64v.15c0,1,.48,1.52,1.27,1.52a1.14,1.14,0,0,0,1.19-.86ZM790,343.66a1.31,1.31,0,0,0-.27-.83,1.1,1.1,0,0,0-.92-.46c-.68,0-1.11.45-1.21,1.29Z"/><path class="cls-4" d="M799,346.94v-3.3c0-.68-.31-1-.91-1s-1.16.56-1.16,1.53v2.79h-1.27v-3.3a1.1,1.1,0,0,0-.12-.64.81.81,0,0,0-.74-.4c-.72,0-1.22.64-1.22,1.55v2.79h-1.24v-5.3h1.16v1.13a2.57,2.57,0,0,1,.58-.83,1.83,1.83,0,0,1,1.19-.41,1.48,1.48,0,0,1,1.52,1.24,1.94,1.94,0,0,1,1.77-1.24,1.62,1.62,0,0,1,1.7,1.66v3.75Z"/><path class="cls-4" d="M804.91,346.94v-1.15a1.6,1.6,0,0,1-.56.87,1.74,1.74,0,0,1-1.12.38,1.48,1.48,0,0,1-1.3-.64,1.72,1.72,0,0,1-.27-1v-3.71h1.23v3.45a1.1,1.1,0,0,0,.11.58.75.75,0,0,0,.64.35,1.18,1.18,0,0,0,1-.74,2.58,2.58,0,0,0,.16-1.09v-2.55H806v5.3Z"/><path class="cls-4" d="M807.93,345.51c.22.47.52.64,1.17.64s1.07-.23,1.07-.65c0-.26-.22-.47-.58-.53l-1-.19c-1.1-.21-1.6-.7-1.6-1.56a1.67,1.67,0,0,1,.41-1.11,2.07,2.07,0,0,1,1.63-.58,1.88,1.88,0,0,1,2,1.23L810,343c-.14-.43-.42-.6-1-.6s-.94.23-.94.57.23.49.76.6l1.14.24a1.46,1.46,0,0,1,1.34,1.53c0,1.06-.91,1.72-2.31,1.72a2.85,2.85,0,0,1-1.7-.49,1.48,1.48,0,0,1-.55-.83Z"/><path class="cls-4" d="M816,346.94l-1.36-2.72-1.17,1.32v1.4h-1.15v-7.17h1.15v4.45a3.45,3.45,0,0,1,.24-.3l2.09-2.28h1.29l-1.59,1.75,1.75,3.55Z"/><path class="cls-4" d="M822.8,343.92a4.29,4.29,0,0,0,0,.49c0,.25.07.36.24.36.58,0,1.14-.94,1.14-1.88a2.61,2.61,0,0,0-2.8-2.58,3,3,0,0,0-1.58,5.64,3.21,3.21,0,0,0,1.66.39,4.53,4.53,0,0,0,2.37-.61l.31.71a5.51,5.51,0,0,1-2.66.66,4.4,4.4,0,0,1-2.14-.51,3.72,3.72,0,0,1-1.85-3.23,3.76,3.76,0,0,1,3.88-3.75,3.34,3.34,0,0,1,3.55,3.24c0,1.43-.9,2.65-2,2.65A.94.94,0,0,1,822,345a1.35,1.35,0,0,1-1.1.57,1.8,1.8,0,0,1-1.62-2,1.92,1.92,0,0,1,1.8-2.11,1.29,1.29,0,0,1,1,.45l.05-.36h.9Zm-2.56-.38c0,.66.31,1.12.74,1.12a1.31,1.31,0,0,0,1.11-1.39,1,1,0,0,0-.9-1C820.63,342.25,820.24,342.79,820.24,343.54Z"/><path class="cls-4" d="M830.59,341.54h-.37a.7.7,0,0,0-.77.43,1.41,1.41,0,0,1,.62,1.15c0,.95-.88,1.62-2.13,1.62a3.76,3.76,0,0,1-1-.14c-.27.14-.37.27-.37.51s.28.54.72.54h1.58c1,0,1.73.59,1.73,1.45,0,1.07-1.05,1.74-2.76,1.74s-2.57-.49-2.57-1.44c0-.51.2-.78.78-1.08-.38-.33-.5-.53-.5-.87s.24-.79.85-1.1a1.33,1.33,0,0,1-.74-1.22,1.42,1.42,0,0,1,.46-1.05,2.36,2.36,0,0,1,1.74-.55,4.25,4.25,0,0,1,1,.11,1.17,1.17,0,0,1,1.27-1h.45Zm-3.17,5.23a2.9,2.9,0,0,1-.86-.12c-.19.18-.26.29-.26.46,0,.56.69.91,1.8.91.91,0,1.38-.25,1.38-.71s-.31-.54-.79-.54Zm-.53-3.6a.88.88,0,0,0,1,.87c.6,0,1-.33,1-.84a.85.85,0,0,0-1-.92A.9.9,0,0,0,826.89,343.17Z"/><path class="cls-4" d="M838,346.94v-3.3c0-.68-.31-1-.91-1s-1.16.56-1.16,1.53v2.79h-1.27v-3.3a1.1,1.1,0,0,0-.12-.64.83.83,0,0,0-.74-.4c-.72,0-1.22.64-1.22,1.55v2.79h-1.24v-5.3h1.16v1.13a2.57,2.57,0,0,1,.58-.83,1.82,1.82,0,0,1,1.18-.41,1.48,1.48,0,0,1,1.53,1.24,1.94,1.94,0,0,1,1.77-1.24,1.62,1.62,0,0,1,1.7,1.66v3.75Z"/><path class="cls-4" d="M844.05,346.94a5.07,5.07,0,0,1-.18-1.08,1.75,1.75,0,0,1-1.79,1.18,1.61,1.61,0,0,1-1.75-1.62c0-.83.52-1.4,1.52-1.64a7.73,7.73,0,0,1,2-.19v-.39c0-.55-.37-.82-1.13-.82s-1.09.25-1.22.82l-1-.15a1.44,1.44,0,0,1,.7-1.1,2.81,2.81,0,0,1,1.69-.42,2.23,2.23,0,0,1,1.82.58c.27.3.33.59.33,1.37v2.38a4.35,4.35,0,0,0,.16,1.08Zm-.18-2.7c-1.52,0-2.32.38-2.32,1.11,0,.49.36.79.94.79a1.33,1.33,0,0,0,1.38-1.42Z"/><path class="cls-4" d="M846.47,341v-1.25h1.2V341Zm0,5.92v-5.3h1.2v5.3Z"/><path class="cls-4" d="M849.11,346.94v-7.17h1.19v7.17Z"/><path class="cls-4" d="M853,346.94h-1.3v-1.38H853Z"/><path class="cls-4" d="M858.42,345.1a2.66,2.66,0,0,1-.49,1.17,2,2,0,0,1-1.68.77c-1.35,0-2.25-1.1-2.25-2.75s1-2.76,2.36-2.76a2,2,0,0,1,2.06,1.83l-1,.14c-.09-.66-.42-1-1-1-.73,0-1.16.68-1.16,1.83s.41,1.66,1.09,1.66c.53,0,.88-.34,1-1Z"/><path class="cls-4" d="M863.53,342.62a2.94,2.94,0,0,1,.44,1.67,2.52,2.52,0,0,1-2.52,2.75,2.16,2.16,0,0,1-1.89-1,3.14,3.14,0,0,1-.52-1.8,2.51,2.51,0,0,1,2.48-2.74A2.22,2.22,0,0,1,863.53,342.62Zm-3.23,1.66c0,1.14.43,1.79,1.2,1.79s1.2-.65,1.2-1.81-.42-1.75-1.18-1.75S860.3,343.14,860.3,344.28Z"/><path class="cls-4" d="M871.72,346.94v-3.3c0-.68-.31-1-.91-1s-1.16.56-1.16,1.53v2.79h-1.27v-3.3a1.2,1.2,0,0,0-.11-.64.83.83,0,0,0-.75-.4c-.72,0-1.22.64-1.22,1.55v2.79h-1.24v-5.3h1.16v1.13a2.57,2.57,0,0,1,.58-.83,1.87,1.87,0,0,1,1.19-.41,1.48,1.48,0,0,1,1.52,1.24,1.94,1.94,0,0,1,1.77-1.24,1.62,1.62,0,0,1,1.7,1.66v3.75Z"/><path class="cls-4" d="M834.12,326.34a6.29,6.29,0,0,1,3.2.86,6.48,6.48,0,0,1,2.34,2.34,6.28,6.28,0,0,1,.85,3.2v2a2.27,2.27,0,0,1-2.29,2.29H821.43a2.29,2.29,0,0,1-2.29-2.29v-2a6.29,6.29,0,0,1,.86-3.2,6.4,6.4,0,0,1,2.34-2.34,6.29,6.29,0,0,1,3.2-.86h.81a8.25,8.25,0,0,0,7,0Zm-4.29-1.52a6.08,6.08,0,0,1-3.08-.81,6,6,0,0,1-2.22-2.22,6.24,6.24,0,0,1,0-6.15,6,6,0,0,1,2.22-2.22,6.26,6.26,0,0,1,6.16,0,6,6,0,0,1,2.21,2.22,6.24,6.24,0,0,1,0,6.15,6,6,0,0,1-2.21,2.22A6.08,6.08,0,0,1,829.83,324.82Z"/><path d="M760.52,364.36a3,3,0,0,1-.65,1.38,2.2,2.2,0,0,1-1.75.77,2.26,2.26,0,0,1-1.79-.8,4.13,4.13,0,0,1-.85-2.65c0-2,1.06-3.32,2.7-3.32a2.31,2.31,0,0,1,2.34,2.09l-.76.14c-.32-1.08-.79-1.54-1.59-1.54-1.13,0-1.81,1-1.81,2.72s.7,2.66,1.78,2.66a1.51,1.51,0,0,0,1.2-.59,2.7,2.7,0,0,0,.44-1Z"/><path d="M761.47,366.38v-6.51h.76v6.51Z"/><path d="M764.49,360.7h-.81v-.83h.81Zm0,5.68h-.75v-4.82h.75Z"/><path d="M769.47,364.81a2,2,0,0,1-.56,1.18,1.71,1.71,0,0,1-1.3.52c-1.23,0-2-1-2-2.53s.82-2.54,2.07-2.54a1.77,1.77,0,0,1,1.82,1.68l-.67.12a1.71,1.71,0,0,0-.25-.73,1.12,1.12,0,0,0-.91-.46c-.79,0-1.28.74-1.28,1.91s.47,1.93,1.27,1.93c.6,0,1-.41,1.17-1.2Z"/><path d="M773.63,366.38l-1.4-2.69-1.05,1.2v1.49h-.75v-6.51h.75V364l2.24-2.48h.8l-1.5,1.7,1.7,3.12Z"/><path d="M779,365.09a2.07,2.07,0,0,1-2,1.42,2.25,2.25,0,0,1-2.21-2.51,2.3,2.3,0,0,1,2.24-2.56,1.94,1.94,0,0,1,1.81,1.11,3.29,3.29,0,0,1,.29,1.49h-3.51a2.22,2.22,0,0,0,.2,1.12,1.37,1.37,0,0,0,1.23.73,1.32,1.32,0,0,0,1-.44,1.62,1.62,0,0,0,.3-.51Zm-.73-1.61a1.48,1.48,0,0,0-.28-1,1.13,1.13,0,0,0-1-.51,1.32,1.32,0,0,0-1,.5,1.7,1.7,0,0,0-.34,1Z"/><path d="M783.92,366.38h-.68v-.82a1.61,1.61,0,0,1-1.53,1c-1.13,0-1.93-1-1.93-2.5s.81-2.58,2-2.58a1.6,1.6,0,0,1,1.42.78v-2.35h.75Zm-.75-3a1.49,1.49,0,0,0-.28-.89,1.35,1.35,0,0,0-1-.5c-.77,0-1.27.75-1.27,1.89s.46,2,1.24,2a1.35,1.35,0,0,0,1-.49,1.52,1.52,0,0,0,.35-1Z"/><path d="M790.05,366.46a4.15,4.15,0,0,1-.72.06c-.9,0-1.37-.5-1.37-1.47v-2.9h-.85v-.59H788l0-1.21.7-.06v1.27h1.08v.59h-1.08v3q0,.75.78.75a2.77,2.77,0,0,0,.58-.06Z"/><path d="M793.86,366.38v-2.92a2.13,2.13,0,0,0-.1-.87.91.91,0,0,0-.84-.54,1.33,1.33,0,0,0-.94.46,1.78,1.78,0,0,0-.4,1.27v2.6h-.75v-6.51h.75v2.58a1.55,1.55,0,0,1,1.48-1,1.48,1.48,0,0,1,1.26.63,2.07,2.07,0,0,1,.29,1.4v2.92Z"/><path d="M796.11,366.38v-4.82h.65v1.13a3.24,3.24,0,0,1,.5-.84,1.23,1.23,0,0,1,1-.42l.27,0v.71a1.54,1.54,0,0,0-1.62,1.67v2.55Z"/><path d="M803.13,364a2.28,2.28,0,0,1-2.23,2.48c-1.26,0-2.1-1-2.1-2.55a2.25,2.25,0,0,1,2.18-2.52C802.29,361.44,803.13,362.45,803.13,364ZM800,362.58a2.47,2.47,0,0,0-.33,1.37c0,1.24.49,1.94,1.34,1.94s1.35-.71,1.35-1.9a2.38,2.38,0,0,0-.34-1.42,1.32,1.32,0,0,0-1-.52A1.28,1.28,0,0,0,800,362.58Z"/><path d="M807.37,366.38v-.92a1.68,1.68,0,0,1-1.54,1.05c-1,0-1.58-.71-1.58-1.87v-3.08H805v3.08a1.35,1.35,0,0,0,.25.92.92.92,0,0,0,.7.33,1.49,1.49,0,0,0,1.34-1.61v-2.72H808v4.82Z"/><path d="M813.41,361.41c-.65,0-.85.12-.92.55a1.76,1.76,0,0,1,.46,1.16,1.68,1.68,0,0,1-1.85,1.6,1.61,1.61,0,0,1-.33,0l-.31-.05a.52.52,0,0,0-.51.46.37.37,0,0,0,.24.35,3.51,3.51,0,0,0,1.25.13c1,0,1.32.08,1.62.28a1.09,1.09,0,0,1,.53,1c0,.91-.82,1.38-2.42,1.38-1.44,0-2.2-.44-2.2-1.27a1,1,0,0,1,.73-1,.87.87,0,0,1-.46-.78c0-.39.17-.62.66-.85a1.54,1.54,0,0,1-.63-1.28,1.71,1.71,0,0,1,1.84-1.64,2.24,2.24,0,0,1,1,.22,1,1,0,0,1,.3-.62c.17-.17.36-.22.81-.22h.2Zm-3.72,5.44a.56.56,0,0,0,.18.41,2.28,2.28,0,0,0,1.36.36,3.78,3.78,0,0,0,1.14-.18.63.63,0,0,0,.51-.59.48.48,0,0,0-.33-.46c-.24-.11-.33-.12-1.17-.14-.48,0-.93,0-1.16-.07C809.82,366.38,809.69,366.54,809.69,366.85Zm.36-3.76a1.07,1.07,0,0,0,2.14,0,1,1,0,0,0-1.06-1.1A1,1,0,0,0,810.05,363.09Z"/><path d="M817.3,366.38v-2.92a2.4,2.4,0,0,0-.09-.87.91.91,0,0,0-.84-.54,1.29,1.29,0,0,0-.94.46,1.78,1.78,0,0,0-.4,1.27v2.6h-.75v-6.51H815v2.58a1.55,1.55,0,0,1,1.47-1,1.46,1.46,0,0,1,1.26.63,2,2,0,0,1,.3,1.4v2.92Z"/><path d="M824,362.15h-1.18v4.23h-.69v-4.23h-.85v-.59h.85a2.8,2.8,0,0,1,.16-1.07,1.26,1.26,0,0,1,1.28-.76,4.5,4.5,0,0,1,.71.07v.6a1.37,1.37,0,0,0-.45-.07c-.5,0-.81.16-.92.46s-.09.25-.09.77H824Z"/><path d="M824.92,366.38v-4.82h.66v1.13a3.24,3.24,0,0,1,.5-.84,1.22,1.22,0,0,1,.94-.42l.28,0v.71a1.54,1.54,0,0,0-1.62,1.67v2.55Z"/><path d="M832,364a2.28,2.28,0,0,1-2.23,2.48c-1.26,0-2.1-1-2.1-2.55a2.25,2.25,0,0,1,2.18-2.52C831.11,361.44,832,362.45,832,364Zm-3.18-1.45a2.47,2.47,0,0,0-.33,1.37c0,1.24.49,1.94,1.34,1.94s1.35-.71,1.35-1.9a2.38,2.38,0,0,0-.34-1.42,1.32,1.32,0,0,0-1-.52A1.28,1.28,0,0,0,828.77,362.58Z"/><path d="M838.79,366.38v-3c0-.53,0-.66-.15-.88a.93.93,0,0,0-.77-.43,1.2,1.2,0,0,0-.86.42,1.54,1.54,0,0,0-.37,1.16v2.72h-.73v-3.17a1.19,1.19,0,0,0-.22-.81,1,1,0,0,0-.72-.35,1.32,1.32,0,0,0-1.18,1.45v2.88h-.72v-4.82h.65v.93a1.63,1.63,0,0,1,1.48-1.05,1.36,1.36,0,0,1,1.35,1.15,1.65,1.65,0,0,1,1.52-1.15,1.43,1.43,0,0,1,1.23.68,2.17,2.17,0,0,1,.23,1.27v3Z"/><path d="M847.36,366.38h-3.83v-6.51h.83v5.8h3Z"/><path d="M849,360.7h-.81v-.83H849Zm0,5.68h-.75v-4.82H849Z"/><path d="M853.54,366.38v-3.1c0-.78-.35-1.2-1-1.2a1.48,1.48,0,0,0-1.35,1.65v2.65h-.75v-4.82h.69v.89c.5-.76.88-1,1.55-1a1.51,1.51,0,0,1,1.38.84,2.89,2.89,0,0,1,.18,1.32v2.78Z"/><path d="M858.94,366.38l-1.41-2.69-1,1.2v1.49h-.75v-6.51h.75V364l2.23-2.48h.81l-1.51,1.7,1.7,3.12Z"/><path d="M864.26,365.09a2.06,2.06,0,0,1-2,1.42A2.24,2.24,0,0,1,860,364a2.3,2.3,0,0,1,2.23-2.56,2,2,0,0,1,1.82,1.11,3.44,3.44,0,0,1,.28,1.49h-3.5a2.23,2.23,0,0,0,.19,1.12,1.38,1.38,0,0,0,1.23.73,1.35,1.35,0,0,0,1-.44,1.86,1.86,0,0,0,.29-.51Zm-.73-1.61a1.54,1.54,0,0,0-.27-1,1.16,1.16,0,0,0-1-.51,1.29,1.29,0,0,0-1,.5,1.64,1.64,0,0,0-.35,1Z"/><path d="M869.23,366.38h-.69v-.82a1.61,1.61,0,0,1-1.52,1c-1.13,0-1.93-1-1.93-2.5s.81-2.58,2-2.58a1.59,1.59,0,0,1,1.41.78v-2.35h.76Zm-.76-3a1.37,1.37,0,0,0-.28-.89,1.31,1.31,0,0,0-1-.5c-.78,0-1.27.75-1.27,1.89s.46,2,1.24,2a1.32,1.32,0,0,0,1-.49,1.42,1.42,0,0,0,.35-1Z"/><path d="M870.79,366.38v-6.51h.81v6.51Z"/><path d="M876.27,366.38v-3.1c0-.78-.35-1.2-1-1.2a1.48,1.48,0,0,0-1.34,1.65v2.65h-.76v-4.82h.7v.89c.5-.76.88-1,1.54-1a1.53,1.53,0,0,1,1.39.84,3.09,3.09,0,0,1,.17,1.32v2.78Z"/><path d="M884.52,366.38l-.66-1.91h-2.41l-.58,1.91h-.68l2.11-6.51h.94l2.12,6.51Zm-1.83-5.65-1,3.13h2Z"/><path d="M889.93,366.38h-.69v-.82a1.61,1.61,0,0,1-1.52,1c-1.13,0-1.93-1-1.93-2.5s.81-2.58,2-2.58a1.6,1.6,0,0,1,1.42.78v-2.35h.75Zm-.75-3a1.43,1.43,0,0,0-.29-.89,1.31,1.31,0,0,0-1-.5c-.77,0-1.27.75-1.27,1.89s.46,2,1.24,2a1.32,1.32,0,0,0,1-.49,1.47,1.47,0,0,0,.36-1Z"/><path d="M898.44,362.37h-1l-.24,1.35h1l-.1.59h-1l-.36,2.07h-.63l.37-2.07h-1.38l-.37,2.07h-.62l.37-2.07h-1l.1-.59h1l.24-1.35h-1l.11-.59h1l.33-1.91h.63l-.34,1.91h1.37l.34-1.91h.62l-.34,1.91h1Zm-3,0-.25,1.35h1.38l.24-1.35Z"/><path d="M904.32,366.38h-4.56v-.61h2v-5a7.15,7.15,0,0,1-1.79,1.41v-.82a6,6,0,0,0,2-1.59h.58v6h1.83Z"/><path d="M768.32,378.1h-.78l-2.2-6.51h.85L768,377l1.8-5.37h.71Z"/><path d="M772.08,372.42h-.81v-.83h.81Zm0,5.68h-.75v-4.81h.75Z"/><path d="M773.6,376.71a.92.92,0,0,0,.32.54,1.91,1.91,0,0,0,1.18.36c.67,0,1.13-.31,1.13-.78s-.28-.63-.83-.74l-1-.18c-.82-.16-1.3-.65-1.3-1.33,0-.85.73-1.42,1.82-1.42a1.76,1.76,0,0,1,1.9,1.22l-.69.15a1.18,1.18,0,0,0-1.23-.75c-.62,0-1,.28-1,.71s.24.58.75.67l.95.17c1,.17,1.46.64,1.46,1.42s-.79,1.48-2,1.48a2.38,2.38,0,0,1-1.64-.54,1.43,1.43,0,0,1-.5-.84Z"/><path d="M778.85,372.42H778v-.83h.81Zm0,5.68h-.75v-4.81h.75Z"/><path d="M782.49,378.18a4.12,4.12,0,0,1-.71.06c-.91,0-1.38-.5-1.38-1.47v-2.9h-.85v-.58h.85l0-1.21.7-.06v1.27h1.09v.58h-1.09v3c0,.5.27.75.79.75a2.68,2.68,0,0,0,.57-.06Z"/><path d="M787,376.81a2.06,2.06,0,0,1-2,1.42,2.24,2.24,0,0,1-2.2-2.51,2.3,2.3,0,0,1,2.23-2.56,2,2,0,0,1,1.82,1.11,3.44,3.44,0,0,1,.28,1.49h-3.5a2.21,2.21,0,0,0,.19,1.12,1.38,1.38,0,0,0,1.23.73,1.32,1.32,0,0,0,1-.44,1.77,1.77,0,0,0,.29-.5Zm-.73-1.61a1.51,1.51,0,0,0-.27-.95,1.14,1.14,0,0,0-1-.51,1.26,1.26,0,0,0-1,.5,1.58,1.58,0,0,0-.35,1Z"/><path d="M792,378.1h-.69v-.82a1.59,1.59,0,0,1-1.52,1c-1.13,0-1.93-1-1.93-2.5s.81-2.58,2-2.58a1.62,1.62,0,0,1,1.41.78v-2.35H792Zm-.76-3a1.37,1.37,0,0,0-.28-.89,1.3,1.3,0,0,0-1-.49c-.78,0-1.27.74-1.27,1.88s.46,2,1.24,2a1.3,1.3,0,0,0,1-.48,1.45,1.45,0,0,0,.35-1Z"/><path d="M798.41,378.1l-1.23-2-1.25,2h-.73l1.62-2.5-1.46-2.31h.86l1,1.64,1-1.64H799l-1.41,2.16,1.66,2.65Z"/><path d="M802.51,379.73v-6.44h.67v.94a1.61,1.61,0,0,1,1.52-1.07c1.14,0,1.91,1,1.91,2.53s-.78,2.54-1.92,2.54a1.54,1.54,0,0,1-1.43-.86v2.36Zm.75-3.38a1.38,1.38,0,0,0,1.28,1.26,1.22,1.22,0,0,0,.89-.44,2.35,2.35,0,0,0,.36-1.43c0-1.21-.47-1.92-1.25-1.92a1.38,1.38,0,0,0-1.28,1.19Z"/><path d="M810.75,378.1a4.8,4.8,0,0,1-.08-.87,1.7,1.7,0,0,1-1.69,1,1.51,1.51,0,0,1-1.68-1.46,1.48,1.48,0,0,1,.81-1.31,4.14,4.14,0,0,1,1.93-.36c.18,0,.32,0,.63,0V375c0-.91-.35-1.24-1.26-1.24-.73,0-1.17.3-1.29.88l-.7-.12a1.27,1.27,0,0,1,.36-.75,2.44,2.44,0,0,1,1.79-.59,1.76,1.76,0,0,1,1.5.57,2.22,2.22,0,0,1,.32,1.4v2.05a3.39,3.39,0,0,0,.11.93Zm-.72-2.43c-1.25,0-1.93.39-1.93,1.12,0,.52.4.86,1,.86a1.58,1.58,0,0,0,1.55-1.65v-.31Z"/><path d="M816.72,373.13c-.64,0-.85.12-.92.55a1.71,1.71,0,0,1,.46,1.16,1.67,1.67,0,0,1-1.84,1.6,1.72,1.72,0,0,1-.34,0l-.31-.05a.53.53,0,0,0-.51.46.36.36,0,0,0,.25.35,3.46,3.46,0,0,0,1.25.13c1,0,1.32.08,1.62.28a1.11,1.11,0,0,1,.53,1c0,.91-.82,1.38-2.42,1.38-1.44,0-2.2-.44-2.2-1.27a1,1,0,0,1,.73-1,.87.87,0,0,1-.47-.78c0-.39.18-.61.67-.85a1.54,1.54,0,0,1-.63-1.28,1.7,1.7,0,0,1,1.84-1.64,2.05,2.05,0,0,1,1,.23,1,1,0,0,1,.31-.63c.16-.16.36-.21.81-.21h.19ZM813,378.57a.54.54,0,0,0,.18.41,2.2,2.2,0,0,0,1.35.36,4.26,4.26,0,0,0,1.15-.17.63.63,0,0,0,.5-.6.47.47,0,0,0-.33-.46c-.23-.11-.32-.11-1.16-.13-.49,0-.94,0-1.16-.07C813.14,378.1,813,378.27,813,378.57Zm.35-3.76a1.08,1.08,0,0,0,2.15,0,1,1,0,0,0-1.06-1.09A1,1,0,0,0,813.36,374.81Z"/><path d="M821.3,376.81a2.06,2.06,0,0,1-2,1.42,2.24,2.24,0,0,1-2.2-2.51,2.3,2.3,0,0,1,2.23-2.56,2,2,0,0,1,1.82,1.11,3.44,3.44,0,0,1,.28,1.49h-3.5a2.21,2.21,0,0,0,.19,1.12,1.38,1.38,0,0,0,1.23.73,1.32,1.32,0,0,0,1-.44,1.77,1.77,0,0,0,.29-.5Zm-.73-1.61a1.51,1.51,0,0,0-.27-.95,1.14,1.14,0,0,0-1-.51,1.26,1.26,0,0,0-1,.5,1.58,1.58,0,0,0-.35,1Z"/><path d="M822.64,376.71a.92.92,0,0,0,.32.54,1.91,1.91,0,0,0,1.18.36c.67,0,1.13-.31,1.13-.78s-.28-.63-.83-.74l-1-.18c-.82-.16-1.29-.65-1.29-1.33,0-.85.72-1.42,1.81-1.42a1.76,1.76,0,0,1,1.9,1.22l-.69.15a1.18,1.18,0,0,0-1.23-.75c-.62,0-1,.28-1,.71s.24.58.75.67l1,.17c1,.17,1.46.64,1.46,1.42s-.79,1.48-2,1.48a2.4,2.4,0,0,1-1.64-.54,1.43,1.43,0,0,1-.5-.84Z"/><path d="M830.33,372.42h-.81v-.83h.81Zm0,5.68h-.75v-4.81h.75Z"/><path d="M834.89,378.1V375c0-.78-.35-1.2-1-1.2a1.48,1.48,0,0,0-1.35,1.65v2.64h-.75v-4.81h.69v.89c.5-.76.88-1,1.54-1a1.51,1.51,0,0,1,1.39.84,3,3,0,0,1,.18,1.32v2.78Z"/><path d="M845.08,378.1v-5.68L843,378.1h-.55l-2.13-5.68v5.68h-.7v-6.51h1.21l2,5.2,1.92-5.2h1.19v6.51Z"/><path d="M847.53,376.21a1.81,1.81,0,0,0,1.92,1.33c1,0,1.56-.45,1.56-1.2,0-.49-.36-.86-1-1l-1.3-.33a2.37,2.37,0,0,1-1.08-.49,1.67,1.67,0,0,1-.52-1.26c0-1.07.87-1.78,2.19-1.78a2.27,2.27,0,0,1,2.33,1.6l-.74.21a1.12,1.12,0,0,0-.41-.7,1.8,1.8,0,0,0-1.21-.44c-.79,0-1.37.45-1.37,1.06s.3.8,1.06,1l1.21.29c1.11.26,1.68.87,1.68,1.8,0,1.19-1,2-2.41,2a2.68,2.68,0,0,1-1.91-.65,2.84,2.84,0,0,1-.75-1.22Z"/><path d="M858.55,378.1v-5.68l-2.11,5.68h-.55l-2.13-5.68v5.68h-.7v-6.51h1.22l2,5.2,1.92-5.2h1.19v6.51Z"/><path d="M861,378.1v-6.51h.81v6.51Z"/><path d="M864.52,378.1v-5.8h-1.86v-.71h4.54v.71h-1.87v5.8Z"/><path d="M870.49,379.73v-6.44h.68v.94a1.6,1.6,0,0,1,1.51-1.07c1.14,0,1.91,1,1.91,2.53s-.78,2.54-1.92,2.54a1.53,1.53,0,0,1-1.42-.86v2.36Zm.76-3.38a1.38,1.38,0,0,0,1.27,1.26,1.18,1.18,0,0,0,.89-.44,2.29,2.29,0,0,0,.36-1.43c0-1.21-.46-1.92-1.25-1.92a1.38,1.38,0,0,0-1.27,1.19Z"/><path d="M878.74,378.1a5.52,5.52,0,0,1-.09-.87,1.69,1.69,0,0,1-1.69,1,1.51,1.51,0,0,1-1.68-1.46,1.48,1.48,0,0,1,.81-1.31,4.14,4.14,0,0,1,1.93-.36c.18,0,.33,0,.63,0V375c0-.91-.34-1.24-1.26-1.24a1.15,1.15,0,0,0-1.29.88l-.69-.12a1.21,1.21,0,0,1,.36-.75,2.41,2.41,0,0,1,1.79-.59,1.73,1.73,0,0,1,1.49.57,2.22,2.22,0,0,1,.32,1.4v2.05a3.39,3.39,0,0,0,.11.93Zm-.73-2.43c-1.25,0-1.93.39-1.93,1.12,0,.52.4.86,1,.86a1.58,1.58,0,0,0,1.55-1.65c0-.08,0-.18,0-.31Z"/><path d="M884.71,373.13c-.65,0-.85.12-.92.55a1.76,1.76,0,0,1,.46,1.16,1.67,1.67,0,0,1-1.85,1.6,1.61,1.61,0,0,1-.33,0l-.31-.05a.52.52,0,0,0-.51.46.36.36,0,0,0,.24.35,3.51,3.51,0,0,0,1.25.13c1,0,1.32.08,1.62.28a1.09,1.09,0,0,1,.53,1c0,.91-.82,1.38-2.42,1.38-1.44,0-2.2-.44-2.2-1.27a1,1,0,0,1,.73-1,.86.86,0,0,1-.46-.78c0-.39.17-.61.66-.85a1.53,1.53,0,0,1-.62-1.28,1.7,1.7,0,0,1,1.83-1.64,2.12,2.12,0,0,1,1,.23,1,1,0,0,1,.3-.63c.17-.16.36-.21.81-.21h.2ZM881,378.57a.53.53,0,0,0,.17.41,2.21,2.21,0,0,0,1.36.36,4.13,4.13,0,0,0,1.14-.17.65.65,0,0,0,.51-.6.48.48,0,0,0-.33-.46c-.24-.11-.33-.11-1.17-.13-.48,0-.93,0-1.16-.07C881.12,378.1,881,378.27,881,378.57Zm.35-3.76a1,1,0,0,0,1.07,1.06,1,1,0,0,0,1.08-1,1.05,1.05,0,0,0-1.07-1.09A1,1,0,0,0,881.35,374.81Z"/><path d="M889.29,376.81a2.08,2.08,0,0,1-2,1.42,2.25,2.25,0,0,1-2.21-2.51,2.31,2.31,0,0,1,2.24-2.56,1.94,1.94,0,0,1,1.81,1.11,3.29,3.29,0,0,1,.29,1.49h-3.51a2.32,2.32,0,0,0,.19,1.12,1.39,1.39,0,0,0,1.23.73,1.29,1.29,0,0,0,1-.44,1.4,1.4,0,0,0,.29-.5Zm-.74-1.61a1.45,1.45,0,0,0-.27-.95,1.12,1.12,0,0,0-1-.51,1.28,1.28,0,0,0-1,.5,1.64,1.64,0,0,0-.34,1Z"/><path d="M890.63,376.71a.91.91,0,0,0,.31.54,1.91,1.91,0,0,0,1.18.36c.67,0,1.13-.31,1.13-.78s-.28-.63-.83-.74l-1-.18c-.82-.16-1.3-.65-1.3-1.33,0-.85.72-1.42,1.82-1.42a1.75,1.75,0,0,1,1.89,1.22l-.68.15a1.2,1.2,0,0,0-1.23-.75c-.63,0-1,.28-1,.71s.25.58.75.67l1,.17c1,.17,1.47.64,1.47,1.42s-.8,1.48-2,1.48a2.4,2.4,0,0,1-1.64-.54,1.48,1.48,0,0,1-.5-.84Z"/><path d="M785.57,383.31h2.18a2.67,2.67,0,0,1,1.94.71,3.44,3.44,0,0,1,1,2.52c0,1.89-1.12,3.29-2.64,3.29h-2.46Zm2.14,5.82a1.91,1.91,0,0,0,1.43-.54,3,3,0,0,0,.7-2,2.93,2.93,0,0,0-.68-2,1.84,1.84,0,0,0-1.46-.56h-1.32v5.13Z"/><path d="M795.79,387.47a2.28,2.28,0,0,1-2.23,2.48c-1.26,0-2.1-1-2.1-2.55a2.26,2.26,0,0,1,2.18-2.52C795,384.88,795.79,385.9,795.79,387.47ZM792.62,386a2.38,2.38,0,0,0-.33,1.36c0,1.24.48,1.95,1.33,1.95s1.35-.72,1.35-1.91a2.36,2.36,0,0,0-.34-1.41,1.29,1.29,0,0,0-1-.52A1.22,1.22,0,0,0,792.62,386Z"/><path d="M800.93,389.83h-.61l-1.07-3.58-1,3.58h-.61L796.2,385H797l1,3.58,1-3.58h.54l1.08,3.6,1.08-3.6h.61Z"/><path d="M806.35,389.83v-3.1c0-.78-.35-1.2-1-1.2a1.47,1.47,0,0,0-1.35,1.65v2.65h-.75V385H804v.89c.5-.76.88-1,1.54-1a1.53,1.53,0,0,1,1.39.84,3,3,0,0,1,.17,1.32v2.79Z"/><path d="M808.55,389.83v-6.52h.75v6.52Z"/><path d="M814.74,387.47a2.27,2.27,0,0,1-2.22,2.48c-1.26,0-2.1-1-2.1-2.55a2.26,2.26,0,0,1,2.17-2.52C813.9,384.88,814.74,385.9,814.74,387.47ZM811.57,386a2.38,2.38,0,0,0-.33,1.36c0,1.24.49,1.95,1.34,1.95s1.34-.72,1.34-1.91a2.29,2.29,0,0,0-.34-1.41,1.26,1.26,0,0,0-1-.52A1.22,1.22,0,0,0,811.57,386Z"/><path d="M818.9,389.83a5.85,5.85,0,0,1-.09-.87,1.7,1.7,0,0,1-1.69,1,1.5,1.5,0,0,1-1.68-1.45,1.48,1.48,0,0,1,.81-1.32,4.16,4.16,0,0,1,1.93-.35c.18,0,.32,0,.63,0v-.16c0-.91-.34-1.24-1.26-1.24a1.15,1.15,0,0,0-1.29.88l-.69-.12a1.19,1.19,0,0,1,.36-.75,2.4,2.4,0,0,1,1.78-.59,1.75,1.75,0,0,1,1.5.57,2.24,2.24,0,0,1,.32,1.41v2a3.51,3.51,0,0,0,.11.94Zm-.73-2.44c-1.25,0-1.93.39-1.93,1.13,0,.51.4.86,1,.86a1.59,1.59,0,0,0,1.56-1.65c0-.09,0-.19,0-.32Z"/><path d="M824.79,389.83h-.69V389a1.59,1.59,0,0,1-1.52,1c-1.13,0-1.93-1-1.93-2.5s.81-2.58,2-2.58a1.6,1.6,0,0,1,1.41.79v-2.36h.76Zm-.76-3a1.35,1.35,0,0,0-.28-.89,1.28,1.28,0,0,0-1-.5c-.78,0-1.27.74-1.27,1.88s.45,2,1.24,2a1.32,1.32,0,0,0,1-.49,1.43,1.43,0,0,0,.35-1Z"/><path d="M830.16,388.54a2.07,2.07,0,0,1-2,1.41,2.24,2.24,0,0,1-2.21-2.51,2.31,2.31,0,0,1,2.24-2.56A1.93,1.93,0,0,1,830,386a3.27,3.27,0,0,1,.29,1.48h-3.51a2.19,2.19,0,0,0,.2,1.12,1.38,1.38,0,0,0,1.23.74,1.32,1.32,0,0,0,1-.44,1.75,1.75,0,0,0,.3-.51Zm-.73-1.62a1.47,1.47,0,0,0-.28-.95,1.13,1.13,0,0,0-1-.51,1.32,1.32,0,0,0-1,.5,1.67,1.67,0,0,0-.34,1Z"/><path d="M835.12,389.83h-.68V389a1.59,1.59,0,0,1-1.52,1c-1.14,0-1.94-1-1.94-2.5s.81-2.58,2-2.58a1.61,1.61,0,0,1,1.42.79v-2.36h.75Zm-.75-3a1.47,1.47,0,0,0-.28-.89,1.31,1.31,0,0,0-1-.5c-.77,0-1.27.74-1.27,1.88s.46,2,1.24,2a1.35,1.35,0,0,0,1-.49,1.53,1.53,0,0,0,.35-1Z"/><path d="M839.07,389.83v-6.52h.75v2.5a1.53,1.53,0,0,1,1.42-.93c1.16,0,2,1,2,2.51s-.82,2.56-2,2.56a1.63,1.63,0,0,1-1.5-.93l-.28.81Zm.75-1.89a1.62,1.62,0,0,0,.3.9,1.33,1.33,0,0,0,1,.5c.77,0,1.27-.73,1.27-1.85A3,3,0,0,0,842,386a1.07,1.07,0,0,0-.88-.45,1.26,1.26,0,0,0-.93.45,1.62,1.62,0,0,0-.38.91Z"/><path d="M844.32,389.83V385H845v1.12a4,4,0,0,1,.5-.84,1.26,1.26,0,0,1,.95-.42l.27,0v.72a1.54,1.54,0,0,0-1.62,1.67v2.55Z"/><path d="M851.34,387.47a2.28,2.28,0,0,1-2.23,2.48c-1.26,0-2.1-1-2.1-2.55a2.26,2.26,0,0,1,2.18-2.52C850.5,384.88,851.34,385.9,851.34,387.47ZM848.17,386a2.37,2.37,0,0,0-.34,1.36c0,1.24.49,1.95,1.34,1.95s1.35-.72,1.35-1.91a2.36,2.36,0,0,0-.34-1.41,1.29,1.29,0,0,0-1-.52A1.22,1.22,0,0,0,848.17,386Z"/><path d="M856,388.25a1.94,1.94,0,0,1-.57,1.18,1.68,1.68,0,0,1-1.3.52c-1.23,0-2-1-2-2.53s.82-2.54,2.07-2.54a1.79,1.79,0,0,1,1.83,1.68l-.67.13a1.53,1.53,0,0,0-.26-.73,1.11,1.11,0,0,0-.91-.46c-.79,0-1.28.73-1.28,1.9s.47,1.94,1.27,1.94c.61,0,1-.41,1.18-1.2Z"/><path d="M860,389.83v-2.92a2.16,2.16,0,0,0-.09-.87.89.89,0,0,0-.84-.54,1.27,1.27,0,0,0-.94.46,1.78,1.78,0,0,0-.4,1.27v2.6h-.75v-6.52h.75v2.59a1.56,1.56,0,0,1,1.47-1,1.47,1.47,0,0,1,1.26.64c.25.35.3.59.3,1.4v2.92Z"/><path d="M865.33,389.83v-.92a1.67,1.67,0,0,1-1.54,1c-1,0-1.58-.7-1.58-1.86V385H863v3.08a1.3,1.3,0,0,0,.25.91.9.9,0,0,0,.7.34,1.5,1.5,0,0,0,1.34-1.61V385H866v4.82Z"/><path d="M867.5,389.83V385h.65v1.12a4,4,0,0,1,.5-.84,1.3,1.3,0,0,1,1-.42l.27,0v.72a1.54,1.54,0,0,0-1.62,1.67v2.55Z"/><path d="M874.43,388.54a2.06,2.06,0,0,1-2,1.41,2.24,2.24,0,0,1-2.21-2.51,2.31,2.31,0,0,1,2.24-2.56,2,2,0,0,1,1.82,1.12,3.42,3.42,0,0,1,.28,1.48H871a2.19,2.19,0,0,0,.2,1.12,1.38,1.38,0,0,0,1.23.74,1.35,1.35,0,0,0,1-.44,2,2,0,0,0,.29-.51Zm-.73-1.62a1.53,1.53,0,0,0-.27-.95,1.16,1.16,0,0,0-1-.51,1.29,1.29,0,0,0-1,.5,1.6,1.6,0,0,0-.35,1Z"/><path d="M763.7,399.65a1.81,1.81,0,0,0,1.92,1.33c1,0,1.56-.45,1.56-1.19,0-.5-.36-.87-1-1l-1.3-.34a2.27,2.27,0,0,1-1.08-.48,1.7,1.7,0,0,1-.52-1.26c0-1.07.88-1.78,2.19-1.78a2.26,2.26,0,0,1,2.33,1.6l-.73.2a1.25,1.25,0,0,0-.41-.7,1.89,1.89,0,0,0-1.21-.44c-.8,0-1.38.45-1.38,1.07s.3.8,1.06,1l1.21.3c1.12.26,1.68.87,1.68,1.79,0,1.19-.94,2-2.41,2a2.66,2.66,0,0,1-1.9-.65,2.84,2.84,0,0,1-.76-1.22Z"/><path d="M769.89,395.87h-.81V395h.81Zm0,5.68h-.75v-4.82h.75Z"/><path d="M775.22,396.58c-.64,0-.85.12-.91.55a1.75,1.75,0,0,1,.45,1.16,1.67,1.67,0,0,1-1.84,1.6,1.55,1.55,0,0,1-.33,0l-.32-.05a.52.52,0,0,0-.5.46.36.36,0,0,0,.24.35,3.51,3.51,0,0,0,1.25.13c1,0,1.32.08,1.62.28a1.11,1.11,0,0,1,.53,1c0,.91-.82,1.38-2.42,1.38-1.44,0-2.2-.44-2.2-1.27a1,1,0,0,1,.73-1,.88.88,0,0,1-.47-.78c0-.39.18-.62.67-.85a1.54,1.54,0,0,1-.63-1.28,1.7,1.7,0,0,1,1.84-1.64,2.24,2.24,0,0,1,1,.22.94.94,0,0,1,.3-.62c.16-.17.36-.22.81-.22h.19ZM771.51,402a.56.56,0,0,0,.18.41,2.28,2.28,0,0,0,1.36.36,3.78,3.78,0,0,0,1.14-.18.63.63,0,0,0,.51-.59.47.47,0,0,0-.34-.46c-.23-.11-.32-.12-1.16-.14-.49,0-.94,0-1.16-.07C771.64,401.55,771.51,401.71,771.51,402Zm.35-3.76a1.08,1.08,0,0,0,2.15,0,1.05,1.05,0,0,0-1.06-1.1A1,1,0,0,0,771.86,398.26Z"/><path d="M779.19,401.55v-3.1c0-.78-.35-1.2-1-1.2a1.48,1.48,0,0,0-1.34,1.65v2.65h-.76v-4.82h.7v.89c.5-.76.88-1,1.54-1a1.53,1.53,0,0,1,1.39.84,3.09,3.09,0,0,1,.17,1.32v2.78Z"/><path d="M785.26,400.26a2.08,2.08,0,0,1-2,1.42,2.25,2.25,0,0,1-2.21-2.51,2.3,2.3,0,0,1,2.24-2.56,1.94,1.94,0,0,1,1.81,1.11,3.3,3.3,0,0,1,.28,1.49h-3.5a2.35,2.35,0,0,0,.19,1.12,1.39,1.39,0,0,0,1.23.73,1.32,1.32,0,0,0,1-.44,1.46,1.46,0,0,0,.29-.51Zm-.74-1.61a1.48,1.48,0,0,0-.27-1,1.15,1.15,0,0,0-1-.51,1.29,1.29,0,0,0-1,.5,1.63,1.63,0,0,0-.34,1Z"/><path d="M790.22,401.55h-.68v-.82a1.62,1.62,0,0,1-1.53,1c-1.13,0-1.93-1-1.93-2.5s.81-2.58,2-2.58a1.6,1.6,0,0,1,1.42.78V395h.75Zm-.75-3a1.43,1.43,0,0,0-.29-.89,1.31,1.31,0,0,0-1-.5c-.77,0-1.27.75-1.27,1.89s.46,2,1.24,2a1.35,1.35,0,0,0,1-.49,1.52,1.52,0,0,0,.35-1Z"/><path d="M797.28,401.55v-.92a1.67,1.67,0,0,1-1.53,1.05c-1,0-1.58-.71-1.58-1.87v-3.08h.75v3.08a1.41,1.41,0,0,0,.24.92.94.94,0,0,0,.71.33,1.49,1.49,0,0,0,1.33-1.61v-2.72H798v4.82Z"/><path d="M799.45,403.18v-6.45h.68v.94a1.61,1.61,0,0,1,1.51-1.06c1.14,0,1.91,1,1.91,2.53s-.78,2.54-1.92,2.54a1.56,1.56,0,0,1-1.43-.86v2.36Zm.75-3.38a1.4,1.4,0,0,0,1.28,1.26,1.16,1.16,0,0,0,.89-.45,2.24,2.24,0,0,0,.36-1.42c0-1.22-.47-1.93-1.25-1.93a1.4,1.4,0,0,0-1.28,1.19Z"/><path d="M809.1,397.32h-1.17v4.23h-.69v-4.23h-.85v-.59h.85a3.07,3.07,0,0,1,.15-1.07,1.28,1.28,0,0,1,1.28-.76,4.61,4.61,0,0,1,.72.07v.6a1.41,1.41,0,0,0-.45-.07c-.5,0-.81.16-.92.46s-.09.25-.09.77h1.17Z"/><path d="M813.8,399.2a2.28,2.28,0,0,1-2.22,2.48c-1.26,0-2.1-1-2.1-2.55a2.25,2.25,0,0,1,2.17-2.52C813,396.61,813.8,397.62,813.8,399.2Zm-3.17-1.45a2.39,2.39,0,0,0-.33,1.37c0,1.24.48,1.94,1.33,1.94s1.35-.71,1.35-1.9a2.38,2.38,0,0,0-.34-1.42,1.3,1.3,0,0,0-1-.52A1.24,1.24,0,0,0,810.63,397.75Z"/><path d="M814.93,401.55v-4.82h.65v1.13a3.55,3.55,0,0,1,.5-.84,1.24,1.24,0,0,1,.95-.42l.27,0v.71a1.54,1.54,0,0,0-1.62,1.67v2.55Z"/><path d="M824.53,399.2a2.28,2.28,0,0,1-2.23,2.48c-1.26,0-2.1-1-2.1-2.55a2.25,2.25,0,0,1,2.18-2.52C823.69,396.61,824.53,397.62,824.53,399.2Zm-3.18-1.45a2.47,2.47,0,0,0-.33,1.37c0,1.24.49,1.94,1.34,1.94s1.35-.71,1.35-1.9a2.38,2.38,0,0,0-.34-1.42,1.32,1.32,0,0,0-1-.52A1.28,1.28,0,0,0,821.35,397.75Z"/><path d="M828.75,401.55v-3.1c0-.78-.35-1.2-1-1.2a1.48,1.48,0,0,0-1.34,1.65v2.65h-.76v-4.82h.7v.89c.49-.76.88-1,1.54-1a1.53,1.53,0,0,1,1.39.84,3.09,3.09,0,0,1,.17,1.32v2.78Z"/><path d="M831,401.55V395h.75v6.51Z"/><path d="M834,395.87h-.81V395H834Zm0,5.68h-.75v-4.82h.75Z"/><path d="M838.53,401.55v-3.1c0-.78-.35-1.2-1-1.2a1.48,1.48,0,0,0-1.35,1.65v2.65h-.75v-4.82h.69v.89c.5-.76.88-1,1.55-1a1.51,1.51,0,0,1,1.38.84,2.89,2.89,0,0,1,.18,1.32v2.78Z"/><path d="M844.59,400.26a2.06,2.06,0,0,1-2,1.42,2.24,2.24,0,0,1-2.2-2.51,2.3,2.3,0,0,1,2.23-2.56,2,2,0,0,1,1.82,1.11,3.44,3.44,0,0,1,.28,1.49h-3.5a2.23,2.23,0,0,0,.19,1.12,1.38,1.38,0,0,0,1.23.73,1.35,1.35,0,0,0,1-.44,1.86,1.86,0,0,0,.29-.51Zm-.73-1.61a1.54,1.54,0,0,0-.27-1,1.16,1.16,0,0,0-1-.51,1.29,1.29,0,0,0-1,.5,1.64,1.64,0,0,0-.35,1Z"/><path d="M849,395.87h-.81V395H849Zm0,5.68h-.75v-4.82H849Z"/><path d="M853.58,401.55v-3.1c0-.78-.35-1.2-1-1.2a1.48,1.48,0,0,0-1.35,1.65v2.65h-.75v-4.82h.69v.89c.5-.76.88-1,1.54-1a1.51,1.51,0,0,1,1.39.84,2.89,2.89,0,0,1,.18,1.32v2.78Z"/><path d="M857.77,397.32H856.6v4.23h-.69v-4.23h-.85v-.59h.85a3.07,3.07,0,0,1,.15-1.07,1.28,1.28,0,0,1,1.28-.76,4.61,4.61,0,0,1,.72.07v.6a1.41,1.41,0,0,0-.45-.07c-.5,0-.81.16-.92.46s-.09.25-.09.77h1.17Z"/><path d="M862.47,399.2a2.28,2.28,0,0,1-2.22,2.48c-1.26,0-2.1-1-2.1-2.55a2.25,2.25,0,0,1,2.17-2.52C861.63,396.61,862.47,397.62,862.47,399.2Zm-3.17-1.45a2.39,2.39,0,0,0-.33,1.37c0,1.24.48,1.94,1.33,1.94s1.35-.71,1.35-1.9a2.38,2.38,0,0,0-.34-1.42,1.3,1.3,0,0,0-1-.52A1.24,1.24,0,0,0,859.3,397.75Z"/><path d="M866.1,400.15a.94.94,0,0,0,.31.55,2,2,0,0,0,1.18.36c.68,0,1.13-.31,1.13-.78s-.28-.64-.83-.74l-1-.19a1.37,1.37,0,0,1-1.3-1.33c0-.85.72-1.41,1.82-1.41a1.75,1.75,0,0,1,1.89,1.22l-.68.14a1.21,1.21,0,0,0-1.23-.75c-.63,0-1,.29-1,.72s.25.57.75.67l.95.17c1,.17,1.47.64,1.47,1.42s-.8,1.48-2,1.48a2.4,2.4,0,0,1-1.64-.54,1.52,1.52,0,0,1-.5-.84Z"/><path d="M874.44,400.26a2.07,2.07,0,0,1-2,1.42,2.25,2.25,0,0,1-2.21-2.51,2.3,2.3,0,0,1,2.24-2.56,1.94,1.94,0,0,1,1.81,1.11,3.29,3.29,0,0,1,.29,1.49H871a2.22,2.22,0,0,0,.2,1.12,1.37,1.37,0,0,0,1.23.73,1.32,1.32,0,0,0,1-.44,1.62,1.62,0,0,0,.3-.51Zm-.73-1.61a1.48,1.48,0,0,0-.28-1,1.13,1.13,0,0,0-1-.51,1.32,1.32,0,0,0-1,.5,1.7,1.7,0,0,0-.34,1Z"/><path d="M875.78,400.15a.94.94,0,0,0,.31.55,2,2,0,0,0,1.18.36c.68,0,1.14-.31,1.14-.78s-.29-.64-.83-.74l-1-.19a1.37,1.37,0,0,1-1.3-1.33c0-.85.72-1.41,1.82-1.41a1.75,1.75,0,0,1,1.89,1.22l-.68.14a1.21,1.21,0,0,0-1.23-.75c-.63,0-1,.29-1,.72s.25.57.75.67l1,.17c1,.17,1.47.64,1.47,1.42s-.79,1.48-2,1.48a2.4,2.4,0,0,1-1.64-.54,1.46,1.46,0,0,1-.49-.84Z"/><path d="M880.47,400.15a.94.94,0,0,0,.31.55,2,2,0,0,0,1.18.36c.68,0,1.13-.31,1.13-.78s-.28-.64-.83-.74l-1-.19A1.37,1.37,0,0,1,880,398c0-.85.72-1.41,1.82-1.41a1.75,1.75,0,0,1,1.89,1.22L883,398a1.21,1.21,0,0,0-1.23-.75c-.63,0-1,.29-1,.72s.25.57.75.67l.95.17c1,.17,1.47.64,1.47,1.42s-.8,1.48-2,1.48a2.4,2.4,0,0,1-1.64-.54,1.52,1.52,0,0,1-.5-.84Z"/><path d="M885.71,395.87h-.81V395h.81Zm0,5.68h-.75v-4.82h.75Z"/><path d="M891.12,399.2a2.27,2.27,0,0,1-2.22,2.48c-1.26,0-2.1-1-2.1-2.55a2.25,2.25,0,0,1,2.18-2.52C890.28,396.61,891.12,397.62,891.12,399.2ZM888,397.75a2.47,2.47,0,0,0-.33,1.37c0,1.24.49,1.94,1.34,1.94s1.34-.71,1.34-1.9a2.31,2.31,0,0,0-.34-1.42,1.28,1.28,0,0,0-1-.52A1.26,1.26,0,0,0,888,397.75Z"/><path d="M895.34,401.55v-3.1c0-.78-.35-1.2-1-1.2A1.48,1.48,0,0,0,893,398.9v2.65h-.75v-4.82h.69v.89c.5-.76.88-1,1.55-1a1.51,1.51,0,0,1,1.38.84,2.89,2.89,0,0,1,.18,1.32v2.78Z"/><path d="M787,413.27l-1.2-2.82h-1.87v2.82h-.76v-6.51h2.56a1.86,1.86,0,0,1,2.06,1.82,1.94,1.94,0,0,1-.45,1.21,1.52,1.52,0,0,1-.76.46l1.28,3Zm-1.37-3.48a1.28,1.28,0,0,0,1-.37,1.23,1.23,0,0,0,.33-.86c0-.67-.48-1.09-1.25-1.09h-1.8v2.32Z"/><path d="M792.82,412a2.06,2.06,0,0,1-2,1.42,2.25,2.25,0,0,1-2.21-2.51,2.31,2.31,0,0,1,2.24-2.56,2,2,0,0,1,1.82,1.11,3.44,3.44,0,0,1,.28,1.49H789.4a2.22,2.22,0,0,0,.2,1.12,1.37,1.37,0,0,0,1.23.73,1.28,1.28,0,0,0,1-.44,1.55,1.55,0,0,0,.3-.5Zm-.73-1.61a1.56,1.56,0,0,0-.27-1,1.16,1.16,0,0,0-1-.5,1.31,1.31,0,0,0-1,.49,1.7,1.7,0,0,0-.34,1Z"/><path d="M797.55,411.7a1.94,1.94,0,0,1-.57,1.18,1.71,1.71,0,0,1-1.3.52c-1.23,0-2-1-2-2.53s.82-2.54,2.07-2.54a1.79,1.79,0,0,1,1.83,1.68l-.67.13a1.62,1.62,0,0,0-.26-.74,1.1,1.1,0,0,0-.91-.45c-.79,0-1.28.73-1.28,1.9s.47,1.93,1.27,1.93c.61,0,1-.41,1.18-1.2Z"/><path d="M802.44,412a2.06,2.06,0,0,1-2,1.42,2.24,2.24,0,0,1-2.2-2.51,2.3,2.3,0,0,1,2.23-2.56,2,2,0,0,1,1.82,1.11,3.44,3.44,0,0,1,.28,1.49H799a2.35,2.35,0,0,0,.19,1.12,1.38,1.38,0,0,0,1.23.73,1.32,1.32,0,0,0,1-.44,1.56,1.56,0,0,0,.29-.5Zm-.73-1.61a1.56,1.56,0,0,0-.27-1,1.16,1.16,0,0,0-1-.5,1.28,1.28,0,0,0-1,.49,1.57,1.57,0,0,0-.34,1Z"/><path d="M804.43,407.59h-.81v-.83h.81Zm0,5.68h-.75v-4.81h.75Z"/><path d="M807.69,413.27h-.78l-1.72-4.81H806l1.34,3.91,1.33-3.91h.66Z"/><path d="M813.94,412a2.06,2.06,0,0,1-2,1.42,2.25,2.25,0,0,1-2.21-2.51,2.31,2.31,0,0,1,2.24-2.56,2,2,0,0,1,1.82,1.11,3.44,3.44,0,0,1,.28,1.49h-3.51a2.22,2.22,0,0,0,.2,1.12,1.37,1.37,0,0,0,1.23.73,1.32,1.32,0,0,0,1-.44,1.77,1.77,0,0,0,.29-.5Zm-.73-1.61a1.56,1.56,0,0,0-.27-1,1.16,1.16,0,0,0-1-.5,1.28,1.28,0,0,0-1,.49,1.64,1.64,0,0,0-.35,1Z"/><path d="M818.91,413.27h-.69v-.82a1.61,1.61,0,0,1-1.52,1c-1.13,0-1.94-1-1.94-2.5s.82-2.58,2-2.58a1.59,1.59,0,0,1,1.41.78v-2.35h.76Zm-.76-3a1.43,1.43,0,0,0-.28-.89,1.3,1.3,0,0,0-1-.49c-.77,0-1.27.74-1.27,1.88s.46,2,1.25,2a1.28,1.28,0,0,0,1-.49,1.45,1.45,0,0,0,.35-1Z"/><path d="M822.85,413.27v-4.81h.66v1.12a3.43,3.43,0,0,1,.5-.84,1.26,1.26,0,0,1,.94-.42l.28,0v.71a1.54,1.54,0,0,0-1.62,1.67v2.55Z"/><path d="M829.79,412a2.07,2.07,0,0,1-2,1.42,2.25,2.25,0,0,1-2.21-2.51,2.31,2.31,0,0,1,2.24-2.56,1.94,1.94,0,0,1,1.81,1.11,3.29,3.29,0,0,1,.29,1.49h-3.51a2.22,2.22,0,0,0,.2,1.12,1.37,1.37,0,0,0,1.23.73,1.28,1.28,0,0,0,1-.44,1.4,1.4,0,0,0,.29-.5Zm-.73-1.61a1.5,1.5,0,0,0-.28-1,1.13,1.13,0,0,0-1-.5,1.3,1.3,0,0,0-1,.49,1.7,1.7,0,0,0-.34,1Z"/><path d="M833.11,413.35a4.12,4.12,0,0,1-.71.06c-.91,0-1.38-.5-1.38-1.47V409h-.85v-.58H831l0-1.21.7-.06v1.27h1.09V409h-1.09v3a.68.68,0,0,0,.78.75,2.71,2.71,0,0,0,.58-.06Z"/><path d="M837,413.27a5.52,5.52,0,0,1-.09-.87,1.69,1.69,0,0,1-1.69,1,1.51,1.51,0,0,1-1.68-1.46,1.48,1.48,0,0,1,.81-1.31,4.17,4.17,0,0,1,1.93-.36c.18,0,.33,0,.63,0v-.15c0-.91-.34-1.24-1.26-1.24a1.15,1.15,0,0,0-1.29.88l-.69-.12a1.21,1.21,0,0,1,.36-.75,2.43,2.43,0,0,1,1.79-.59,1.73,1.73,0,0,1,1.49.57,2.22,2.22,0,0,1,.32,1.4v2a3.42,3.42,0,0,0,.11.94Zm-.72-2.43c-1.25,0-1.94.39-1.94,1.12,0,.52.4.86,1,.86a1.58,1.58,0,0,0,1.55-1.65c0-.09,0-.18,0-.31Z"/><path d="M839.15,413.27v-4.81h.65v1.12a3.78,3.78,0,0,1,.5-.84,1.3,1.3,0,0,1,1-.42l.27,0v.71a1.55,1.55,0,0,0-1.62,1.67v2.55Z"/><path d="M846.28,408.3c-.65,0-.85.12-.92.55a1.76,1.76,0,0,1,.46,1.16,1.87,1.87,0,0,1-2.18,1.57l-.31-.05a.53.53,0,0,0-.51.46.36.36,0,0,0,.25.35,3.46,3.46,0,0,0,1.25.13c1,0,1.31.08,1.62.28a1.1,1.1,0,0,1,.52,1c0,.91-.82,1.38-2.42,1.38-1.43,0-2.2-.44-2.2-1.27a1,1,0,0,1,.74-1,.87.87,0,0,1-.47-.78c0-.39.17-.62.66-.85a1.53,1.53,0,0,1-.62-1.28,1.7,1.7,0,0,1,1.83-1.64,2.09,2.09,0,0,1,1,.23,1.07,1.07,0,0,1,.3-.63c.17-.17.36-.21.81-.21h.2Zm-3.71,5.44a.57.57,0,0,0,.17.41,2.23,2.23,0,0,0,1.36.36,4.13,4.13,0,0,0,1.14-.17.63.63,0,0,0,.51-.6.48.48,0,0,0-.33-.46c-.24-.11-.32-.12-1.16-.14-.49,0-.94,0-1.17-.06C842.69,413.27,842.57,413.44,842.57,413.74Zm.35-3.76A1,1,0,0,0,844,411a1,1,0,0,0,1.08-1,1.05,1.05,0,0,0-1.07-1.09A1,1,0,0,0,842.92,410Z"/><path d="M850.86,412a2.06,2.06,0,0,1-2,1.42,2.25,2.25,0,0,1-2.21-2.51,2.31,2.31,0,0,1,2.24-2.56,2,2,0,0,1,1.82,1.11,3.44,3.44,0,0,1,.28,1.49h-3.51a2.22,2.22,0,0,0,.2,1.12,1.37,1.37,0,0,0,1.23.73,1.28,1.28,0,0,0,1-.44,1.55,1.55,0,0,0,.3-.5Zm-.73-1.61a1.5,1.5,0,0,0-.28-1,1.13,1.13,0,0,0-1-.5,1.31,1.31,0,0,0-1,.49,1.7,1.7,0,0,0-.34,1Z"/><path d="M854.18,413.35a4.12,4.12,0,0,1-.71.06c-.91,0-1.38-.5-1.38-1.47V409h-.85v-.58h.85l0-1.21.71-.06v1.27h1.08V409h-1.08v3q0,.75.78.75a2.68,2.68,0,0,0,.57-.06Z"/><path d="M858.71,412a2.08,2.08,0,0,1-2.05,1.42,2.25,2.25,0,0,1-2.2-2.51,2.31,2.31,0,0,1,2.23-2.56,2,2,0,0,1,1.82,1.11,3.3,3.3,0,0,1,.28,1.49h-3.5a2.35,2.35,0,0,0,.19,1.12,1.39,1.39,0,0,0,1.23.73,1.32,1.32,0,0,0,1-.44,1.56,1.56,0,0,0,.29-.5Zm-.74-1.61a1.56,1.56,0,0,0-.27-1,1.14,1.14,0,0,0-1-.5,1.28,1.28,0,0,0-1,.49,1.63,1.63,0,0,0-.34,1Z"/><path d="M863.67,413.27H863v-.82a1.61,1.61,0,0,1-1.52,1c-1.13,0-1.93-1-1.93-2.5s.81-2.58,2-2.58a1.6,1.6,0,0,1,1.42.78v-2.35h.75Zm-.75-3a1.43,1.43,0,0,0-.29-.89,1.3,1.3,0,0,0-1-.49c-.77,0-1.27.74-1.27,1.88s.46,2,1.24,2a1.28,1.28,0,0,0,1-.49,1.45,1.45,0,0,0,.36-1Z"/><path d="M870.64,413.27a4.8,4.8,0,0,1-.08-.87,1.69,1.69,0,0,1-1.69,1,1.51,1.51,0,0,1-1.68-1.46,1.48,1.48,0,0,1,.81-1.31,4.14,4.14,0,0,1,1.93-.36c.18,0,.32,0,.63,0v-.15c0-.91-.35-1.24-1.26-1.24-.73,0-1.17.3-1.29.88l-.7-.12a1.27,1.27,0,0,1,.36-.75,2.44,2.44,0,0,1,1.79-.59,1.76,1.76,0,0,1,1.5.57,2.22,2.22,0,0,1,.32,1.4v2a3.42,3.42,0,0,0,.11.94Zm-.72-2.43c-1.25,0-1.93.39-1.93,1.12,0,.52.4.86,1,.86a1.58,1.58,0,0,0,1.56-1.65c0-.09,0-.18,0-.31Z"/><path d="M876.53,413.27h-.68v-.82a1.61,1.61,0,0,1-1.52,1c-1.14,0-1.94-1-1.94-2.5s.81-2.58,2-2.58a1.59,1.59,0,0,1,1.41.78v-2.35h.75Zm-.75-3a1.49,1.49,0,0,0-.28-.89,1.34,1.34,0,0,0-1-.49c-.77,0-1.27.74-1.27,1.88s.46,2,1.24,2a1.29,1.29,0,0,0,1-.49,1.45,1.45,0,0,0,.35-1Z"/><path d="M789.26,423a3.11,3.11,0,0,1-.65,1.39,2.19,2.19,0,0,1-1.75.76,2.25,2.25,0,0,1-1.79-.79,4.08,4.08,0,0,1-.86-2.66c0-2,1.07-3.32,2.71-3.32a2.32,2.32,0,0,1,2.34,2.09l-.76.15c-.32-1.08-.79-1.54-1.59-1.54-1.14,0-1.81,1-1.81,2.71s.69,2.67,1.78,2.67a1.52,1.52,0,0,0,1.2-.6,3,3,0,0,0,.44-1Z"/><path d="M794.24,422.64a2.27,2.27,0,0,1-2.22,2.48c-1.26,0-2.1-1-2.1-2.55a2.26,2.26,0,0,1,2.17-2.52C793.4,420.05,794.24,421.07,794.24,422.64Zm-3.17-1.44a2.38,2.38,0,0,0-.33,1.36c0,1.24.49,1.95,1.34,1.95s1.34-.72,1.34-1.91a2.29,2.29,0,0,0-.34-1.41,1.26,1.26,0,0,0-1-.52A1.22,1.22,0,0,0,791.07,421.2Z"/><path d="M801.09,425v-3a1.39,1.39,0,0,0-.16-.88.89.89,0,0,0-.77-.43,1.2,1.2,0,0,0-.86.42,1.56,1.56,0,0,0-.37,1.16V425h-.72v-3.17A1.24,1.24,0,0,0,798,421a1,1,0,0,0-.73-.35,1.31,1.31,0,0,0-1.18,1.44V425h-.71v-4.82H796v.93a1.65,1.65,0,0,1,1.49-1.06,1.35,1.35,0,0,1,1.34,1.16,1.66,1.66,0,0,1,1.53-1.16,1.45,1.45,0,0,1,1.23.69,2.25,2.25,0,0,1,.22,1.27v3Z"/><path d="M803.19,426.63v-6.45h.68v.94a1.62,1.62,0,0,1,1.51-1.07c1.14,0,1.91,1,1.91,2.53s-.78,2.54-1.92,2.54a1.53,1.53,0,0,1-1.42-.86v2.37Zm.76-3.38a1.38,1.38,0,0,0,1.27,1.26,1.2,1.2,0,0,0,.89-.45,2.25,2.25,0,0,0,.36-1.43c0-1.21-.46-1.92-1.25-1.92A1.39,1.39,0,0,0,804,421.9Z"/><path d="M808.41,425v-6.52h.75V425Z"/><path d="M814.52,423.71a2.06,2.06,0,0,1-2,1.41,2.24,2.24,0,0,1-2.2-2.51,2.3,2.3,0,0,1,2.23-2.56,2,2,0,0,1,1.82,1.12,3.42,3.42,0,0,1,.28,1.48h-3.5a2.32,2.32,0,0,0,.19,1.12,1.39,1.39,0,0,0,1.23.74,1.35,1.35,0,0,0,1-.44,1.76,1.76,0,0,0,.29-.51Zm-.73-1.62a1.53,1.53,0,0,0-.27-.95,1.16,1.16,0,0,0-1-.51,1.29,1.29,0,0,0-1,.5,1.54,1.54,0,0,0-.34,1Z"/><path d="M817.85,425.07a4.22,4.22,0,0,1-.72.06c-.9,0-1.37-.5-1.37-1.46v-2.9h-.85v-.59h.85l0-1.21.7-.06v1.27h1.08v.59h-1.08v3a.68.68,0,0,0,.78.76,2.77,2.77,0,0,0,.58-.06Z"/><path d="M822.37,423.71a2.07,2.07,0,0,1-2,1.41,2.24,2.24,0,0,1-2.21-2.51,2.31,2.31,0,0,1,2.24-2.56,1.93,1.93,0,0,1,1.81,1.12,3.27,3.27,0,0,1,.29,1.48H819a2.19,2.19,0,0,0,.2,1.12,1.38,1.38,0,0,0,1.23.74,1.32,1.32,0,0,0,1-.44,1.75,1.75,0,0,0,.3-.51Zm-.73-1.62a1.47,1.47,0,0,0-.28-.95,1.13,1.13,0,0,0-1-.51,1.32,1.32,0,0,0-1,.5,1.67,1.67,0,0,0-.34,1Z"/><path d="M827.33,425h-.68v-.83a1.6,1.6,0,0,1-1.53,1c-1.13,0-1.93-1-1.93-2.5s.81-2.58,2-2.58a1.62,1.62,0,0,1,1.42.78v-2.35h.75Zm-.75-3a1.47,1.47,0,0,0-.28-.89,1.31,1.31,0,0,0-1-.5c-.77,0-1.27.74-1.27,1.88s.46,2,1.24,2a1.35,1.35,0,0,0,1-.49,1.53,1.53,0,0,0,.35-1Z"/><path d="M834.31,425a5.85,5.85,0,0,1-.09-.87,1.7,1.7,0,0,1-1.69,1,1.5,1.5,0,0,1-1.68-1.45,1.48,1.48,0,0,1,.81-1.32,4.16,4.16,0,0,1,1.93-.35c.18,0,.33,0,.63,0v-.16c0-.91-.34-1.24-1.26-1.24a1.15,1.15,0,0,0-1.29.88l-.69-.12a1.21,1.21,0,0,1,.36-.75,2.43,2.43,0,0,1,1.79-.59,1.73,1.73,0,0,1,1.49.57,2.24,2.24,0,0,1,.32,1.41v2a3.51,3.51,0,0,0,.11.94Zm-.73-2.44c-1.25,0-1.93.39-1.93,1.13,0,.51.4.86,1,.86a1.58,1.58,0,0,0,1.55-1.65c0-.09,0-.19,0-.32Z"/><path d="M836.45,426.63v-6.45h.67v.94a1.62,1.62,0,0,1,1.52-1.07c1.14,0,1.91,1,1.91,2.53s-.78,2.54-1.92,2.54a1.54,1.54,0,0,1-1.43-.86v2.37Zm.75-3.38a1.39,1.39,0,0,0,1.28,1.26,1.23,1.23,0,0,0,.89-.45,2.31,2.31,0,0,0,.36-1.43c0-1.21-.47-1.92-1.25-1.92a1.4,1.4,0,0,0-1.28,1.19Z"/><path d="M841.67,426.63v-6.45h.67v.94a1.62,1.62,0,0,1,1.51-1.07c1.15,0,1.92,1,1.92,2.53s-.78,2.54-1.93,2.54a1.53,1.53,0,0,1-1.42-.86v2.37Zm.75-3.38a1.39,1.39,0,0,0,1.28,1.26,1.19,1.19,0,0,0,.88-.45,2.25,2.25,0,0,0,.37-1.43c0-1.21-.47-1.92-1.25-1.92a1.39,1.39,0,0,0-1.28,1.19Z"/><path d="M846.88,425v-6.52h.75V425Z"/><path d="M849.9,419.31h-.81v-.83h.81Zm0,5.69h-.75v-4.82h.75Z"/><path d="M854.88,423.42a1.94,1.94,0,0,1-.57,1.18,1.67,1.67,0,0,1-1.29.52c-1.23,0-2-1-2-2.53s.82-2.54,2.07-2.54a1.78,1.78,0,0,1,1.83,1.68l-.67.13a1.53,1.53,0,0,0-.26-.73,1.07,1.07,0,0,0-.91-.46c-.79,0-1.27.73-1.27,1.9s.46,1.94,1.27,1.94c.6,0,1-.41,1.17-1.2Z"/><path d="M859,425a8.66,8.66,0,0,1-.08-.87,1.7,1.7,0,0,1-1.69,1,1.5,1.5,0,0,1-1.68-1.45,1.48,1.48,0,0,1,.81-1.32,4.16,4.16,0,0,1,1.93-.35c.18,0,.32,0,.63,0v-.16c0-.91-.35-1.24-1.26-1.24-.73,0-1.17.3-1.29.88l-.7-.12a1.22,1.22,0,0,1,.37-.75,2.4,2.4,0,0,1,1.78-.59,1.76,1.76,0,0,1,1.5.57,2.24,2.24,0,0,1,.32,1.41v2a3.51,3.51,0,0,0,.11.94Zm-.72-2.44c-1.25,0-1.93.39-1.93,1.13,0,.51.4.86,1,.86a1.59,1.59,0,0,0,1.56-1.65c0-.09,0-.19,0-.32Z"/><path d="M863.21,425.07a4,4,0,0,1-.71.06c-.91,0-1.38-.5-1.38-1.46v-2.9h-.84v-.59h.84l0-1.21.71-.06v1.27h1.08v.59h-1.08v3a.68.68,0,0,0,.78.76,2.68,2.68,0,0,0,.57-.06Z"/><path d="M864.78,419.31H864v-.83h.81Zm0,5.69H864v-4.82h.75Z"/><path d="M870.19,422.64a2.28,2.28,0,0,1-2.23,2.48c-1.26,0-2.1-1-2.1-2.55a2.26,2.26,0,0,1,2.18-2.52C869.35,420.05,870.19,421.07,870.19,422.64ZM867,421.2a2.37,2.37,0,0,0-.34,1.36c0,1.24.49,1.95,1.34,1.95s1.35-.72,1.35-1.91a2.36,2.36,0,0,0-.34-1.41,1.29,1.29,0,0,0-1-.52A1.22,1.22,0,0,0,867,421.2Z"/><path d="M874.41,425v-3.1c0-.78-.35-1.2-1-1.2a1.47,1.47,0,0,0-1.34,1.65V425h-.76v-4.82h.7v.89c.5-.76.88-1,1.54-1a1.54,1.54,0,0,1,1.39.84,3.15,3.15,0,0,1,.17,1.32V425Z"/></svg>