<svg id="Layer_1" data-name="Layer 1" xmlns="http://www.w3.org/2000/svg" width="960" height="480" viewBox="0 0 960 480"><defs><style>.cls-1,.cls-4{fill:#f1f1f2;}.cls-1,.cls-2,.cls-6{stroke:#d0d2d3;}.cls-1,.cls-2,.cls-4,.cls-5,.cls-6{stroke-miterlimit:10;}.cls-2{fill:#d0d2d3;}.cls-3{fill:#231f20;}.cls-4,.cls-5{stroke:#bbbdbf;}.cls-5,.cls-6{fill:none;}.cls-7{fill:#333;}</style></defs><title>architecture-graphic</title><rect class="cls-1" x="268.17" y="89.06" width="86.76" height="55.96"/><rect class="cls-2" x="268.17" y="89.11" width="86.76" height="16.56"/><path class="cls-3" d="M287,94l1,4.18L289.06,94h2.11v6.77h-1.39V95.06l-1.38,5.66h-1.09l-1.25-5.66v5.66h-1.21V94Z"/><path class="cls-3" d="M294.76,97.6c0-.68-.19-.93-.55-.93s-.7.47-.7,1.49.2,1.53.68,1.53.53-.26.57-.92l1.31.08c-.15,1.33-.79,2-2,2s-2-.9-2-2.61.73-2.6,2.07-2.6a1.76,1.76,0,0,1,1.34.51,2,2,0,0,1,.55,1.43Z"/><path class="cls-3" d="M298.42,94v6.77h-1.48V94Z"/><path class="cls-3" d="M300.9,95.71v.69a1.39,1.39,0,0,1,2.38-.22,2.45,2.45,0,0,1,.18,1.26v3.28h-1.39V97.44c0-.58-.11-.74-.49-.74a.51.51,0,0,0-.56.38,2.46,2.46,0,0,0-.06.71v2.93h-1.38v-5Z"/><path class="cls-3" d="M306,94.13v1.58h.91v1.1H306v1.84c0,.67,0,.75.12.87a.61.61,0,0,0,.48.14H307v1.07a3.51,3.51,0,0,1-.84.1,1.4,1.4,0,0,1-1.28-.56c-.18-.29-.22-.53-.22-1.46v-2h-.56v-1.1h.63l.11-1.48Z"/><path class="cls-3" d="M307.53,95.3V93.92H309V95.3Zm1.4.41v5h-1.39v-5Z"/><path class="cls-3" d="M311.19,95.71v1.21c.25-.89.61-1.28,1.18-1.28a1.2,1.2,0,0,1,.24,0V97l-.23,0c-.7,0-1,.5-1,1.55v2.16H310v-5Z"/><path class="cls-3" d="M314.38,98.45v.26c0,.8.2,1.13.67,1.13s.64-.24.71-.85l1.25.08a2.16,2.16,0,0,1-.53,1.17,1.82,1.82,0,0,1-1.46.58c-1.32,0-2.08-.92-2.08-2.54s.77-2.67,2.08-2.67a1.83,1.83,0,0,1,1.63.92,3.61,3.61,0,0,1,.36,1.92Zm1.31-.81a1.88,1.88,0,0,0-.1-.75.58.58,0,0,0-.55-.35c-.43,0-.63.32-.65,1.1Z"/><path class="cls-3" d="M322,94l1,4.18L324.05,94h2.11v6.77h-1.39V95.06l-1.38,5.66h-1.08l-1.26-5.66v5.66h-1.21V94Z"/><path class="cls-3" d="M327.34,97.18a1.79,1.79,0,0,1,2-1.57,2,2,0,0,1,1.47.54c.24.26.31.61.31,1.46v2a3.52,3.52,0,0,0,.08,1.12h-1.29a2.08,2.08,0,0,1-.07-.76,1.94,1.94,0,0,1-.37.5,1.49,1.49,0,0,1-1,.36,1.24,1.24,0,0,1-1.32-1.37,1.54,1.54,0,0,1,1-1.52,4.93,4.93,0,0,1,1.62-.32v-.19c0-.68-.12-.88-.5-.88s-.53.21-.59.76Zm2.4,1.14c-.86.1-1.14.34-1.14,1,0,.4.17.63.47.63a.58.58,0,0,0,.48-.32,1.79,1.79,0,0,0,.19-1Z"/><path class="cls-3" d="M332.13,95.3V93.92h1.42V95.3Zm1.4.41v5h-1.39v-5Z"/><path class="cls-3" d="M335.9,95.71v.69a1.38,1.38,0,0,1,2.37-.22,2.45,2.45,0,0,1,.18,1.26v3.28h-1.39V97.44c0-.58-.11-.74-.48-.74a.52.52,0,0,0-.57.38,2.61,2.61,0,0,0-.05.71v2.93h-1.39v-5Z"/><rect class="cls-1" x="269.14" y="336.23" width="86.76" height="55.96"/><rect class="cls-2" x="269.14" y="336.27" width="86.76" height="16.56"/><path class="cls-3" d="M281.42,341.11V345a3.64,3.64,0,0,0,.13,1.29.82.82,0,0,0,.84.5.77.77,0,0,0,.8-.5,3.47,3.47,0,0,0,.1-1.29v-3.87h1.25v3.81c0,1.49-.1,2-.52,2.41a2.78,2.78,0,0,1-3.62,0c-.35-.45-.46-1-.46-2.31v-3.87Z"/><path class="cls-3" d="M287,342.88v.68a1.18,1.18,0,0,1,1.26-.78,1.2,1.2,0,0,1,1.12.56,2.45,2.45,0,0,1,.18,1.26v3.28h-1.39V344.6c0-.57-.11-.74-.49-.74a.53.53,0,0,0-.57.38,2.61,2.61,0,0,0-.05.71v2.93h-1.39v-5Z"/><path class="cls-3" d="M294.32,341.11v6.77H293v-.83c-.27.67-.56.9-1.15.9-1,0-1.59-.93-1.59-2.57s.61-2.57,1.65-2.57a1.05,1.05,0,0,1,1,.53v-2.23ZM293,345a2.11,2.11,0,0,0-.12-.91.52.52,0,0,0-.49-.34c-.44,0-.61.41-.61,1.41a6.33,6.33,0,0,0,.06,1.23c.07.4.24.61.54.61s.62-.34.62-1.12Z"/><path class="cls-3" d="M296.57,345.61v.26c0,.8.19,1.14.67,1.14s.64-.25.71-.85l1.25.08a2.28,2.28,0,0,1-.53,1.16,1.83,1.83,0,0,1-1.46.58c-1.32,0-2.08-.92-2.08-2.53s.77-2.67,2.08-2.67a1.79,1.79,0,0,1,1.62.91,3.63,3.63,0,0,1,.37,1.92Zm1.31-.8a1.84,1.84,0,0,0-.1-.75.6.6,0,0,0-.55-.36c-.44,0-.63.33-.65,1.11Z"/><path class="cls-3" d="M301.23,342.88v1.21c.26-.9.61-1.28,1.18-1.28l.24,0v1.36l-.23,0c-.7,0-1,.49-1,1.54v2.16H300v-5Z"/><path class="cls-3" d="M307.43,343a1.69,1.69,0,0,0-.3,0,.48.48,0,0,0-.53.45,1.41,1.41,0,0,1,.37,1c0,.89-.73,1.5-1.8,1.5a2.69,2.69,0,0,1-.66-.08c-.21.12-.33.25-.33.42a.26.26,0,0,0,.2.24c.12.05.15.05,1,.1s1.22.12,1.52.36a1.24,1.24,0,0,1,.48,1.06c0,1.12-.82,1.68-2.45,1.68-1.34,0-2-.41-2-1.19,0-.46.23-.73.81-.93a.94.94,0,0,1-.65-.88,1.06,1.06,0,0,1,.35-.75,2.32,2.32,0,0,1,.51-.34,1.24,1.24,0,0,1-.74-1.26c0-1,.7-1.52,1.87-1.52a2.42,2.42,0,0,1,1.07.22c.1-.74.34-1,.95-1a1.2,1.2,0,0,1,.38.05ZM304,348.27c0,.34.35.5,1.12.5s1-.15,1-.52a.44.44,0,0,0-.2-.4c-.15-.08-.23-.1-.87-.13l-.63-.05A.63.63,0,0,0,304,348.27Zm.58-3.9c0,.51.15.75.49.75s.44-.21.44-.79-.13-.8-.43-.8S304.6,343.76,304.6,344.37Z"/><path class="cls-3" d="M309.12,342.88v1.21c.26-.9.61-1.28,1.18-1.28l.24,0v1.36l-.23,0c-.7,0-1,.49-1,1.54v2.16H307.9v-5Z"/><path class="cls-3" d="M311.07,344.34a1.79,1.79,0,0,1,2-1.56,1.94,1.94,0,0,1,1.46.53c.24.26.32.61.32,1.47v2a3.43,3.43,0,0,0,.08,1.12h-1.29a2,2,0,0,1-.07-.76,2.29,2.29,0,0,1-.38.51,1.51,1.51,0,0,1-1,.35,1.24,1.24,0,0,1-1.32-1.37,1.53,1.53,0,0,1,1-1.52,5.36,5.36,0,0,1,1.63-.31v-.2c0-.68-.13-.88-.5-.88s-.54.21-.59.76Zm2.41,1.15c-.87.1-1.14.33-1.14.94,0,.41.16.63.47.63a.55.55,0,0,0,.47-.32,1.76,1.76,0,0,0,.2-1Z"/><path class="cls-3" d="M319.7,341.11v6.77h-1.28v-.83c-.27.67-.56.9-1.15.9-1,0-1.59-.93-1.59-2.57s.6-2.57,1.65-2.57a1,1,0,0,1,1,.53v-2.23ZM318.33,345a2.11,2.11,0,0,0-.12-.91.5.5,0,0,0-.48-.34c-.44,0-.61.41-.61,1.41a6.33,6.33,0,0,0,.06,1.23c.07.4.24.61.53.61.44,0,.62-.34.62-1.12Z"/><path class="cls-3" d="M324.68,341.11a2.69,2.69,0,0,1,1.74.34,2.44,2.44,0,0,1,0,3.58,2.8,2.8,0,0,1-1.69.35h-.52v2.5h-1.48v-6.77Zm-.45,3.11h.45c.69,0,1-.29,1-1a1.08,1.08,0,0,0-.28-.8c-.14-.14-.31-.18-.68-.18h-.45Z"/><path class="cls-3" d="M331.66,345.38c0,1.73-.68,2.6-2,2.6s-2-.87-2-2.59.67-2.61,2.06-2.61S331.66,343.66,331.66,345.38Zm-2.63,0c0,1.22.16,1.63.6,1.63s.59-.41.59-1.63-.15-1.63-.58-1.63S329,344.16,329,345.38Z"/><path class="cls-3" d="M333.7,342.88v1.21c.25-.9.61-1.28,1.18-1.28l.24,0v1.36l-.23,0c-.7,0-1,.49-1,1.54v2.16h-1.39v-5Z"/><path class="cls-3" d="M337.38,341.29v1.59h.91V344h-.91v1.84c0,.67,0,.75.12.87a.6.6,0,0,0,.49.15h.38v1.06a3.53,3.53,0,0,1-.85.1,1.41,1.41,0,0,1-1.28-.56c-.18-.29-.22-.52-.22-1.46v-2h-.56v-1.09h.63l.11-1.48Z"/><path class="cls-3" d="M339,344.34a1.8,1.8,0,0,1,2-1.56,1.94,1.94,0,0,1,1.46.53c.25.26.32.61.32,1.47v2a3.43,3.43,0,0,0,.08,1.12h-1.29a2,2,0,0,1-.07-.76,1.8,1.8,0,0,1-.38.51,1.49,1.49,0,0,1-1,.35,1.24,1.24,0,0,1-1.32-1.37,1.54,1.54,0,0,1,.95-1.52,5.36,5.36,0,0,1,1.63-.31v-.2c0-.68-.12-.88-.5-.88s-.54.21-.59.76Zm2.41,1.15c-.86.1-1.14.33-1.14.94,0,.41.16.63.47.63a.57.57,0,0,0,.48-.32,1.77,1.77,0,0,0,.19-1Z"/><path class="cls-3" d="M345.23,341.11v6.77h-1.39v-6.77Z"/><rect class="cls-1" x="408.84" y="377.26" width="86.76" height="55.96"/><rect class="cls-2" x="408.84" y="377.3" width="86.76" height="16.56"/><path class="cls-3" d="M420.94,386.54a2.36,2.36,0,0,1-2.36,2.47c-1.62,0-2.55-1.26-2.55-3.48S417,382,418.6,382a2.07,2.07,0,0,1,1.88,1,3.35,3.35,0,0,1,.43,1.63l-1.36.1a2.31,2.31,0,0,0-.21-1.05.8.8,0,0,0-.73-.46c-.72,0-1,.7-1,2.39s.3,2.17,1,2.17c.54,0,.84-.43.95-1.36Z"/><path class="cls-3" d="M425.61,386.42c0,1.72-.68,2.59-2,2.59s-2-.87-2-2.58.67-2.62,2.06-2.62S425.61,384.69,425.61,386.42Zm-2.63,0c0,1.22.15,1.63.6,1.63s.59-.41.59-1.62-.15-1.64-.58-1.64S423,385.19,423,386.41Z"/><path class="cls-3" d="M430.27,386.42c0,1.72-.68,2.59-2,2.59s-2-.87-2-2.58.67-2.62,2.06-2.62S430.27,384.69,430.27,386.42Zm-2.62,0c0,1.22.15,1.63.6,1.63s.58-.41.58-1.62-.15-1.64-.57-1.64S427.65,385.19,427.65,386.41Z"/><path class="cls-3" d="M432.47,382.14v6.77h-1.39v-6.77Z"/><path class="cls-3" d="M439.64,382.14v1.17H437v1.56h2.05V386H437v1.67h2.63v1.2h-4.11v-6.77Z"/><path class="cls-3" d="M441,383.91l.69,2.95.7-2.95h1.16l-1.37,5H441l-1.41-5Z"/><path class="cls-3" d="M445.09,386.64v.26c0,.81.2,1.14.67,1.14s.64-.24.71-.85l1.25.08a2.2,2.2,0,0,1-.53,1.17,1.84,1.84,0,0,1-1.46.57c-1.32,0-2.08-.92-2.08-2.53s.77-2.67,2.08-2.67a1.79,1.79,0,0,1,1.62.91,3.55,3.55,0,0,1,.37,1.92Zm1.31-.8a1.84,1.84,0,0,0-.1-.75.58.58,0,0,0-.55-.36c-.43,0-.63.33-.65,1.11Z"/><path class="cls-3" d="M449.86,383.91v.68a1.39,1.39,0,0,1,2.37-.21,2.25,2.25,0,0,1,.19,1.25v3.28H451v-3.28c0-.57-.12-.74-.49-.74a.53.53,0,0,0-.57.38,2.61,2.61,0,0,0-.05.71v2.93h-1.39v-5Z"/><path class="cls-3" d="M454.93,382.33v1.58h.91V385h-.91v1.83c0,.67,0,.75.12.87a.6.6,0,0,0,.49.15h.38v1.06a3.53,3.53,0,0,1-.85.1,1.43,1.43,0,0,1-1.28-.55c-.18-.3-.22-.53-.22-1.47v-2H453v-1.1h.63l.11-1.48Z"/><path class="cls-3" d="M460,382.14v5.5h2.18v1.27H458.5v-6.77Z"/><path class="cls-3" d="M462.86,385.37a1.79,1.79,0,0,1,2-1.56,1.91,1.91,0,0,1,1.46.54c.24.25.32.61.32,1.46v2a3.39,3.39,0,0,0,.08,1.11h-1.29a2,2,0,0,1-.07-.76,2.29,2.29,0,0,1-.38.51,1.51,1.51,0,0,1-1,.35,1.24,1.24,0,0,1-1.32-1.37,1.54,1.54,0,0,1,.95-1.52,5.36,5.36,0,0,1,1.63-.31v-.2c0-.68-.13-.88-.5-.88s-.54.21-.59.76Zm2.41,1.15c-.87.1-1.14.33-1.14.94,0,.41.16.63.47.63a.55.55,0,0,0,.47-.31,1.82,1.82,0,0,0,.2-1Z"/><path class="cls-3" d="M469,383.91v.68a1.39,1.39,0,0,1,2.37-.21,2.35,2.35,0,0,1,.19,1.25v3.28h-1.4v-3.28c0-.57-.11-.74-.48-.74a.53.53,0,0,0-.57.38,2.61,2.61,0,0,0-.05.71v2.93h-1.39v-5Z"/><path class="cls-3" d="M476.33,382.14v6.77H475v-.83c-.26.67-.55.9-1.14.9-1,0-1.6-.93-1.6-2.56s.61-2.58,1.66-2.58a1,1,0,0,1,1,.54v-2.24ZM475,386a2.11,2.11,0,0,0-.12-.91.5.5,0,0,0-.49-.34c-.43,0-.61.41-.61,1.41a5.28,5.28,0,0,0,.07,1.23c.07.41.24.61.53.61.44,0,.62-.34.62-1.12Z"/><path class="cls-3" d="M477.33,383.49v-1.38h1.43v1.38Zm1.41.42v5h-1.39v-5Z"/><path class="cls-3" d="M481.1,383.91v.68a1.39,1.39,0,0,1,2.37-.21,2.35,2.35,0,0,1,.19,1.25v3.28h-1.4v-3.28c0-.57-.11-.74-.48-.74a.53.53,0,0,0-.57.38,2.61,2.61,0,0,0,0,.71v2.93h-1.39v-5Z"/><path class="cls-3" d="M488.82,384a1.8,1.8,0,0,0-.31,0,.48.48,0,0,0-.52.45,1.43,1.43,0,0,1,.37,1c0,.89-.73,1.5-1.81,1.5a2.62,2.62,0,0,1-.65-.08q-.33.18-.33.42a.25.25,0,0,0,.19.24,3.46,3.46,0,0,0,1,.1c1,.06,1.22.13,1.52.36a1.26,1.26,0,0,1,.48,1.06q0,1.68-2.46,1.68c-1.34,0-2-.41-2-1.19,0-.46.24-.73.81-.93a1,1,0,0,1-.65-.88,1.09,1.09,0,0,1,.36-.75,2.1,2.1,0,0,1,.51-.34,1.24,1.24,0,0,1-.74-1.26c0-.95.7-1.52,1.86-1.52a2.46,2.46,0,0,1,1.08.22c.1-.74.33-1,.94-1a1.27,1.27,0,0,1,.39,0Zm-3.41,5.31c0,.34.34.5,1.11.5s1-.15,1-.52a.44.44,0,0,0-.2-.4c-.16-.08-.24-.1-.88-.13l-.63-.05A.63.63,0,0,0,485.41,389.3Zm.58-3.9c0,.51.15.75.48.75s.45-.21.45-.79-.13-.8-.44-.8S486,384.79,486,385.4Z"/><rect class="cls-1" x="284.77" y="215.09" width="30.1" height="55.96"/><rect class="cls-2" x="284.77" y="263" width="30.1" height="7.82"/><rect class="cls-2" x="284.77" y="215.13" width="30.1" height="2.94"/><rect class="cls-1" x="408.84" y="48.03" width="86.76" height="55.96"/><rect class="cls-2" x="408.84" y="48.08" width="86.76" height="16.56"/><path class="cls-3" d="M426.28,56.07v3.62h-.63l-.19-.77a1.82,1.82,0,0,1-1.64.87c-1.54,0-2.51-1.3-2.51-3.4a4,4,0,0,1,1.07-3,2.31,2.31,0,0,1,1.57-.52c1.42,0,2.12.7,2.33,2.31l-1.34.22a2.35,2.35,0,0,0-.23-.89A.83.83,0,0,0,424,54c-.74,0-1.1.73-1.1,2.31s.35,2.25,1.15,2.25a.82.82,0,0,0,.8-.55,2.24,2.24,0,0,0,.12-.79h-1V56.07Z"/><path class="cls-3" d="M427.3,54.27V52.89h1.42v1.38Zm1.4.41v5h-1.39v-5Z"/><path class="cls-3" d="M430.52,54.68l.69,3,.7-3h1.16l-1.37,5h-1.11l-1.41-5Z"/><path class="cls-3" d="M433.52,54.27V52.89h1.42v1.38Zm1.4.41v5h-1.39v-5Z"/><path class="cls-3" d="M437.29,54.68v.68a1.17,1.17,0,0,1,1.25-.78,1.19,1.19,0,0,1,1.12.57,2.42,2.42,0,0,1,.18,1.26v3.28h-1.39V56.41c0-.58-.11-.74-.48-.74a.52.52,0,0,0-.57.37,2.7,2.7,0,0,0,0,.71v2.94H436v-5Z"/><path class="cls-3" d="M445,54.77a1.88,1.88,0,0,0-.31,0,.5.5,0,0,0-.53.45,1.41,1.41,0,0,1,.38,1c0,.89-.73,1.5-1.81,1.5a2.75,2.75,0,0,1-.66-.08c-.21.12-.32.25-.32.41a.26.26,0,0,0,.19.25c.12.05.15.05,1,.1s1.21.12,1.52.35a1.28,1.28,0,0,1,.48,1.07c0,1.11-.83,1.67-2.46,1.67-1.34,0-2-.4-2-1.19,0-.45.23-.73.81-.93a1,1,0,0,1-.65-.87,1,1,0,0,1,.36-.75,2.07,2.07,0,0,1,.51-.35,1.24,1.24,0,0,1-.75-1.26c0-1,.7-1.52,1.87-1.52a2.34,2.34,0,0,1,1.08.23c.1-.74.33-1,.94-1a1.31,1.31,0,0,1,.39,0Zm-3.41,5.3c0,.35.34.51,1.11.51s1-.15,1-.53a.44.44,0,0,0-.2-.39c-.16-.08-.24-.11-.88-.14l-.63-.05A.65.65,0,0,0,441.6,60.07Zm.58-3.89c0,.5.15.75.48.75s.45-.22.45-.8-.13-.8-.44-.8S442.18,55.57,442.18,56.18Z"/><path class="cls-3" d="M449.62,52.92l.95,4.18,1.08-4.18h2.11v6.77h-1.39V54L451,59.69h-1.08L448.65,54v5.67h-1.21V52.92Z"/><path class="cls-3" d="M454.89,54.27V52.89h1.42v1.38Zm1.4.41v5H454.9v-5Z"/><path class="cls-3" d="M459.76,56.57c0-.68-.19-.93-.54-.93s-.7.46-.7,1.49.2,1.53.68,1.53.52-.26.56-.92l1.31.08c-.15,1.33-.79,2-2,2s-2-.91-2-2.61.73-2.6,2.06-2.6a1.74,1.74,0,0,1,1.34.51,2,2,0,0,1,.55,1.43Z"/><path class="cls-3" d="M463.05,54.68v1.21c.25-.89.61-1.28,1.18-1.28l.24,0V56l-.23,0c-.7,0-1,.5-1,1.55v2.16h-1.39v-5Z"/><path class="cls-3" d="M468.89,57.19c0,1.73-.68,2.6-2,2.6s-2-.87-2-2.59.67-2.62,2.06-2.62S468.89,55.46,468.89,57.19Zm-2.63,0c0,1.23.16,1.63.6,1.63s.59-.4.59-1.62-.15-1.63-.58-1.63S466.26,56,466.26,57.18Z"/><path class="cls-3" d="M472,56.19c-.17-.49-.38-.68-.74-.68a.4.4,0,0,0-.43.43c0,.33.14.44.83.68a3,3,0,0,1,1,.49,1.32,1.32,0,0,1,.46,1,1.69,1.69,0,0,1-1.9,1.64,2.07,2.07,0,0,1-1.42-.48,1.54,1.54,0,0,1-.45-1l1.1-.19c.11.51.37.74.81.74s.54-.17.54-.46-.14-.45-.8-.65c-1-.35-1.5-.81-1.5-1.57a1.62,1.62,0,0,1,1.78-1.6,1.68,1.68,0,0,1,1.19.44,1.56,1.56,0,0,1,.5.86Z"/><path class="cls-3" d="M473.83,54.27V52.89h1.42v1.38Zm1.4.41v5h-1.39v-5Z"/><path class="cls-3" d="M477.83,53.1v1.58h.91v1.1h-.91v1.84c0,.67,0,.75.12.87a.62.62,0,0,0,.49.14h.37v1.07a3.45,3.45,0,0,1-.84.1,1.43,1.43,0,0,1-1.28-.56c-.18-.29-.22-.53-.22-1.46v-2h-.56v-1.1h.63l.11-1.48Z"/><path class="cls-3" d="M480.61,57.41v.27c0,.8.19,1.13.67,1.13s.64-.24.71-.85l1.24.08a2.24,2.24,0,0,1-.52,1.17,1.84,1.84,0,0,1-1.46.58c-1.32,0-2.08-.93-2.08-2.54s.77-2.67,2.08-2.67a1.81,1.81,0,0,1,1.62.92,3.6,3.6,0,0,1,.36,1.91Zm1.31-.8a1.83,1.83,0,0,0-.11-.75.58.58,0,0,0-.54-.35c-.44,0-.63.32-.65,1.1Z"/><rect class="cls-1" x="549.52" y="338.18" width="86.76" height="55.96"/><rect class="cls-2" x="549.52" y="338.23" width="86.76" height="16.56"/><path class="cls-3" d="M556.86,343.07l1,4.18,1.07-4.18H561v6.76h-1.39v-5.66l-1.38,5.66h-1.08l-1.26-5.66v5.66h-1.21v-6.76Z"/><path class="cls-3" d="M565.18,345c-.18-.58-.48-.84-.95-.84a.64.64,0,0,0-.71.62c0,.39.19.54,1.16.91a3.7,3.7,0,0,1,1.2.61,1.82,1.82,0,0,1,.67,1.47,2.16,2.16,0,0,1-2.39,2.16,2.24,2.24,0,0,1-2.36-1.86l1.3-.37c.19.71.52,1,1.09,1a.77.77,0,0,0,.86-.73c0-.39-.23-.6-.93-.85a4,4,0,0,1-1.41-.69,1.84,1.84,0,0,1-.63-1.42,2,2,0,0,1,2.17-2.07,2.36,2.36,0,0,1,1.5.47,2,2,0,0,1,.67,1.1Z"/><path class="cls-3" d="M574,347.46a2.38,2.38,0,0,1-2.37,2.48c-1.62,0-2.54-1.27-2.54-3.48S570,343,571.68,343a2.07,2.07,0,0,1,1.88,1,3.38,3.38,0,0,1,.44,1.63l-1.36.1a2.18,2.18,0,0,0-.22-1.05.81.81,0,0,0-.73-.46c-.72,0-1,.7-1,2.4,0,1.53.29,2.16,1,2.16.54,0,.85-.43,1-1.36Z"/><path class="cls-3" d="M578.69,347.34c0,1.72-.68,2.6-2,2.6s-2-.88-2-2.59.67-2.62,2.06-2.62S578.69,345.61,578.69,347.34Zm-2.63,0c0,1.23.16,1.63.6,1.63s.59-.4.59-1.62-.15-1.63-.58-1.63S576.06,346.11,576.06,347.33Z"/><path class="cls-3" d="M580.83,344.83v.68a1.17,1.17,0,0,1,1.21-.78.94.94,0,0,1,1.07.78,1.21,1.21,0,0,1,1.24-.78,1.17,1.17,0,0,1,1.11.54,2.78,2.78,0,0,1,.17,1.3v3.26h-1.39v-3.12c0-.75-.07-.89-.45-.89s-.51.21-.51,1.1v2.91h-1.39v-3.16c0-.53,0-.55-.06-.64a.38.38,0,0,0-.39-.21c-.44,0-.55.23-.55,1.1v2.91H579.5v-5Z"/><path class="cls-3" d="M587.91,344.83v.68a1.17,1.17,0,0,1,1.21-.78.94.94,0,0,1,1.07.78,1.21,1.21,0,0,1,1.24-.78,1.17,1.17,0,0,1,1.11.54,2.78,2.78,0,0,1,.17,1.3v3.26h-1.39v-3.12c0-.75-.07-.89-.45-.89s-.51.21-.51,1.1v2.91H589v-3.16c0-.53,0-.55-.05-.64a.4.4,0,0,0-.4-.21c-.44,0-.55.23-.55,1.1v2.91h-1.39v-5Z"/><path class="cls-3" d="M597.86,343.07l.95,4.18,1.08-4.18H602v6.76h-1.39v-5.66l-1.38,5.66h-1.08l-1.26-5.66v5.66h-1.21v-6.76Z"/><path class="cls-3" d="M603.13,344.42V343h1.42v1.38Zm1.4.41v5h-1.39v-5Z"/><path class="cls-3" d="M608,346.72c0-.68-.19-.93-.54-.93s-.7.46-.7,1.49.2,1.53.68,1.53.52-.26.56-.92l1.31.08c-.15,1.33-.79,2-2,2s-2-.91-2-2.61.73-2.6,2.06-2.6a1.71,1.71,0,0,1,1.34.51,2,2,0,0,1,.55,1.43Z"/><path class="cls-3" d="M611.29,344.83V346c.25-.89.61-1.28,1.18-1.28l.24,0v1.36l-.23,0c-.7,0-1,.5-1,1.54v2.16h-1.39v-5Z"/><path class="cls-3" d="M617.13,347.34c0,1.72-.68,2.6-2,2.6s-2-.88-2-2.59.67-2.62,2.06-2.62S617.13,345.61,617.13,347.34Zm-2.63,0c0,1.23.16,1.63.6,1.63s.59-.4.59-1.62-.15-1.63-.58-1.63S614.5,346.11,614.5,347.33Z"/><path class="cls-3" d="M620.25,346.33c-.17-.48-.38-.68-.74-.68a.41.41,0,0,0-.43.44c0,.33.14.44.83.68a2.62,2.62,0,0,1,1,.49,1.32,1.32,0,0,1,.46,1,1.69,1.69,0,0,1-1.89,1.64,2.12,2.12,0,0,1-1.43-.48,1.54,1.54,0,0,1-.45-1l1.1-.19c.11.51.37.74.81.74s.54-.17.54-.46-.14-.45-.8-.65c-1-.35-1.5-.82-1.5-1.58a1.62,1.62,0,0,1,1.78-1.59,1.68,1.68,0,0,1,1.19.44,1.52,1.52,0,0,1,.5.86Z"/><path class="cls-3" d="M622.07,344.42V343h1.42v1.38Zm1.4.41v5h-1.39v-5Z"/><path class="cls-3" d="M626.07,343.25v1.58H627v1.1h-.91v1.83c0,.67,0,.76.12.88a.62.62,0,0,0,.49.14h.37v1.06a3.07,3.07,0,0,1-.84.11,1.43,1.43,0,0,1-1.28-.56c-.18-.3-.22-.53-.22-1.46v-2h-.56v-1.1h.63l.11-1.48Z"/><path class="cls-3" d="M628.85,347.56v.27c0,.8.19,1.13.67,1.13s.64-.24.71-.85l1.24.08a2.27,2.27,0,0,1-.52,1.17,1.88,1.88,0,0,1-1.46.58c-1.32,0-2.08-.93-2.08-2.54s.77-2.67,2.08-2.67a1.82,1.82,0,0,1,1.62.91,3.66,3.66,0,0,1,.36,1.92Zm1.31-.8a1.83,1.83,0,0,0-.11-.75.59.59,0,0,0-.54-.36c-.44,0-.63.33-.65,1.11Z"/><rect class="cls-1" x="549.52" y="88.09" width="86.76" height="55.96"/><rect class="cls-2" x="549.52" y="88.13" width="86.76" height="16.56"/><path class="cls-3" d="M563.63,93l1.93,6.77H564l-.33-1.39H561.8l-.33,1.39H560.1l2-6.77Zm-.89,1.45-.66,2.76h1.34Z"/><path class="cls-3" d="M567.4,93v6.77H566V93Z"/><path class="cls-3" d="M569.75,94.74v3.2a1.46,1.46,0,0,0,0,.57.41.41,0,0,0,.44.25.53.53,0,0,0,.55-.36,3.39,3.39,0,0,0,.07-1.11V94.74h1.39v5h-1.31v-.68a1.27,1.27,0,0,1-1.3.78,1.21,1.21,0,0,1-1-.44c-.19-.29-.23-.53-.23-1.42V94.74Z"/><path class="cls-3" d="M574.6,94.74v.68a1.17,1.17,0,0,1,1.21-.78.94.94,0,0,1,1.07.78,1.21,1.21,0,0,1,1.24-.78,1.18,1.18,0,0,1,1.11.53,2.8,2.8,0,0,1,.17,1.3v3.27H578V96.62c0-.76-.07-.9-.45-.9s-.52.22-.52,1.11v2.91h-1.39V96.57c0-.52,0-.54,0-.63a.37.37,0,0,0-.39-.22c-.44,0-.55.24-.55,1.11v2.91h-1.39v-5Z"/><path class="cls-3" d="M581.68,94.74v.68a1.4,1.4,0,0,1,2.37-.22,2.41,2.41,0,0,1,.19,1.26v3.28h-1.4V96.46c0-.58-.11-.74-.48-.74a.52.52,0,0,0-.57.38,2.61,2.61,0,0,0,0,.71v2.93h-1.39v-5Z"/><path class="cls-3" d="M585.17,94.32V92.94h1.42v1.38Zm1.4.42v5h-1.39v-5Z"/><path class="cls-3" d="M591.8,93l1,4.18L593.83,93h2.11v6.77h-1.39V94.08l-1.38,5.66h-1.08l-1.26-5.66v5.66h-1.21V93Z"/><path class="cls-3" d="M597.07,94.32V92.94h1.43v1.38Zm1.4.42v5h-1.39v-5Z"/><path class="cls-3" d="M601.94,96.62c0-.67-.19-.93-.54-.93s-.7.47-.7,1.49.2,1.54.68,1.54.52-.27.56-.93l1.31.08c-.15,1.33-.79,2-2,2s-2-.9-2-2.61.73-2.59,2.07-2.59a1.76,1.76,0,0,1,1.34.5,2.08,2.08,0,0,1,.54,1.43Z"/><path class="cls-3" d="M605.23,94.74V96c.25-.9.61-1.28,1.18-1.28a1.2,1.2,0,0,1,.24,0v1.36l-.23,0c-.7,0-1,.49-1,1.54v2.16H604v-5Z"/><path class="cls-3" d="M611.07,97.24c0,1.73-.68,2.6-2,2.6s-2-.87-2-2.59.67-2.61,2.06-2.61S611.07,95.52,611.07,97.24Zm-2.63,0c0,1.23.16,1.64.6,1.64s.59-.41.59-1.63-.15-1.63-.58-1.63S608.44,96,608.44,97.23Z"/><path class="cls-3" d="M614.19,96.24c-.17-.49-.38-.68-.73-.68A.41.41,0,0,0,613,96c0,.32.14.43.83.68a2.81,2.81,0,0,1,1,.48,1.34,1.34,0,0,1,.46,1,1.69,1.69,0,0,1-1.89,1.63,2.12,2.12,0,0,1-1.43-.47,1.57,1.57,0,0,1-.45-1l1.1-.18c.12.5.37.74.81.74s.54-.17.54-.47-.14-.45-.8-.65c-1.05-.34-1.5-.81-1.5-1.57a1.62,1.62,0,0,1,1.78-1.59,1.72,1.72,0,0,1,1.19.43,1.59,1.59,0,0,1,.5.87Z"/><path class="cls-3" d="M616,94.32V92.94h1.42v1.38Zm1.4.42v5H616v-5Z"/><path class="cls-3" d="M620,93.15v1.59h.91v1.09H620v1.84c0,.67,0,.75.12.87a.62.62,0,0,0,.49.14H621v1.07a3.45,3.45,0,0,1-.84.1,1.4,1.4,0,0,1-1.28-.56c-.18-.29-.22-.52-.22-1.46v-2h-.56V94.74h.63l.11-1.48Z"/><path class="cls-3" d="M622.79,97.47v.26c0,.8.19,1.14.67,1.14s.64-.25.71-.85l1.24.08a2.24,2.24,0,0,1-.52,1.16,1.84,1.84,0,0,1-1.46.58c-1.32,0-2.08-.92-2.08-2.54s.77-2.66,2.08-2.66a1.79,1.79,0,0,1,1.62.91,3.64,3.64,0,0,1,.36,1.92Zm1.31-.8a1.8,1.8,0,0,0-.11-.75.57.57,0,0,0-.54-.36c-.44,0-.63.32-.65,1.11Z"/><circle class="cls-4" cx="452.14" cy="240.54" r="44.94"/><line class="cls-5" x1="452.14" y1="104.75" x2="452.14" y2="195.6"/><line class="cls-5" x1="452.14" y1="285.97" x2="452.14" y2="376.82"/><line class="cls-5" x1="316.1" y1="240.78" x2="406.95" y2="240.78"/><line class="cls-5" x1="497.32" y1="240.78" x2="588.17" y2="240.78"/><line class="cls-5" x1="548.33" y1="144.59" x2="484.08" y2="208.84"/><line class="cls-5" x1="420.19" y1="272.73" x2="355.94" y2="336.98"/><line class="cls-5" x1="355.94" y1="144.59" x2="420.19" y2="208.84"/><line class="cls-5" x1="484.08" y1="272.73" x2="548.33" y2="336.98"/><polygon class="cls-1" points="605.5 256.51 590.69 256.51 589.15 249.73 607.04 249.73 605.5 256.51"/><polygon class="cls-1" points="590.69 222.48 605.5 222.48 607.04 229.26 589.15 229.26 590.69 222.48"/><rect class="cls-2" x="609.75" y="236.02" width="3.09" height="6.96"/><rect class="cls-1" x="585.67" y="228.43" width="24.85" height="22.14" rx="4.55"/><polyline class="cls-6" points="601.51 240.96 596.63 240.96 596.63 236.08"/><path class="cls-7" d="M433.45,235.28a4.4,4.4,0,0,1,2.88.72c.93.67,1.43,2.07,1.43,3.88s-.6,3.47-1.65,4.18a3.63,3.63,0,0,1-2.41.56h-2.45v-9.34Zm-.16,7.73h.35a1.45,1.45,0,0,0,1.43-.61,4.56,4.56,0,0,0,.52-2.55,3.81,3.81,0,0,0-.6-2.47,1.49,1.49,0,0,0-1.35-.49h-.35Z"/><path class="cls-7" d="M442,235.28a3.2,3.2,0,0,1,2.22.49,2.85,2.85,0,0,1,1,2.34,2.49,2.49,0,0,1-1.32,2.44l1.72,4.07h-2.24l-1.25-3.68h-1v3.68h-2v-9.34Zm-.88,4.15h.9c.78,0,1.2-.48,1.2-1.36a1.11,1.11,0,0,0-1.29-1.28h-.81Z"/><path class="cls-7" d="M448.69,235.28v5.34a5.22,5.22,0,0,0,.17,1.78,1.15,1.15,0,0,0,1.16.7,1.07,1.07,0,0,0,1.11-.7,4.59,4.59,0,0,0,.14-1.78v-5.34H453v5.26c0,2.05-.14,2.71-.71,3.33a3.19,3.19,0,0,1-2.44.89,3.16,3.16,0,0,1-2.56-.95c-.48-.63-.63-1.38-.63-3.19v-5.34Z"/><path class="cls-7" d="M457.43,235.28a3.77,3.77,0,0,1,2.39.46,3.37,3.37,0,0,1,0,4.95,3.81,3.81,0,0,1-2.32.49h-.73v3.44h-2.05v-9.34Zm-.63,4.29h.63c.95,0,1.32-.39,1.32-1.42a1.51,1.51,0,0,0-.38-1.1c-.2-.2-.44-.26-.94-.26h-.63Z"/><path class="cls-7" d="M465.38,235.28l2.66,9.34h-2.1l-.46-1.91h-2.63l-.45,1.91h-1.89l2.8-9.34Zm-1.23,2-.91,3.8h1.85Z"/><path class="cls-7" d="M470.87,235.28v7.59h3v1.75h-5.06v-9.34Z"/></svg>
