<svg id="Layer_1" data-name="Layer 1" xmlns="http://www.w3.org/2000/svg" width="1285" height="500.82" viewBox="0 0 1285 500.82"><defs><style>.cls-1{fill:#f47b42;}.cls-2{fill:#1dcad3;}.cls-3{fill:#fff;}</style></defs><title>process-flow</title><rect class="cls-1" x="183" y="336.55" width="4.02" height="4.01"/><rect class="cls-1" x="183" y="368.6" width="4.02" height="4.01"/><rect class="cls-1" x="183" y="320.52" width="4.02" height="4.01"/><rect class="cls-1" x="183" y="352.58" width="4.02" height="4.01"/><rect class="cls-1" x="183" y="272.45" width="4.02" height="4.01"/><rect class="cls-1" x="183" y="304.5" width="4.02" height="4.01"/><rect class="cls-1" x="183" y="288.47" width="4.02" height="4.01"/><rect class="cls-1" x="183" y="464.76" width="4.02" height="4.01"/><rect class="cls-1" x="183" y="448.73" width="4.02" height="4.01"/><rect class="cls-1" x="183" y="256.42" width="4.02" height="4.01"/><rect class="cls-1" x="183" y="480.79" width="4.02" height="4.01"/><rect class="cls-1" x="183" y="432.71" width="4.02" height="4.01"/><rect class="cls-1" x="183" y="384.63" width="4.02" height="4.01"/><rect class="cls-1" x="183" y="496.81" width="4.02" height="4.01"/><rect class="cls-1" x="183" y="416.68" width="4.02" height="4.01"/><rect class="cls-1" x="183" y="400.66" width="4.02" height="4.01"/><rect class="cls-1" x="183" y="96.16" width="4.02" height="4.01"/><rect class="cls-1" x="183" y="48.08" width="4.02" height="4.01"/><rect class="cls-1" x="183" y="80.13" width="4.02" height="4.01"/><rect class="cls-1" x="183" y="64.11" width="4.02" height="4.01"/><rect class="cls-1" x="183" y="240.39" width="4.02" height="4.01"/><rect class="cls-1" x="183" y="16.03" width="4.02" height="4.01"/><rect class="cls-1" x="183" y="32.05" width="4.02" height="4.01"/><rect class="cls-1" x="183" width="4.02" height="4.01"/><rect class="cls-1" x="183" y="208.34" width="4.02" height="4.01"/><rect class="cls-1" x="183" y="192.32" width="4.02" height="4.01"/><rect class="cls-1" x="183" y="224.37" width="4.02" height="4.01"/><rect class="cls-1" x="183" y="144.24" width="4.02" height="4.01"/><rect class="cls-1" x="183" y="112.18" width="4.02" height="4.01"/><rect class="cls-1" x="183" y="160.26" width="4.02" height="4.01"/><rect class="cls-1" x="183" y="176.29" width="4.02" height="4.01"/><rect class="cls-1" x="183" y="128.21" width="4.02" height="4.01"/><rect class="cls-1" y="368.6" width="4.02" height="4.01"/><rect class="cls-1" y="352.58" width="4.02" height="4.01"/><rect class="cls-1" y="320.52" width="4.02" height="4.01"/><rect class="cls-1" y="336.55" width="4.02" height="4.01"/><rect class="cls-1" y="304.5" width="4.02" height="4.01"/><rect class="cls-1" y="272.45" width="4.02" height="4.01"/><rect class="cls-1" y="288.47" width="4.02" height="4.01"/><rect class="cls-1" y="464.76" width="4.02" height="4.01"/><rect class="cls-1" y="256.42" width="4.02" height="4.01"/><rect class="cls-1" y="480.79" width="4.02" height="4.01"/><rect class="cls-1" y="448.73" width="4.02" height="4.01"/><rect class="cls-1" y="432.71" width="4.02" height="4.01"/><rect class="cls-1" y="384.63" width="4.02" height="4.01"/><rect class="cls-1" y="400.66" width="4.02" height="4.01"/><rect class="cls-1" y="416.68" width="4.02" height="4.01"/><rect class="cls-1" y="496.81" width="4.02" height="4.01"/><rect class="cls-1" y="48.08" width="4.02" height="4.01"/><rect class="cls-1" y="32.05" width="4.02" height="4.01"/><rect class="cls-1" y="64.11" width="4.02" height="4.01"/><rect class="cls-1" y="96.16" width="4.02" height="4.01"/><rect class="cls-1" y="80.13" width="4.02" height="4.01"/><rect class="cls-1" y="16.03" width="4.02" height="4.01"/><rect class="cls-1" y="240.39" width="4.02" height="4.01"/><rect class="cls-1" width="4.02" height="4.01"/><rect class="cls-1" y="112.18" width="4.02" height="4.01"/><rect class="cls-1" y="208.34" width="4.02" height="4.01"/><rect class="cls-1" y="176.29" width="4.02" height="4.01"/><rect class="cls-1" y="224.37" width="4.02" height="4.01"/><rect class="cls-1" y="192.32" width="4.02" height="4.01"/><rect class="cls-1" y="144.24" width="4.02" height="4.01"/><rect class="cls-1" y="128.21" width="4.02" height="4.01"/><rect class="cls-1" y="160.26" width="4.02" height="4.01"/><rect class="cls-1" x="365.99" y="128.21" width="4.02" height="4.01"/><rect class="cls-1" x="365.99" y="160.26" width="4.02" height="4.01"/><rect class="cls-1" x="365.99" y="144.24" width="4.02" height="4.01"/><rect class="cls-1" x="365.99" y="240.39" width="4.02" height="4.01"/><rect class="cls-1" x="365.99" y="224.37" width="4.02" height="4.01"/><rect class="cls-1" x="365.99" y="208.34" width="4.02" height="4.01"/><rect class="cls-1" x="365.99" y="192.32" width="4.02" height="4.01"/><rect class="cls-1" x="365.99" y="176.29" width="4.02" height="4.01"/><rect class="cls-1" x="365.99" y="32.05" width="4.02" height="4.01"/><rect class="cls-1" x="365.99" y="16.03" width="4.02" height="4.01"/><rect class="cls-1" x="365.99" width="4.02" height="4.01"/><rect class="cls-1" x="365.99" y="64.11" width="4.02" height="4.01"/><rect class="cls-1" x="365.99" y="48.08" width="4.02" height="4.01"/><rect class="cls-1" x="365.99" y="80.13" width="4.02" height="4.01"/><rect class="cls-1" x="365.99" y="112.18" width="4.02" height="4.01"/><rect class="cls-1" x="365.99" y="96.16" width="4.02" height="4.01"/><rect class="cls-1" x="365.99" y="432.71" width="4.02" height="4.01"/><rect class="cls-1" x="365.99" y="416.68" width="4.02" height="4.01"/><rect class="cls-1" x="365.99" y="400.66" width="4.02" height="4.01"/><rect class="cls-1" x="365.99" y="448.73" width="4.02" height="4.01"/><rect class="cls-1" x="365.99" y="464.76" width="4.02" height="4.01"/><rect class="cls-1" x="365.99" y="384.63" width="4.02" height="4.01"/><rect class="cls-1" x="365.99" y="496.81" width="4.02" height="4.01"/><rect class="cls-1" x="365.99" y="480.79" width="4.02" height="4.01"/><rect class="cls-1" x="365.99" y="256.42" width="4.02" height="4.01"/><rect class="cls-1" x="365.99" y="288.47" width="4.02" height="4.01"/><rect class="cls-1" x="365.99" y="272.45" width="4.02" height="4.01"/><rect class="cls-1" x="365.99" y="304.5" width="4.02" height="4.01"/><rect class="cls-1" x="365.99" y="368.6" width="4.02" height="4.01"/><rect class="cls-1" x="365.99" y="320.52" width="4.02" height="4.01"/><rect class="cls-1" x="365.99" y="352.58" width="4.02" height="4.01"/><rect class="cls-1" x="365.99" y="336.55" width="4.02" height="4.01"/><rect class="cls-1" x="548.99" y="192.32" width="4.02" height="4.01"/><rect class="cls-1" x="548.99" y="176.29" width="4.02" height="4.01"/><rect class="cls-1" x="548.99" y="112.18" width="4.02" height="4.01"/><rect class="cls-1" x="548.99" y="144.24" width="4.02" height="4.01"/><rect class="cls-1" x="548.99" y="160.26" width="4.02" height="4.01"/><rect class="cls-1" x="548.99" y="240.39" width="4.02" height="4.01"/><rect class="cls-1" x="548.99" y="224.37" width="4.02" height="4.01"/><rect class="cls-1" x="548.99" y="208.34" width="4.02" height="4.01"/><rect class="cls-1" x="548.99" width="4.02" height="4.01"/><rect class="cls-1" x="548.99" y="16.03" width="4.02" height="4.01"/><rect class="cls-1" x="548.99" y="32.05" width="4.02" height="4.01"/><rect class="cls-1" x="548.99" y="256.42" width="4.02" height="4.01"/><rect class="cls-1" x="548.99" y="96.16" width="4.02" height="4.01"/><rect class="cls-1" x="548.99" y="80.13" width="4.02" height="4.01"/><rect class="cls-1" x="548.99" y="48.08" width="4.02" height="4.01"/><rect class="cls-1" x="548.99" y="64.11" width="4.02" height="4.01"/><rect class="cls-1" x="548.99" y="128.21" width="4.02" height="4.01"/><rect class="cls-1" x="548.99" y="416.68" width="4.02" height="4.01"/><rect class="cls-1" x="548.99" y="272.45" width="4.02" height="4.01"/><rect class="cls-1" x="548.99" y="400.66" width="4.02" height="4.01"/><rect class="cls-1" x="548.99" y="448.73" width="4.02" height="4.01"/><rect class="cls-1" x="548.99" y="432.71" width="4.02" height="4.01"/><rect class="cls-1" x="548.99" y="496.81" width="4.02" height="4.01"/><rect class="cls-1" x="548.99" y="464.76" width="4.02" height="4.01"/><rect class="cls-1" x="548.99" y="480.79" width="4.02" height="4.01"/><rect class="cls-1" x="548.99" y="384.63" width="4.02" height="4.01"/><rect class="cls-1" x="548.99" y="320.52" width="4.02" height="4.01"/><rect class="cls-1" x="548.99" y="336.55" width="4.02" height="4.01"/><rect class="cls-1" x="548.99" y="288.47" width="4.02" height="4.01"/><rect class="cls-1" x="548.99" y="304.5" width="4.02" height="4.01"/><rect class="cls-1" x="548.99" y="368.6" width="4.02" height="4.01"/><rect class="cls-1" x="548.99" y="352.58" width="4.02" height="4.01"/><rect class="cls-1" x="731.99" y="176.29" width="4.02" height="4.01"/><rect class="cls-1" x="731.99" y="160.26" width="4.02" height="4.01"/><rect class="cls-1" x="731.99" y="144.24" width="4.02" height="4.01"/><rect class="cls-1" x="731.99" y="128.21" width="4.02" height="4.01"/><rect class="cls-1" x="731.99" y="192.32" width="4.02" height="4.01"/><rect class="cls-1" x="731.99" y="208.34" width="4.02" height="4.01"/><rect class="cls-1" x="731.99" y="240.39" width="4.02" height="4.01"/><rect class="cls-1" x="731.99" y="112.18" width="4.02" height="4.01"/><rect class="cls-1" x="731.99" y="224.37" width="4.02" height="4.01"/><rect class="cls-1" x="731.99" y="80.13" width="4.02" height="4.01"/><rect class="cls-1" x="731.99" y="16.03" width="4.02" height="4.01"/><rect class="cls-1" x="731.99" y="96.16" width="4.02" height="4.01"/><rect class="cls-1" x="731.99" y="32.05" width="4.02" height="4.01"/><rect class="cls-1" x="731.99" width="4.02" height="4.01"/><rect class="cls-1" x="731.99" y="256.42" width="4.02" height="4.01"/><rect class="cls-1" x="731.99" y="48.08" width="4.02" height="4.01"/><rect class="cls-1" x="731.99" y="64.11" width="4.02" height="4.01"/><rect class="cls-1" x="731.99" y="272.45" width="4.02" height="4.01"/><rect class="cls-1" x="731.99" y="432.71" width="4.02" height="4.01"/><rect class="cls-1" x="731.99" y="416.68" width="4.02" height="4.01"/><rect class="cls-1" x="731.99" y="448.73" width="4.02" height="4.01"/><rect class="cls-1" x="731.99" y="480.79" width="4.02" height="4.01"/><rect class="cls-1" x="731.99" y="496.81" width="4.02" height="4.01"/><rect class="cls-1" x="731.99" y="464.76" width="4.02" height="4.01"/><rect class="cls-1" x="731.99" y="400.66" width="4.02" height="4.01"/><rect class="cls-1" x="731.99" y="384.63" width="4.02" height="4.01"/><rect class="cls-1" x="731.99" y="320.52" width="4.02" height="4.01"/><rect class="cls-1" x="731.99" y="336.55" width="4.02" height="4.01"/><rect class="cls-1" x="731.99" y="304.5" width="4.02" height="4.01"/><rect class="cls-1" x="731.99" y="288.47" width="4.02" height="4.01"/><rect class="cls-1" x="731.99" y="352.58" width="4.02" height="4.01"/><rect class="cls-1" x="731.99" y="368.6" width="4.02" height="4.01"/><rect class="cls-1" x="914.98" y="240.39" width="4.02" height="4.01"/><rect class="cls-1" x="914.98" y="128.21" width="4.02" height="4.01"/><rect class="cls-1" x="914.98" y="176.29" width="4.02" height="4.01"/><rect class="cls-1" x="914.98" y="192.32" width="4.02" height="4.01"/><rect class="cls-1" x="914.98" y="112.18" width="4.02" height="4.01"/><rect class="cls-1" x="914.98" y="224.37" width="4.02" height="4.01"/><rect class="cls-1" x="914.98" y="208.34" width="4.02" height="4.01"/><rect class="cls-1" x="914.98" y="144.24" width="4.02" height="4.01"/><rect class="cls-1" x="914.98" y="32.05" width="4.02" height="4.01"/><rect class="cls-1" x="914.98" y="16.03" width="4.02" height="4.01"/><rect class="cls-1" x="914.98" y="96.16" width="4.02" height="4.01"/><rect class="cls-1" x="914.98" width="4.02" height="4.01"/><rect class="cls-1" x="914.98" y="48.08" width="4.02" height="4.01"/><rect class="cls-1" x="914.98" y="80.13" width="4.02" height="4.01"/><rect class="cls-1" x="914.98" y="64.11" width="4.02" height="4.01"/><rect class="cls-1" x="914.98" y="160.26" width="4.02" height="4.01"/><rect class="cls-1" x="914.98" y="448.73" width="4.02" height="4.01"/><rect class="cls-1" x="914.98" y="416.68" width="4.02" height="4.01"/><rect class="cls-1" x="914.98" y="432.71" width="4.02" height="4.01"/><rect class="cls-1" x="914.98" y="400.66" width="4.02" height="4.01"/><rect class="cls-1" x="914.98" y="464.76" width="4.02" height="4.01"/><rect class="cls-1" x="914.98" y="496.81" width="4.02" height="4.01"/><rect class="cls-1" x="914.98" y="480.79" width="4.02" height="4.01"/><rect class="cls-1" x="914.98" y="256.42" width="4.02" height="4.01"/><rect class="cls-1" x="914.98" y="384.63" width="4.02" height="4.01"/><rect class="cls-1" x="914.98" y="288.47" width="4.02" height="4.01"/><rect class="cls-1" x="914.98" y="304.5" width="4.02" height="4.01"/><rect class="cls-1" x="914.98" y="272.45" width="4.02" height="4.01"/><rect class="cls-1" x="914.98" y="320.52" width="4.02" height="4.01"/><rect class="cls-1" x="914.98" y="336.55" width="4.02" height="4.01"/><rect class="cls-1" x="914.98" y="352.58" width="4.02" height="4.01"/><rect class="cls-1" x="914.98" y="368.6" width="4.02" height="4.01"/><rect class="cls-1" x="1097.98" y="224.37" width="4.02" height="4.01"/><rect class="cls-1" x="1097.98" y="144.24" width="4.02" height="4.01"/><rect class="cls-1" x="1097.98" y="160.26" width="4.02" height="4.01"/><rect class="cls-1" x="1097.98" y="176.29" width="4.02" height="4.01"/><rect class="cls-1" x="1097.98" y="128.21" width="4.02" height="4.01"/><rect class="cls-1" x="1097.98" y="208.34" width="4.02" height="4.01"/><rect class="cls-1" x="1097.98" y="192.32" width="4.02" height="4.01"/><rect class="cls-1" x="1097.98" y="80.13" width="4.02" height="4.01"/><rect class="cls-1" x="1097.98" y="16.03" width="4.02" height="4.01"/><rect class="cls-1" x="1097.98" y="240.39" width="4.02" height="4.01"/><rect class="cls-1" x="1097.98" y="112.18" width="4.02" height="4.01"/><rect class="cls-1" x="1097.98" y="32.05" width="4.02" height="4.01"/><rect class="cls-1" x="1097.98" y="96.16" width="4.02" height="4.01"/><rect class="cls-1" x="1097.98" y="64.11" width="4.02" height="4.01"/><rect class="cls-1" x="1097.98" y="48.08" width="4.02" height="4.01"/><rect class="cls-1" x="1097.98" width="4.02" height="4.01"/><rect class="cls-1" x="1097.98" y="432.71" width="4.02" height="4.01"/><rect class="cls-1" x="1097.98" y="416.68" width="4.02" height="4.01"/><rect class="cls-1" x="1097.98" y="448.73" width="4.02" height="4.01"/><rect class="cls-1" x="1097.98" y="384.63" width="4.02" height="4.01"/><rect class="cls-1" x="1097.98" y="400.66" width="4.02" height="4.01"/><rect class="cls-1" x="1097.98" y="464.76" width="4.02" height="4.01"/><rect class="cls-1" x="1097.98" y="496.81" width="4.02" height="4.01"/><rect class="cls-1" x="1097.98" y="480.79" width="4.02" height="4.01"/><rect class="cls-1" x="1097.98" y="272.45" width="4.02" height="4.01"/><rect class="cls-1" x="1097.98" y="288.47" width="4.02" height="4.01"/><rect class="cls-1" x="1097.98" y="368.6" width="4.02" height="4.01"/><rect class="cls-1" x="1097.98" y="256.42" width="4.02" height="4.01"/><rect class="cls-1" x="1097.98" y="304.5" width="4.02" height="4.01"/><rect class="cls-1" x="1097.98" y="352.58" width="4.02" height="4.01"/><rect class="cls-1" x="1097.98" y="336.55" width="4.02" height="4.01"/><rect class="cls-1" x="1097.98" y="320.52" width="4.02" height="4.01"/><rect class="cls-1" x="1280.98" y="176.29" width="4.02" height="4.01"/><rect class="cls-1" x="1280.98" y="144.24" width="4.02" height="4.01"/><rect class="cls-1" x="1280.98" y="128.21" width="4.02" height="4.01"/><rect class="cls-1" x="1280.98" y="160.26" width="4.02" height="4.01"/><rect class="cls-1" x="1280.98" y="192.32" width="4.02" height="4.01"/><rect class="cls-1" x="1280.98" y="240.39" width="4.02" height="4.01"/><rect class="cls-1" x="1280.98" y="208.34" width="4.02" height="4.01"/><rect class="cls-1" x="1280.98" y="224.37" width="4.02" height="4.01"/><rect class="cls-1" x="1280.98" y="16.03" width="4.02" height="4.01"/><rect class="cls-1" x="1280.98" width="4.02" height="4.01"/><rect class="cls-1" x="1280.98" y="32.05" width="4.02" height="4.01"/><rect class="cls-1" x="1280.98" y="112.18" width="4.02" height="4.01"/><rect class="cls-1" x="1280.98" y="96.16" width="4.02" height="4.01"/><rect class="cls-1" x="1280.98" y="64.11" width="4.02" height="4.01"/><rect class="cls-1" x="1280.98" y="80.13" width="4.02" height="4.01"/><rect class="cls-1" x="1280.98" y="48.08" width="4.02" height="4.01"/><rect class="cls-1" x="1280.98" y="416.68" width="4.02" height="4.01"/><rect class="cls-1" x="1280.98" y="432.71" width="4.02" height="4.01"/><rect class="cls-1" x="1280.98" y="448.73" width="4.02" height="4.01"/><rect class="cls-1" x="1280.98" y="400.66" width="4.02" height="4.01"/><rect class="cls-1" x="1280.98" y="496.81" width="4.02" height="4.01"/><rect class="cls-1" x="1280.98" y="384.63" width="4.02" height="4.01"/><rect class="cls-1" x="1280.98" y="256.42" width="4.02" height="4.01"/><rect class="cls-1" x="1280.98" y="480.79" width="4.02" height="4.01"/><rect class="cls-1" x="1280.98" y="464.76" width="4.02" height="4.01"/><rect class="cls-1" x="1280.98" y="304.5" width="4.02" height="4.01"/><rect class="cls-1" x="1280.98" y="288.47" width="4.02" height="4.01"/><rect class="cls-1" x="1280.98" y="272.45" width="4.02" height="4.01"/><rect class="cls-1" x="1280.98" y="368.6" width="4.02" height="4.01"/><rect class="cls-1" x="1280.98" y="320.52" width="4.02" height="4.01"/><rect class="cls-1" x="1280.98" y="352.58" width="4.02" height="4.01"/><rect class="cls-1" x="1280.98" y="336.55" width="4.02" height="4.01"/><rect class="cls-2" x="4.02" y="60.37" width="301.64" height="48.26"/><rect class="cls-2" x="255.39" y="126.74" width="295.61" height="48.26"/><rect class="cls-2" x="448.44" y="245.38" width="711.88" height="48.26"/><rect class="cls-2" x="448.44" y="305.71" width="468.55" height="48.26"/><rect class="cls-2" x="534.91" y="364.03" width="384.09" height="48.26"/><rect class="cls-2" x="734" y="422.35" width="548.99" height="48.26"/><path class="cls-3" d="M106.43,75.46h5.9a6.38,6.38,0,0,1,5,2,8.35,8.35,0,0,1,2.29,6A8.16,8.16,0,0,1,116.82,90a7.79,7.79,0,0,1-5.14,1.6h-5.25Zm5.37,13.72c2.82,0,4.66-2.26,4.66-5.76,0-3.33-1.78-5.67-4.32-5.67h-2.75V89.18Z"/><path class="cls-3" d="M122.16,78.26v-2.8h2.68v2.8Zm0,13.29V79.66h2.68V91.55Z"/><path class="cls-3" d="M129.13,88.34a2.43,2.43,0,0,0,2.63,1.45c1.52,0,2.41-.53,2.41-1.47,0-.58-.5-1-1.3-1.19l-2.17-.43c-2.46-.46-3.59-1.57-3.59-3.5a3.61,3.61,0,0,1,.94-2.48,4.6,4.6,0,0,1,3.64-1.3c2.46,0,4,.94,4.58,2.74l-2.41.51c-.31-1-.94-1.35-2.17-1.35s-2.1.51-2.1,1.28.51,1.11,1.72,1.35l2.55.53a3.27,3.27,0,0,1,3,3.45c0,2.36-2,3.86-5.18,3.86a6.42,6.42,0,0,1-3.82-1.11,3.29,3.29,0,0,1-1.23-1.86Z"/><path class="cls-3" d="M148.19,87.42a5.75,5.75,0,0,1-1.11,2.63,4.53,4.53,0,0,1-3.76,1.74c-3,0-5.06-2.49-5.06-6.18s2.14-6.19,5.3-6.19a4.48,4.48,0,0,1,3.55,1.49,4.7,4.7,0,0,1,1.08,2.61l-2.31.31c-.2-1.47-.94-2.22-2.18-2.22-1.63,0-2.6,1.52-2.6,4.1,0,2.34.92,3.74,2.44,3.74,1.18,0,2-.77,2.34-2.27Z"/><path class="cls-3" d="M159.65,81.85a6.59,6.59,0,0,1,1,3.76c0,3.65-2.31,6.18-5.64,6.18a4.85,4.85,0,0,1-4.25-2.2,7,7,0,0,1-1.18-4c0-3.62,2.3-6.15,5.58-6.15A4.93,4.93,0,0,1,159.65,81.85Zm-7.23,3.74c0,2.56,1,4,2.67,4s2.71-1.44,2.71-4-.94-3.93-2.65-3.93S152.42,83,152.42,85.59Z"/><path class="cls-3" d="M167.67,91.55h-2.25L161.3,79.66h2.8l2.77,8,2.73-8h2.09Z"/><path class="cls-3" d="M183.18,88.07a5.14,5.14,0,0,1-5.28,3.72c-3.33,0-5.48-2.41-5.48-6.15s2.25-6.22,5.6-6.22,5.33,2.31,5.35,6.51h-8.15v.33c0,2.17,1.06,3.41,2.85,3.41a2.59,2.59,0,0,0,2.68-1.93Zm-2.58-3.88a2.93,2.93,0,0,0-.6-1.86,2.5,2.5,0,0,0-2.08-1c-1.52,0-2.48,1-2.7,2.89Z"/><path class="cls-3" d="M185.84,91.55V79.66h2.44V82.5c.55-2.07,1.95-3.3,3.61-3.18v2.89h-.17l-.45,0c-1.55.05-2.75,1.68-2.75,3.81v5.5Z"/><path class="cls-3" d="M198.63,93.21C198,95,197,95.84,195.4,95.84c-.34,0-1,0-1.55-.1V93.62c.49,0,1,0,1.33,0a1.64,1.64,0,0,0,1.57-.67,5.3,5.3,0,0,0,.5-1.4,4.06,4.06,0,0,0-.24-.75l-4.07-11.16h2.79l2.9,7.86,2.48-7.86h2.15Z"/><path class="cls-3" d="M268.58,153.42a2.63,2.63,0,0,0,.92,1.55,4.83,4.83,0,0,0,3,.84c1.95,0,3.18-.87,3.18-2.27,0-1-.65-1.59-2-1.95l-3.09-.8c-1.63-.43-2.46-.86-3-1.64a4.34,4.34,0,0,1-.94-2.77c0-2.87,2.26-4.8,5.69-4.8a7.07,7.07,0,0,1,4.44,1.4,3.74,3.74,0,0,1,1.35,2.07l-2.75.68c-.44-1.23-1.4-1.81-3-1.81s-2.75.77-2.75,2c0,.94.73,1.56,2.24,1.95l2.75.68a5.37,5.37,0,0,1,3.41,2,4.61,4.61,0,0,1,.77,2.61c0,3.06-2.53,5-6.42,5a7.76,7.76,0,0,1-4.94-1.52,4.72,4.72,0,0,1-1.62-2.61Z"/><path class="cls-3" d="M281.1,144.62v-2.8h2.68v2.8Zm0,13.29V146h2.68v11.89Z"/><path class="cls-3" d="M292.52,157.91a10,10,0,0,1-1.89.26,3.62,3.62,0,0,1-2.53-.94c-.63-.62-.82-1.35-.82-3v-6.15h-1.47V146h1.64l.24-3.09,2.2-.19V146h2.41v2.1h-2.41v5.78c0,1.5.43,1.93,1.95,1.93.1,0,.39,0,.68,0Z"/><path class="cls-3" d="M304.36,154.44a5.13,5.13,0,0,1-5.28,3.71c-3.33,0-5.47-2.41-5.47-6.15s2.24-6.22,5.59-6.22,5.33,2.31,5.36,6.51H296.4v.34c0,2.17,1.06,3.4,2.85,3.4a2.59,2.59,0,0,0,2.68-1.93Zm-2.58-3.89a2.93,2.93,0,0,0-.6-1.86,2.5,2.5,0,0,0-2.08-1c-1.52,0-2.48,1-2.7,2.89Z"/><path class="cls-3" d="M326,150c0,4.85-2.8,8.15-6.9,8.15a6,6,0,0,1-5-2.39,10,10,0,0,1-1.78-6c0-4.82,2.84-8.22,6.89-8.22S326,144.88,326,150Zm-9.7-4.42a9.77,9.77,0,0,0-.84,4.32c0,3.84,1.3,5.91,3.67,5.91a3.39,3.39,0,0,0,3-1.86,8.89,8.89,0,0,0,.73-3.9c0-4.06-1.24-6.13-3.67-6.13A3.1,3.1,0,0,0,316.33,145.58Z"/><path class="cls-3" d="M328.57,157.91V146H331v2.84c.55-2.07,1.95-3.3,3.61-3.18v2.89h-.17l-.45,0c-1.55.05-2.75,1.69-2.75,3.81v5.5Z"/><path class="cls-3" d="M347.36,145.8h-.82a1.57,1.57,0,0,0-1.73,1,3.14,3.14,0,0,1,1.4,2.58c0,2.12-2,3.64-4.8,3.64a8.53,8.53,0,0,1-2.25-.32c-.6.32-.82.61-.82,1.14,0,.72.63,1.2,1.62,1.2h3.54c2.32,0,3.89,1.33,3.89,3.26,0,2.41-2.37,3.91-6.2,3.91s-5.77-1.09-5.77-3.24c0-1.13.44-1.73,1.74-2.41-.84-.74-1.11-1.2-1.11-1.95,0-1.09.53-1.78,1.91-2.48a3,3,0,0,1-1.67-2.73,3.17,3.17,0,0,1,1-2.36,5.29,5.29,0,0,1,3.91-1.23,9.62,9.62,0,0,1,2.26.24,2.64,2.64,0,0,1,2.85-2.27h1Zm-7.11,11.75a6.07,6.07,0,0,1-1.93-.29c-.43.41-.58.65-.58,1,0,1.26,1.54,2.05,4,2.05,2.05,0,3.11-.55,3.11-1.59,0-.72-.7-1.2-1.78-1.2Zm-1.18-8.11a2,2,0,0,0,2.19,2c1.35,0,2.2-.73,2.2-1.89a1.91,1.91,0,0,0-2.15-2A2,2,0,0,0,339.07,149.44Z"/><path class="cls-3" d="M347.71,161.94H346l10.47-20.12h1.74Z"/><path class="cls-3" d="M372.39,152.63a6,6,0,0,1-1.57,3.64,5.66,5.66,0,0,1-4.51,1.88,5.35,5.35,0,0,1-4.49-2,10,10,0,0,1-1.95-6.3c0-5,2.56-8.27,6.54-8.27,3.28,0,5.38,2,6,5.69l-2.68.29a6.09,6.09,0,0,0-1-2.51,2.84,2.84,0,0,0-2.29-1.13c-2.19,0-3.43,2.12-3.43,5.86s1.31,5.93,3.53,5.93c1.66,0,2.94-1.37,3.18-3.4Z"/><path class="cls-3" d="M384,148.21a6.54,6.54,0,0,1,1,3.77c0,3.64-2.31,6.17-5.64,6.17a4.82,4.82,0,0,1-4.24-2.2,6.88,6.88,0,0,1-1.19-4c0-3.62,2.3-6.15,5.58-6.15A4.93,4.93,0,0,1,384,148.21ZM376.76,152c0,2.56,1,4,2.68,4s2.7-1.44,2.7-4-.94-3.93-2.65-3.93S376.76,149.39,376.76,152Z"/><path class="cls-3" d="M394.61,157.91v-7.43c0-1.45-.72-2.36-1.85-2.36a2.53,2.53,0,0,0-2.2,1.47,4.9,4.9,0,0,0-.43,2.22v6.1h-2.68V146h2.44v2.75c1-2.15,2-3,3.64-3a3.7,3.7,0,0,1,3.25,1.76,5.45,5.45,0,0,1,.51,2.7v7.67Z"/><path class="cls-3" d="M406,157.91a9.78,9.78,0,0,1-1.88.26,3.62,3.62,0,0,1-2.53-.94c-.63-.62-.82-1.35-.82-3v-6.15H399.3V146h1.64l.24-3.09,2.2-.19V146h2.41v2.1h-2.41v5.78c0,1.5.43,1.93,1.95,1.93.1,0,.39,0,.67,0Z"/><path class="cls-3" d="M417.85,154.44a5.13,5.13,0,0,1-5.28,3.71c-3.33,0-5.48-2.41-5.48-6.15s2.25-6.22,5.6-6.22,5.33,2.31,5.35,6.51h-8.15v.34c0,2.17,1.06,3.4,2.85,3.4a2.59,2.59,0,0,0,2.68-1.93Zm-2.58-3.89a2.93,2.93,0,0,0-.6-1.86,2.5,2.5,0,0,0-2.08-1c-1.52,0-2.48,1-2.7,2.89Z"/><path class="cls-3" d="M427.67,157.91v-7.43c0-1.45-.72-2.36-1.85-2.36a2.53,2.53,0,0,0-2.2,1.47,4.9,4.9,0,0,0-.43,2.22v6.1h-2.68V146H423v2.75c1-2.15,2-3,3.64-3a3.73,3.73,0,0,1,3.26,1.76,5.58,5.58,0,0,1,.5,2.7v7.67Z"/><path class="cls-3" d="M439.07,157.91a10,10,0,0,1-1.89.26,3.62,3.62,0,0,1-2.53-.94c-.63-.62-.82-1.35-.82-3v-6.15h-1.47V146H434l.24-3.09,2.2-.19V146h2.41v2.1h-2.41v5.78c0,1.5.43,1.93,1.95,1.93.1,0,.39,0,.68,0Z"/><path class="cls-3" d="M460.32,157.91V143.82l-4.46,14.09h-1.52l-4.46-14.09v14.09h-2.36V141.82h4.53l3.35,10.37,3.33-10.37h4.56v16.09Z"/><path class="cls-3" d="M476,148.21a6.62,6.62,0,0,1,1,3.77c0,3.64-2.32,6.17-5.65,6.17a4.83,4.83,0,0,1-4.24-2.2,6.87,6.87,0,0,1-1.18-4c0-3.62,2.29-6.15,5.57-6.15A4.94,4.94,0,0,1,476,148.21ZM468.77,152c0,2.56,1,4,2.68,4s2.7-1.44,2.7-4-.94-3.93-2.65-3.93S468.77,149.39,468.77,152Z"/><path class="cls-3" d="M486.72,157.91v-2.39c-.74,1.81-1.81,2.63-3.49,2.63a3.93,3.93,0,0,1-3.19-1.52,8.75,8.75,0,0,1-1.35-4.82,7.56,7.56,0,0,1,1.67-5,3.79,3.79,0,0,1,3-1.31,3.24,3.24,0,0,1,3.19,2.1v-5.81h2.67v16.09Zm-.16-7a3,3,0,0,0-.63-2.17,2.35,2.35,0,0,0-1.83-.89c-1.64,0-2.56,1.47-2.56,4.12s.87,4,2.48,4a2.78,2.78,0,0,0,2.54-3Z"/><path class="cls-3" d="M502.43,154.44a5.13,5.13,0,0,1-5.28,3.71c-3.33,0-5.47-2.41-5.47-6.15s2.24-6.22,5.59-6.22,5.33,2.31,5.36,6.51h-8.16v.34c0,2.17,1.07,3.4,2.85,3.4A2.58,2.58,0,0,0,500,154.1Zm-2.58-3.89a2.93,2.93,0,0,0-.6-1.86,2.5,2.5,0,0,0-2.07-1c-1.52,0-2.49,1-2.71,2.89Z"/><path class="cls-3" d="M505,157.91V141.82h2.68v16.09Z"/><path class="cls-3" d="M510.93,144.62v-2.8h2.68v2.8Zm0,13.29V146h2.68v11.89Z"/><path class="cls-3" d="M524,157.91v-7.43c0-1.45-.73-2.36-1.86-2.36a2.52,2.52,0,0,0-2.19,1.47,4.9,4.9,0,0,0-.44,2.22v6.1h-2.68V146h2.44v2.75c1-2.15,2-3,3.64-3a3.71,3.71,0,0,1,3.26,1.76,5.57,5.57,0,0,1,.51,2.7v7.67Z"/><path class="cls-3" d="M540.66,145.8h-.82a1.58,1.58,0,0,0-1.74,1,3.14,3.14,0,0,1,1.4,2.58c0,2.12-2,3.64-4.8,3.64a8.41,8.41,0,0,1-2.24-.32c-.61.32-.82.61-.82,1.14,0,.72.62,1.2,1.61,1.2h3.55c2.31,0,3.88,1.33,3.88,3.26,0,2.41-2.36,3.91-6.2,3.91s-5.76-1.09-5.76-3.24c0-1.13.43-1.73,1.73-2.41-.84-.74-1.1-1.2-1.1-1.95,0-1.09.53-1.78,1.9-2.48a3,3,0,0,1-1.66-2.73,3.16,3.16,0,0,1,1-2.36,5.31,5.31,0,0,1,3.91-1.23,9.7,9.7,0,0,1,2.27.24,2.63,2.63,0,0,1,2.84-2.27h1Zm-7.12,11.75a6.11,6.11,0,0,1-1.93-.29c-.43.41-.58.65-.58,1,0,1.26,1.55,2.05,4,2.05,2.05,0,3.11-.55,3.11-1.59,0-.72-.7-1.2-1.78-1.2Zm-1.18-8.11a2,2,0,0,0,2.19,2c1.36,0,2.2-.73,2.2-1.89a1.91,1.91,0,0,0-2.15-2A2,2,0,0,0,532.36,149.44Z"/><path class="cls-3" d="M160.28,216.23V202.62H156v-2.48h11.65v2.48h-4.27v13.61Z"/><path class="cls-3" d="M177.94,212.75a5.14,5.14,0,0,1-5.28,3.72c-3.33,0-5.47-2.42-5.47-6.15s2.24-6.23,5.59-6.23,5.33,2.32,5.36,6.52H170v.33c0,2.17,1.07,3.4,2.85,3.4a2.58,2.58,0,0,0,2.68-1.93Zm-2.58-3.88a2.93,2.93,0,0,0-.6-1.86,2.5,2.5,0,0,0-2.08-1c-1.52,0-2.48,1-2.7,2.89Z"/><path class="cls-3" d="M188.1,216.23a11,11,0,0,1-.41-2.42,4,4,0,0,1-4,2.66,3.64,3.64,0,0,1-3.94-3.64c0-1.86,1.19-3.14,3.43-3.69a17,17,0,0,1,4.53-.42v-.89c0-1.23-.84-1.83-2.53-1.83s-2.46.55-2.75,1.83l-2.29-.34a3.28,3.28,0,0,1,1.57-2.46,6.37,6.37,0,0,1,3.81-.94c2.05,0,3.3.41,4.08,1.31.6.67.74,1.32.74,3.06v5.35a8.75,8.75,0,0,0,.37,2.42Zm-.41-6.06c-3.42,0-5.21.85-5.21,2.49,0,1.11.8,1.78,2.1,1.78a3,3,0,0,0,3.11-3.18Z"/><path class="cls-3" d="M208.49,216.23v-7.41c0-1.52-.7-2.29-2.05-2.29-1.66,0-2.61,1.25-2.61,3.45v6.25H201v-7.41a2.45,2.45,0,0,0-.27-1.42,1.83,1.83,0,0,0-1.66-.92c-1.62,0-2.75,1.45-2.75,3.5v6.25h-2.77V204.34h2.6v2.53a5.46,5.46,0,0,1,1.3-1.86,4.12,4.12,0,0,1,2.66-.92c1.76,0,2.84.87,3.42,2.78,1-1.88,2.27-2.78,4-2.78a3.63,3.63,0,0,1,3.81,3.72v8.42Z"/><path class="cls-3" d="M220.71,216.23V200.14h2.89v16.09Z"/><path class="cls-3" d="M234.27,216.23v-2.39c-.75,1.81-1.81,2.63-3.5,2.63a3.9,3.9,0,0,1-3.18-1.52,8.68,8.68,0,0,1-1.36-4.83,7.55,7.55,0,0,1,1.67-5,3.79,3.79,0,0,1,3-1.31,3.23,3.23,0,0,1,3.19,2.1v-5.81h2.67v16.09Zm-.17-7a3,3,0,0,0-.63-2.17,2.36,2.36,0,0,0-1.83-.9c-1.64,0-2.56,1.48-2.56,4.13s.87,4,2.48,4a2.78,2.78,0,0,0,2.54-3Z"/><path class="cls-3" d="M250,212.75a5.13,5.13,0,0,1-5.28,3.72c-3.33,0-5.47-2.42-5.47-6.15s2.24-6.23,5.59-6.23,5.33,2.32,5.36,6.52H242v.33c0,2.17,1.07,3.4,2.85,3.4a2.57,2.57,0,0,0,2.68-1.93Zm-2.58-3.88a2.88,2.88,0,0,0-.6-1.86,2.5,2.5,0,0,0-2.07-1c-1.52,0-2.49,1-2.71,2.89Z"/><path class="cls-3" d="M259.8,216.23V208.8c0-1.45-.73-2.37-1.86-2.37a2.56,2.56,0,0,0-2.2,1.48,5,5,0,0,0-.43,2.21v6.11h-2.68V204.34h2.44v2.75c1-2.15,2-3,3.64-3a3.73,3.73,0,0,1,3.26,1.76,5.62,5.62,0,0,1,.5,2.71v7.67Z"/><path class="cls-3" d="M271.19,216.23a10.9,10.9,0,0,1-1.88.26,3.59,3.59,0,0,1-2.53-.94c-.63-.63-.83-1.35-.83-3v-6.15h-1.47v-2.09h1.64l.25-3.09,2.19-.19v3.28H271v2.09h-2.41v5.79c0,1.5.43,1.93,1.95,1.93.1,0,.39,0,.68,0Z"/><path class="cls-3" d="M273.24,202.94v-2.8h2.68v2.8Zm0,13.29V204.34h2.68v11.89Z"/><path class="cls-3" d="M279.57,216.23v-9.8H277.8v-2.09h1.77c0-1.89.19-2.66.89-3.43s1.59-1,3.37-1c.37,0,.51,0,1,0V202a4.05,4.05,0,0,0-.73-.05,2.07,2.07,0,0,0-1.66.51c-.24.31-.26.48-.26,1.86h2.65v2.09h-2.65v9.8Z"/><path class="cls-3" d="M286.64,202.94v-2.8h2.67v2.8Zm0,13.29V204.34h2.67v11.89Z"/><path class="cls-3" d="M302.53,212.75a5.13,5.13,0,0,1-5.28,3.72c-3.33,0-5.47-2.42-5.47-6.15s2.24-6.23,5.59-6.23,5.33,2.32,5.36,6.52h-8.16v.33c0,2.17,1.07,3.4,2.85,3.4a2.57,2.57,0,0,0,2.68-1.93ZM300,208.87a2.88,2.88,0,0,0-.6-1.86,2.5,2.5,0,0,0-2.07-1c-1.52,0-2.49,1-2.71,2.89Z"/><path class="cls-3" d="M312.45,216.23v-2.39c-.74,1.81-1.81,2.63-3.49,2.63a3.91,3.91,0,0,1-3.19-1.52,8.76,8.76,0,0,1-1.35-4.83,7.5,7.5,0,0,1,1.67-5,3.77,3.77,0,0,1,3-1.31,3.24,3.24,0,0,1,3.19,2.1v-5.81H315v16.09Zm-.16-7a3,3,0,0,0-.63-2.17,2.38,2.38,0,0,0-1.84-.9c-1.64,0-2.55,1.48-2.55,4.13s.87,4,2.48,4a2.78,2.78,0,0,0,2.54-3Z"/><path class="cls-3" d="M744.57,271.27a6,6,0,0,1-1.57,3.64,5.65,5.65,0,0,1-4.51,1.89,5.33,5.33,0,0,1-4.48-2,9.88,9.88,0,0,1-2-6.29c0-5,2.56-8.27,6.54-8.27,3.28,0,5.38,2,6,5.69l-2.68.29a6,6,0,0,0-1-2.51,2.82,2.82,0,0,0-2.29-1.13c-2.19,0-3.42,2.12-3.42,5.86s1.3,5.93,3.52,5.93c1.66,0,2.94-1.37,3.18-3.4Z"/><path class="cls-3" d="M756.18,266.86a6.59,6.59,0,0,1,1,3.76c0,3.64-2.32,6.18-5.65,6.18a4.82,4.82,0,0,1-4.24-2.2,6.92,6.92,0,0,1-1.18-4c0-3.61,2.29-6.15,5.57-6.15A4.93,4.93,0,0,1,756.18,266.86Zm-7.24,3.74c0,2.55,1,4,2.68,4s2.7-1.45,2.7-4.05-.94-3.93-2.65-3.93S748.94,268,748.94,270.6Z"/><path class="cls-3" d="M766.8,276.55v-7.42c0-1.45-.72-2.37-1.86-2.37a2.56,2.56,0,0,0-2.2,1.47,5.07,5.07,0,0,0-.43,2.22v6.1h-2.68V264.66h2.44v2.75c1-2.14,2-3,3.64-3a3.73,3.73,0,0,1,3.26,1.76,5.59,5.59,0,0,1,.51,2.71v7.66Z"/><path class="cls-3" d="M778.19,276.55a10.06,10.06,0,0,1-1.88.27,3.59,3.59,0,0,1-2.53-.94c-.63-.63-.82-1.35-.82-3v-6.15h-1.48v-2.1h1.65l.24-3.08,2.19-.2v3.28H778v2.1h-2.41v5.79c0,1.5.43,1.93,2,1.93.1,0,.39,0,.68,0Z"/><path class="cls-3" d="M790,273.08a5.13,5.13,0,0,1-5.27,3.72c-3.34,0-5.48-2.42-5.48-6.15s2.24-6.23,5.59-6.23,5.33,2.32,5.36,6.52h-8.15v.33c0,2.17,1.06,3.4,2.84,3.4a2.56,2.56,0,0,0,2.68-1.93Zm-2.58-3.88a2.88,2.88,0,0,0-.6-1.86,2.47,2.47,0,0,0-2.07-1c-1.52,0-2.49,1-2.7,2.89Z"/><path class="cls-3" d="M799.86,276.55v-7.42c0-1.45-.73-2.37-1.86-2.37a2.54,2.54,0,0,0-2.19,1.47,4.93,4.93,0,0,0-.44,2.22v6.1H792.7V264.66h2.43v2.75c1-2.14,2-3,3.64-3a3.73,3.73,0,0,1,3.26,1.76,5.59,5.59,0,0,1,.51,2.71v7.66Z"/><path class="cls-3" d="M811.25,276.55a10.17,10.17,0,0,1-1.88.27,3.6,3.6,0,0,1-2.53-.94c-.63-.63-.82-1.35-.82-3v-6.15h-1.47v-2.1h1.63l.25-3.08,2.19-.2v3.28H811v2.1h-2.41v5.79c0,1.5.44,1.93,2,1.93.09,0,.38,0,.67,0Z"/><path class="cls-3" d="M831.37,271.27a6,6,0,0,1-1.56,3.64,5.66,5.66,0,0,1-4.51,1.89,5.33,5.33,0,0,1-4.49-2,9.88,9.88,0,0,1-1.95-6.29c0-5,2.55-8.27,6.53-8.27,3.28,0,5.38,2,6,5.69l-2.68.29a6.19,6.19,0,0,0-1-2.51,2.86,2.86,0,0,0-2.3-1.13c-2.19,0-3.42,2.12-3.42,5.86s1.3,5.93,3.52,5.93c1.67,0,2.94-1.37,3.18-3.4Z"/><path class="cls-3" d="M833.53,276.55V264.66H836v2.85c.56-2.07,2-3.3,3.62-3.18v2.89h-.17l-.46,0c-1.54.05-2.75,1.69-2.75,3.82v5.49Z"/><path class="cls-3" d="M851.35,273.08a5.14,5.14,0,0,1-5.28,3.72c-3.33,0-5.47-2.42-5.47-6.15s2.24-6.23,5.59-6.23,5.33,2.32,5.36,6.52H843.4v.33c0,2.17,1.06,3.4,2.84,3.4a2.57,2.57,0,0,0,2.68-1.93Zm-2.58-3.88a2.93,2.93,0,0,0-.6-1.86,2.49,2.49,0,0,0-2.07-1c-1.52,0-2.49,1-2.7,2.89Z"/><path class="cls-3" d="M861.51,276.55a10.91,10.91,0,0,1-.41-2.41,4,4,0,0,1-4,2.66,3.63,3.63,0,0,1-3.93-3.65c0-1.85,1.18-3.13,3.42-3.69a17.6,17.6,0,0,1,4.53-.41v-.89c0-1.23-.84-1.83-2.53-1.83s-2.46.55-2.75,1.83l-2.29-.34a3.28,3.28,0,0,1,1.57-2.46,6.37,6.37,0,0,1,3.81-.94c2.05,0,3.31.41,4.08,1.3.6.68.74,1.33.74,3.07v5.35a8.68,8.68,0,0,0,.37,2.41Zm-.41-6.05c-3.42,0-5.2.84-5.2,2.49,0,1.1.79,1.78,2.09,1.78a3,3,0,0,0,3.11-3.18Z"/><path class="cls-3" d="M872.28,276.55a10.17,10.17,0,0,1-1.88.27,3.63,3.63,0,0,1-2.54-.94c-.62-.63-.82-1.35-.82-3v-6.15h-1.47v-2.1h1.64l.25-3.08,2.19-.2v3.28h2.41v2.1h-2.41v5.79c0,1.5.43,1.93,2,1.93.1,0,.39,0,.68,0Z"/><path class="cls-3" d="M874.33,263.27v-2.8H877v2.8Zm0,13.28V264.66H877v11.89Z"/><path class="cls-3" d="M889.55,266.86a6.51,6.51,0,0,1,1,3.76c0,3.64-2.31,6.18-5.64,6.18a4.82,4.82,0,0,1-4.24-2.2,6.93,6.93,0,0,1-1.19-4c0-3.61,2.29-6.15,5.57-6.15A4.92,4.92,0,0,1,889.55,266.86Zm-7.23,3.74c0,2.55,1,4,2.68,4s2.7-1.45,2.7-4.05-.94-3.93-2.66-3.93S882.32,268,882.32,270.6Z"/><path class="cls-3" d="M900.17,276.55v-7.42c0-1.45-.72-2.37-1.85-2.37a2.55,2.55,0,0,0-2.2,1.47,4.93,4.93,0,0,0-.43,2.22v6.1H893V264.66h2.43v2.75c1-2.14,2-3,3.65-3a3.75,3.75,0,0,1,3.26,1.76,5.6,5.6,0,0,1,.5,2.71v7.66Z"/><path class="cls-3" d="M627.13,331.14c0,2.41-.29,3.38-1.35,4.44a6.7,6.7,0,0,1-8.57,0c-.93-1-1.27-2.1-1.27-4.22V320.8h3v10.34a3.73,3.73,0,0,0,.7,2.61,3.24,3.24,0,0,0,2.27.84,3,3,0,0,0,2.39-1,4.34,4.34,0,0,0,.58-2.46V320.8h2.29Z"/><path class="cls-3" d="M630.44,336.88V320.8h2.89v16.08Z"/><path class="cls-3" d="M635.43,340.91h-1.66l10.47-20.11H646Z"/><path class="cls-3" d="M659.32,331.14c0,2.41-.29,3.38-1.35,4.44a6.7,6.7,0,0,1-8.57,0c-.93-1-1.27-2.1-1.27-4.22V320.8h3v10.34a3.73,3.73,0,0,0,.7,2.61,3.26,3.26,0,0,0,2.27.84,3,3,0,0,0,2.39-1,4.34,4.34,0,0,0,.58-2.46V320.8h2.29Z"/><path class="cls-3" d="M670.71,336.88l-3.57-6.34-3.76,6.34h-2.7l5.09-8.39-4.37-7.69h3.35l3,5.35,3.14-5.35h2.7l-4.46,7.33,5,8.75Z"/><path class="cls-3" d="M682,320.8h5.91a6.39,6.39,0,0,1,5,2,8.39,8.39,0,0,1,2.29,6,8.19,8.19,0,0,1-2.78,6.49,7.81,7.81,0,0,1-5.13,1.59H682Zm5.38,13.72c2.82,0,4.65-2.27,4.65-5.77,0-3.32-1.78-5.66-4.31-5.66h-2.75v11.43Z"/><path class="cls-3" d="M707.68,333.41a5.14,5.14,0,0,1-5.28,3.71c-3.33,0-5.48-2.41-5.48-6.15s2.24-6.22,5.6-6.22,5.33,2.32,5.35,6.51h-8.15v.34c0,2.17,1.06,3.4,2.85,3.4a2.56,2.56,0,0,0,2.67-1.93Zm-2.58-3.88a2.84,2.84,0,0,0-.61-1.86,2.48,2.48,0,0,0-2.07-1c-1.52,0-2.48,1-2.7,2.9Z"/><path class="cls-3" d="M711.47,333.68c.51,1.06,1.18,1.44,2.63,1.44s2.41-.53,2.41-1.47c0-.58-.5-1-1.3-1.18L713,332c-2.46-.45-3.59-1.56-3.59-3.49a3.63,3.63,0,0,1,.94-2.49,4.6,4.6,0,0,1,3.64-1.3c2.46,0,4,.94,4.58,2.75l-2.41.51c-.32-1-.94-1.35-2.17-1.35s-2.1.5-2.1,1.27.51,1.12,1.71,1.35l2.56.54a3.27,3.27,0,0,1,3,3.45c0,2.36-2,3.85-5.19,3.85a6.39,6.39,0,0,1-3.81-1.1,3.3,3.3,0,0,1-1.23-1.86Z"/><path class="cls-3" d="M721.37,323.59V320.8H724v2.79Zm0,13.29V325H724v11.89Z"/><path class="cls-3" d="M738,324.78h-.81a1.58,1.58,0,0,0-1.74,1,3.17,3.17,0,0,1,1.4,2.58c0,2.12-2,3.64-4.8,3.64a8.77,8.77,0,0,1-2.24-.31c-.61.31-.83.6-.83,1.13,0,.73.63,1.21,1.62,1.21h3.55c2.31,0,3.88,1.32,3.88,3.25,0,2.42-2.36,3.91-6.2,3.91s-5.76-1.08-5.76-3.23c0-1.13.43-1.74,1.73-2.41-.84-.75-1.11-1.21-1.11-2,0-1.08.53-1.78,1.91-2.48a3,3,0,0,1-1.67-2.72,3.18,3.18,0,0,1,1-2.37,5.34,5.34,0,0,1,3.91-1.23,10.32,10.32,0,0,1,2.27.24,2.61,2.61,0,0,1,2.84-2.26h1Zm-7.11,11.74a6.07,6.07,0,0,1-1.93-.29c-.44.41-.58.65-.58,1,0,1.25,1.54,2.05,4,2.05,2,0,3.11-.56,3.11-1.59,0-.73-.7-1.21-1.78-1.21Zm-1.18-8.1a2,2,0,0,0,2.19,1.95c1.35,0,2.2-.72,2.2-1.88a1.91,1.91,0,0,0-2.15-2.05A2,2,0,0,0,729.74,328.42Z"/><path class="cls-3" d="M746.84,336.88v-7.43c0-1.44-.72-2.36-1.85-2.36a2.55,2.55,0,0,0-2.2,1.47,4.9,4.9,0,0,0-.43,2.22v6.1h-2.68V325h2.44v2.75c1-2.14,2-3,3.64-3a3.72,3.72,0,0,1,3.25,1.76,5.45,5.45,0,0,1,.51,2.7v7.67Z"/><path class="cls-3" d="M608.21,379.12h6.27a5.49,5.49,0,0,1,3.54.81,4,4,0,0,1,1.67,3.36,3.47,3.47,0,0,1-2.92,3.57,4,4,0,0,1,1.91.77,3.81,3.81,0,0,1,1.52,3.21,4.41,4.41,0,0,1-1.31,3.18,4.92,4.92,0,0,1-3.66,1.18h-7Zm6.27,6.75a2.19,2.19,0,0,0,2.34-2.32,2.14,2.14,0,0,0-2.39-2.15H611v4.47Zm.22,6.92a2.28,2.28,0,0,0,2.56-2.32,2.31,2.31,0,0,0-2.54-2.31H611v4.63Z"/><path class="cls-3" d="M630.31,395.2a10.45,10.45,0,0,1-.41-2.41,4,4,0,0,1-4,2.65,3.63,3.63,0,0,1-3.93-3.64c0-1.86,1.18-3.13,3.43-3.69a17.55,17.55,0,0,1,4.53-.41v-.89c0-1.23-.84-1.83-2.53-1.83s-2.46.55-2.75,1.83l-2.29-.34A3.24,3.24,0,0,1,623.9,384a6.28,6.28,0,0,1,3.81-.94c2,0,3.3.41,4.07,1.3.6.68.75,1.33.75,3.06v5.36a9,9,0,0,0,.36,2.41Zm-.41-6.05c-3.42,0-5.21.84-5.21,2.48,0,1.11.8,1.79,2.1,1.79a3,3,0,0,0,3.11-3.19Z"/><path class="cls-3" d="M644.91,391.08a5.91,5.91,0,0,1-1.11,2.63,4.55,4.55,0,0,1-3.76,1.73c-3,0-5.07-2.48-5.07-6.17s2.15-6.2,5.31-6.2a4.46,4.46,0,0,1,3.54,1.49,4.64,4.64,0,0,1,1.09,2.61l-2.32.31c-.19-1.47-.94-2.22-2.17-2.22-1.64,0-2.6,1.52-2.6,4.1,0,2.34.92,3.74,2.43,3.74,1.18,0,2-.77,2.34-2.26Z"/><path class="cls-3" d="M655.29,395.2l-3-6.1-2.63,3v3.14H647V379.12h2.58v10c.24-.34.36-.46.53-.68l4.7-5.11h2.9l-3.58,3.93,3.94,8Z"/><path class="cls-3" d="M664.14,390.18h-5.91V388h5.91Z"/><path class="cls-3" d="M665.86,395.2V379.12h10.35v2.38h-7.46v4.37h6v2.34h-6v4.51h7.55v2.48Z"/><path class="cls-3" d="M685.84,395.2v-7.43c0-1.44-.73-2.36-1.86-2.36a2.56,2.56,0,0,0-2.2,1.47,5,5,0,0,0-.43,2.22v6.1h-2.68V383.31h2.44v2.75c1-2.15,2-3,3.64-3a3.72,3.72,0,0,1,3.26,1.76,5.58,5.58,0,0,1,.5,2.7v7.67Z"/><path class="cls-3" d="M699,395.2v-2.39c-.75,1.81-1.81,2.63-3.5,2.63a3.9,3.9,0,0,1-3.18-1.52A8.67,8.67,0,0,1,691,389.1a7.6,7.6,0,0,1,1.66-5,3.79,3.79,0,0,1,3-1.3,3.21,3.21,0,0,1,3.18,2.1v-5.81h2.68V395.2Zm-.17-7a3,3,0,0,0-.63-2.17,2.35,2.35,0,0,0-1.83-.89c-1.64,0-2.56,1.47-2.56,4.12s.87,4,2.49,4a2.79,2.79,0,0,0,2.53-3Z"/><path class="cls-3" d="M710.82,379.12h5.91a6.44,6.44,0,0,1,5,2,8.42,8.42,0,0,1,2.28,6,8.18,8.18,0,0,1-2.77,6.49,7.84,7.84,0,0,1-5.14,1.59h-5.25Zm5.37,13.72c2.83,0,4.66-2.27,4.66-5.77,0-3.32-1.79-5.67-4.32-5.67h-2.75v11.44Z"/><path class="cls-3" d="M736.53,391.73a5.13,5.13,0,0,1-5.28,3.71c-3.33,0-5.47-2.41-5.47-6.15s2.24-6.22,5.59-6.22,5.33,2.31,5.36,6.51h-8.15v.34c0,2.17,1.06,3.4,2.84,3.4a2.58,2.58,0,0,0,2.68-1.93ZM734,387.84a2.83,2.83,0,0,0-.6-1.85,2.46,2.46,0,0,0-2.07-1c-1.52,0-2.49,1-2.7,2.89Z"/><path class="cls-3" d="M743.75,395.2h-2.24l-4.12-11.89h2.79l2.78,8.06,2.72-8.06h2.1Z"/><path class="cls-3" d="M759.27,391.73a5.15,5.15,0,0,1-5.29,3.71c-3.32,0-5.47-2.41-5.47-6.15s2.24-6.22,5.6-6.22,5.33,2.31,5.35,6.51h-8.15v.34c0,2.17,1.06,3.4,2.84,3.4a2.58,2.58,0,0,0,2.68-1.93Zm-2.58-3.89a2.89,2.89,0,0,0-.61-1.85,2.47,2.47,0,0,0-2.07-1c-1.52,0-2.48,1-2.7,2.89Z"/><path class="cls-3" d="M761.86,395.2V379.12h2.67V395.2Z"/><path class="cls-3" d="M777.07,385.51a6.49,6.49,0,0,1,1,3.76c0,3.64-2.31,6.17-5.64,6.17a4.84,4.84,0,0,1-4.24-2.19,6.92,6.92,0,0,1-1.18-4c0-3.62,2.29-6.15,5.57-6.15A4.92,4.92,0,0,1,777.07,385.51Zm-7.23,3.73c0,2.56,1,4,2.68,4s2.7-1.45,2.7-4.05-.94-3.94-2.65-3.94S769.84,386.69,769.84,389.24Z"/><path class="cls-3" d="M780.53,399.23V383.31h2.58v2.07a3.83,3.83,0,0,1,3.62-2.31,3.49,3.49,0,0,1,3,1.57,7.81,7.81,0,0,1,1.28,4.53,7.94,7.94,0,0,1-1.4,4.8,3.59,3.59,0,0,1-3.11,1.47,3.46,3.46,0,0,1-3.28-1.9v5.69Zm2.73-8.9a2.71,2.71,0,0,0,2.58,3c1.47,0,2.36-1.47,2.36-4s-.87-4.1-2.39-4.1-2.55,1.43-2.55,3.38Z"/><path class="cls-3" d="M808.47,395.2v-7.4c0-1.52-.7-2.29-2.05-2.29-1.67,0-2.61,1.25-2.61,3.44v6.25H801v-7.4a2.49,2.49,0,0,0-.27-1.43,1.84,1.84,0,0,0-1.66-.91c-1.62,0-2.75,1.44-2.75,3.49v6.25h-2.77V383.31h2.6v2.53a5.5,5.5,0,0,1,1.3-1.85,4.12,4.12,0,0,1,2.66-.92c1.75,0,2.84.87,3.42,2.77,1-1.88,2.27-2.77,4-2.77a3.62,3.62,0,0,1,3.81,3.71v8.42Z"/><path class="cls-3" d="M824.49,391.73a5.13,5.13,0,0,1-5.28,3.71c-3.33,0-5.47-2.41-5.47-6.15s2.24-6.22,5.59-6.22,5.33,2.31,5.36,6.51h-8.15v.34c0,2.17,1.06,3.4,2.84,3.4a2.58,2.58,0,0,0,2.68-1.93Zm-2.58-3.89a2.83,2.83,0,0,0-.6-1.85,2.46,2.46,0,0,0-2.07-1c-1.52,0-2.49,1-2.7,2.89Z"/><path class="cls-3" d="M834.32,395.2v-7.43c0-1.44-.73-2.36-1.86-2.36a2.54,2.54,0,0,0-2.19,1.47,4.9,4.9,0,0,0-.44,2.22v6.1h-2.67V383.31h2.43v2.75c1-2.15,2-3,3.64-3a3.71,3.71,0,0,1,3.26,1.76,5.57,5.57,0,0,1,.51,2.7v7.67Z"/><path class="cls-3" d="M845.71,395.2a10.17,10.17,0,0,1-1.88.27,3.65,3.65,0,0,1-2.53-.94c-.63-.63-.83-1.35-.83-3v-6.15H839v-2.1h1.63l.25-3.09,2.19-.19v3.28h2.41v2.1h-2.41v5.79c0,1.49.43,1.93,1.95,1.93.1,0,.39,0,.68,0Z"/><path class="cls-3" d="M889.26,453.52V437.43h10.16v2.48h-7.19v4.42h5.67v2.41h-5.67v6.78Z"/><path class="cls-3" d="M900.51,453.52V441.63h2.43v2.84c.56-2.07,2-3.3,3.62-3.18v2.89h-.17l-.45,0c-1.55.05-2.75,1.69-2.75,3.81v5.5Z"/><path class="cls-3" d="M917.66,443.82a6.62,6.62,0,0,1,1,3.77c0,3.64-2.32,6.17-5.65,6.17a4.83,4.83,0,0,1-4.24-2.2,6.87,6.87,0,0,1-1.18-4c0-3.62,2.29-6.15,5.57-6.15A4.94,4.94,0,0,1,917.66,443.82Zm-7.24,3.74c0,2.56,1,4,2.68,4s2.7-1.44,2.7-4.05-.94-3.93-2.65-3.93S910.42,445,910.42,447.56Z"/><path class="cls-3" d="M928.28,453.52v-7.43c0-1.45-.73-2.36-1.86-2.36a2.54,2.54,0,0,0-2.19,1.47,4.9,4.9,0,0,0-.44,2.22v6.1h-2.67V441.63h2.43v2.75c1-2.15,2-3,3.64-3a3.71,3.71,0,0,1,3.26,1.76,5.58,5.58,0,0,1,.5,2.7v7.67Z"/><path class="cls-3" d="M939.67,453.52a10,10,0,0,1-1.88.26,3.63,3.63,0,0,1-2.54-.94c-.62-.62-.82-1.35-.82-3v-6.15H933v-2.1h1.63l.25-3.09,2.19-.19v3.28h2.41v2.1H937v5.78c0,1.5.43,1.93,2,1.93.1,0,.39,0,.68,0Z"/><path class="cls-3" d="M946.16,448.5h-5.91v-2.19h5.91Z"/><path class="cls-3" d="M947.88,453.52V437.43h10.34v2.39h-7.45v4.36h6v2.35h-6V451h7.55v2.49Z"/><path class="cls-3" d="M967.85,453.52v-7.43c0-1.45-.72-2.36-1.85-2.36a2.55,2.55,0,0,0-2.2,1.47,4.9,4.9,0,0,0-.43,2.22v6.1h-2.68V441.63h2.44v2.75c1-2.15,2-3,3.64-3a3.7,3.7,0,0,1,3.25,1.76,5.57,5.57,0,0,1,.51,2.7v7.67Z"/><path class="cls-3" d="M981,453.52v-2.39c-.74,1.81-1.81,2.63-3.49,2.63a3.92,3.92,0,0,1-3.19-1.52,8.75,8.75,0,0,1-1.35-4.82,7.56,7.56,0,0,1,1.67-5,3.77,3.77,0,0,1,3-1.31,3.24,3.24,0,0,1,3.19,2.1v-5.81h2.67v16.09Zm-.16-7a3,3,0,0,0-.63-2.17,2.35,2.35,0,0,0-1.83-.89c-1.65,0-2.56,1.47-2.56,4.12s.87,4,2.48,4a2.78,2.78,0,0,0,2.54-3Z"/><path class="cls-3" d="M992.83,437.43h5.91a6.38,6.38,0,0,1,5,2,8.39,8.39,0,0,1,2.29,6,8.21,8.21,0,0,1-2.77,6.49,7.86,7.86,0,0,1-5.14,1.59h-5.26Zm5.38,13.73c2.82,0,4.66-2.27,4.66-5.77,0-3.33-1.79-5.67-4.32-5.67H995.8v11.44Z"/><path class="cls-3" d="M1018.55,450a5.13,5.13,0,0,1-5.28,3.72c-3.33,0-5.48-2.41-5.48-6.15s2.25-6.22,5.6-6.22,5.33,2.31,5.35,6.51h-8.15v.34c0,2.17,1.07,3.4,2.85,3.4a2.59,2.59,0,0,0,2.68-1.93Zm-2.58-3.88a2.88,2.88,0,0,0-.6-1.85,2.49,2.49,0,0,0-2.08-1c-1.52,0-2.48,1-2.7,2.89Z"/><path class="cls-3" d="M1025.77,453.52h-2.25l-4.12-11.89h2.8l2.77,8.05,2.73-8.05h2.1Z"/><path class="cls-3" d="M1041.29,450a5.14,5.14,0,0,1-5.29,3.72c-3.32,0-5.47-2.41-5.47-6.15s2.24-6.22,5.59-6.22,5.33,2.31,5.36,6.51h-8.16v.34c0,2.17,1.07,3.4,2.85,3.4a2.58,2.58,0,0,0,2.68-1.93Zm-2.58-3.88a2.89,2.89,0,0,0-.61-1.85,2.48,2.48,0,0,0-2.07-1c-1.52,0-2.49,1-2.71,2.89Z"/><path class="cls-3" d="M1043.87,453.52V437.43h2.68v16.09Z"/><path class="cls-3" d="M1059.09,443.82a6.62,6.62,0,0,1,1,3.77c0,3.64-2.31,6.17-5.64,6.17a4.85,4.85,0,0,1-4.25-2.2,6.94,6.94,0,0,1-1.18-4c0-3.62,2.3-6.15,5.57-6.15A4.94,4.94,0,0,1,1059.09,443.82Zm-7.23,3.74c0,2.56,1,4,2.67,4s2.71-1.44,2.71-4.05-.94-3.93-2.66-3.93S1051.86,445,1051.86,447.56Z"/><path class="cls-3" d="M1062.55,457.55V441.63h2.58v2.07a3.82,3.82,0,0,1,3.62-2.31,3.48,3.48,0,0,1,3,1.56,7.84,7.84,0,0,1,1.27,4.54,8,8,0,0,1-1.39,4.8,3.59,3.59,0,0,1-3.11,1.47,3.46,3.46,0,0,1-3.28-1.9v5.69Zm2.73-8.9a2.71,2.71,0,0,0,2.58,3c1.47,0,2.36-1.47,2.36-4s-.87-4.1-2.39-4.1-2.55,1.43-2.55,3.38Z"/><path class="cls-3" d="M1090.48,453.52v-7.41c0-1.52-.7-2.29-2-2.29-1.66,0-2.6,1.26-2.6,3.45v6.25H1083v-7.41a2.53,2.53,0,0,0-.27-1.42,1.84,1.84,0,0,0-1.67-.91c-1.61,0-2.75,1.44-2.75,3.49v6.25h-2.77V441.63h2.6v2.53a5.7,5.7,0,0,1,1.31-1.86,4.15,4.15,0,0,1,2.65-.91c1.76,0,2.85.87,3.42,2.77,1-1.88,2.28-2.77,4-2.77a3.62,3.62,0,0,1,3.81,3.71v8.42Z"/><path class="cls-3" d="M1106.51,450a5.14,5.14,0,0,1-5.28,3.72c-3.33,0-5.48-2.41-5.48-6.15s2.25-6.22,5.6-6.22,5.33,2.31,5.35,6.51h-8.15v.34c0,2.17,1.07,3.4,2.85,3.4a2.59,2.59,0,0,0,2.68-1.93Zm-2.58-3.88a2.88,2.88,0,0,0-.6-1.85,2.49,2.49,0,0,0-2.08-1c-1.52,0-2.48,1-2.7,2.89Z"/><path class="cls-3" d="M1116.34,453.52v-7.43c0-1.45-.73-2.36-1.86-2.36a2.56,2.56,0,0,0-2.2,1.47,5,5,0,0,0-.43,2.22v6.1h-2.68V441.63h2.44v2.75c1-2.15,2-3,3.64-3a3.72,3.72,0,0,1,3.26,1.76,5.58,5.58,0,0,1,.5,2.7v7.67Z"/><path class="cls-3" d="M1127.73,453.52a10,10,0,0,1-1.89.26,3.62,3.62,0,0,1-2.53-.94c-.62-.62-.82-1.35-.82-3v-6.15H1121v-2.1h1.64l.24-3.09,2.2-.19v3.28h2.41v2.1h-2.41v5.78c0,1.5.43,1.93,2,1.93.1,0,.39,0,.68,0Z"/></svg>